<svg width="976" height="432" viewBox="0 0 976 432" fill="none" xmlns="http://www.w3.org/2000/svg">
<path opacity="0.5" d="M642.322 4C624.465 4 608.589 16.0413 609.037 33.8928C609.734 61.6532 620.533 102.104 671.801 125.396C755.306 163.332 846.766 96.9437 882.554 174.712C901.635 216.176 926.933 230.68 946.394 235.186C963.656 239.183 976 223.255 976 205.537V44C976 21.9086 958.091 4 936 4H642.322Z" fill="#354D2E"/>
<path opacity="0.5" d="M494.6 432C526.68 432 545.994 395.819 528.658 368.826C480.888 294.447 491.522 316.076 369.562 323.142C201.122 332.902 162.155 247.317 131.986 189.51C112.732 152.615 64.2899 148.508 31.7616 150.365C13.052 151.432 0 167.715 0 186.455V392C0 414.091 17.9086 432 40 432H494.6Z" fill="#354D2E"/>
<path opacity="0.69" d="M100.238 421.766C133.507 421.766 160.476 416.816 160.476 410.711C160.476 404.605 133.507 399.656 100.238 399.656C66.9695 399.656 40 404.605 40 410.711C40 416.816 66.9695 421.766 100.238 421.766Z" fill="#E8E8E8"/>
<path d="M45.679 319.565L61.1035 405.223C61.7051 408.565 64.4451 411.278 68.0935 412.115C80.012 414.847 107.944 419.536 136.837 412.126C140.227 411.257 142.794 408.753 143.506 405.649L162.083 324.658L45.679 319.565Z" fill="#E26C00"/>
<path d="M42.7565 304.99V321.658H165.549V304.295L42.7565 304.99Z" fill="#F27916"/>
<path d="M104.152 312.629C138.061 312.629 165.549 309.053 165.549 304.642C165.549 300.231 138.061 296.655 104.152 296.655C70.2438 296.655 42.7555 300.231 42.7555 304.642C42.7555 309.053 70.2438 312.629 104.152 312.629Z" fill="#AF0000"/>
<path d="M104.152 312.629C138.061 312.629 165.549 309.053 165.549 304.642C165.549 300.231 138.061 296.655 104.152 296.655C70.2438 296.655 42.7555 300.231 42.7555 304.642C42.7555 309.053 70.2438 312.629 104.152 312.629Z" fill="#AF0000"/>
<path d="M104.152 329.992C138.061 329.992 165.549 326.416 165.549 322.005C165.549 317.594 138.061 314.018 104.152 314.018C70.2438 314.018 42.7555 317.594 42.7555 322.005C42.7555 326.416 70.2438 329.992 104.152 329.992Z" fill="#F27916"/>
<path d="M104.152 300.128C73.1921 300.128 48.0942 303.393 48.0942 307.42C48.0942 307.597 48.1598 307.771 48.2544 307.945C57.9154 310.707 79.3014 312.629 104.151 312.629C129.001 312.629 150.387 310.707 160.048 307.945C160.143 307.771 160.208 307.597 160.208 307.42C160.211 303.393 135.113 300.128 104.152 300.128Z" fill="#461926"/>
<path d="M105.116 310.546C105.116 310.546 97.4937 277.643 113.121 256.393C128.746 235.143 124.936 228.631 121.887 207.381C118.837 186.131 128.746 175.849 135.226 162.139C141.706 148.429 139.418 135.748 142.467 131.978C145.517 128.208 152.376 139.861 155.044 158.369C156.947 171.568 142.848 184.417 149.327 206.695C155.806 228.973 155.426 237.541 145.135 260.505C136.633 279.478 121.505 285.182 115.788 310.545L105.116 310.546Z" fill="#45633B"/>
<path d="M139.969 144.688C140.196 147.162 140.13 149.644 139.773 152.105C139.169 156.266 138.286 163.285 138.286 168.716C138.286 176.962 136.249 191.623 136.249 205.367C136.249 219.111 140.325 231.023 138.286 242.934C136.249 254.845 127.714 282.69 127.714 282.69L129.116 243.85L128.097 187.957L136.182 162.523L137.103 157.551C137.103 157.551 139.614 148.149 139.969 144.688Z" fill="#395131"/>
<path d="M119.918 306.659C119.918 306.659 129.09 267.379 117.19 241.079C105.289 214.779 109.101 207.109 113.4 181.656C117.698 156.203 109.903 143.371 105.349 126.566C100.795 109.762 103.765 94.5928 101.415 89.9138C99.0639 85.2348 92.2062 98.9588 88.451 121.127C86.4817 132.759 92.0394 144.556 92.1862 160.548C92.2385 166.291 91.5924 172.575 89.6498 179.586C82.2961 206.122 81.9603 216.459 89.0993 244.58C94.9974 267.815 107.676 275.37 110.661 306.174L119.918 306.659Z" fill="#45633B"/>
<path d="M87.3411 202.618C87.3411 202.618 96.5107 210.864 99.5676 232.855C102.624 254.845 104.152 279.443 104.152 279.443L111.794 262.176L113.882 234.963L108.737 214.53L98.5479 198.037L90.3969 185.209L88.3586 182.46L86.5116 191.875L87.3411 202.618Z" fill="#395131"/>
<path d="M93.455 161.386C93.455 161.386 97.5305 166.884 100.587 171.465L105.298 178.525C105.835 179.33 107.175 179.19 107.483 178.293C108.866 174.258 111.842 165.998 114.417 161.706L114.83 168.502L109.174 192.693L103.643 187.042L92.1317 163.531V159.067L93.455 161.386Z" fill="#395131"/>
<path d="M118.613 308.147C118.613 306.08 116.314 273.005 112.866 253.366C109.418 233.728 105.969 208.921 108.269 194.451C110.569 179.981 112.866 171.712 118.613 154.141C124.36 136.57 125.509 117.965 127.808 116.932C130.106 115.898 138.152 139.671 137.003 160.343C135.853 181.015 131.256 203.754 134.705 226.493C138.153 249.232 126.659 280.24 126.659 290.576C126.659 300.912 125.509 308.147 125.509 308.147H118.613Z" fill="#739B67"/>
<path d="M125.697 124.096C125.697 124.096 127.222 123.411 128.747 124.096C130.271 124.782 131.414 124.096 131.414 124.096L132.557 128.209C132.557 128.209 132.176 128.552 130.271 128.552C128.366 128.552 127.603 128.209 126.841 128.895C126.078 129.58 124.935 129.238 124.935 129.238L125.697 124.096Z" fill="#45633B"/>
<path d="M124.554 133.007L123.411 138.833C123.411 138.833 125.697 137.119 127.222 138.148C128.747 139.176 131.796 139.519 132.939 138.833C134.082 138.148 134.845 138.148 134.845 138.148L133.702 132.322C133.702 132.322 131.034 131.636 129.128 132.322C127.222 133.007 124.554 133.007 124.554 133.007Z" fill="#45633B"/>
<path d="M121.505 147.402L122.648 141.918C122.648 141.918 124.173 140.547 125.316 141.918C126.459 143.289 128.365 144.66 129.89 143.289C131.414 141.918 132.557 141.233 133.32 141.233C134.082 141.233 135.606 141.576 135.606 141.576L136.369 148.431C136.369 148.431 135.226 150.83 132.177 150.487C129.128 150.144 126.842 148.431 124.936 148.773C123.03 149.116 121.505 147.402 121.505 147.402Z" fill="#45633B"/>
<path d="M119.219 155.285C119.219 155.285 121.506 154.6 123.793 155.628C126.08 156.656 127.603 155.628 131.034 155.628C134.464 155.628 136.751 155.628 136.751 155.628L135.988 164.882C135.988 164.882 132.939 166.939 128.365 167.281C123.791 167.623 123.791 164.882 119.981 165.225C116.17 165.568 116.17 164.882 116.17 164.882L119.219 155.285Z" fill="#45633B"/>
<path d="M113.121 174.821C113.121 174.821 116.17 173.45 119.6 174.821C123.031 176.192 126.08 176.535 128.366 175.849C130.654 175.163 135.226 175.163 135.226 175.163L134.083 186.131C134.083 186.131 126.842 189.901 122.649 189.901C118.457 189.901 116.171 185.446 112.74 186.474C109.31 187.502 110.834 184.075 110.834 184.075L113.121 174.821Z" fill="#45633B"/>
<path d="M108.928 200.184C108.928 200.184 114.264 197.785 118.456 200.184C122.648 202.583 124.173 200.869 126.841 200.527C129.508 200.184 132.939 199.156 132.939 199.156L132.176 211.152C132.176 211.152 131.033 213.551 125.696 214.58C120.361 215.608 115.787 211.838 113.5 212.523C111.214 213.208 108.926 211.837 108.926 211.837V200.184H108.928Z" fill="#45633B"/>
<path d="M109.309 221.776C109.309 221.776 111.215 220.405 113.882 220.748C116.55 221.091 117.693 222.462 121.505 221.776C125.316 221.09 125.697 219.377 127.985 220.062C130.271 220.747 132.94 220.405 132.94 220.405L134.083 229.316C134.083 229.316 133.702 232.058 130.652 233.429C127.603 234.8 122.648 233.429 120.362 234.115C118.076 234.8 116.551 235.486 115.027 235.143C113.502 234.8 110.834 234.8 110.834 234.8L109.309 221.776Z" fill="#45633B"/>
<path d="M111.978 242.341L113.884 253.309C113.884 253.309 119.219 256.736 121.125 254.68C123.031 252.624 123.411 252.966 126.46 252.624C129.509 252.281 129.509 251.938 131.034 251.596C132.558 251.253 133.32 250.911 133.32 250.911L134.463 239.943C134.463 239.943 131.414 237.544 129.128 237.887C126.842 238.23 123.793 241.657 119.981 240.972C116.17 240.284 111.978 242.341 111.978 242.341Z" fill="#45633B"/>
<path d="M115.407 262.219L116.55 275.243C116.55 275.243 117.312 274.215 120.361 274.558C123.41 274.901 126.459 273.187 127.221 273.187C127.983 273.187 129.127 273.187 129.127 273.187L131.413 261.877C131.413 261.877 129.507 264.276 126.458 263.933C123.409 263.59 120.36 260.848 119.217 261.191C118.075 261.534 115.407 262.219 115.407 262.219Z" fill="#45633B"/>
<path d="M117.313 282.098C117.313 282.098 118.456 281.07 120.362 281.413C122.268 281.756 123.793 281.07 124.936 280.727C126.079 280.384 127.603 280.727 127.603 280.727L126.46 285.525C126.46 285.525 124.936 287.239 123.03 286.896C121.124 286.553 118.838 285.868 118.456 286.211C118.075 286.554 117.693 286.211 117.693 286.211L117.313 282.098Z" fill="#45633B"/>
<path d="M118.075 291.01C118.075 291.01 119.218 289.639 121.124 290.324C123.03 291.01 124.173 291.352 124.554 291.01C124.936 290.667 126.46 290.667 126.46 290.667L126.079 295.808C126.079 295.808 124.173 297.179 122.268 297.179C120.363 297.179 118.457 296.494 118.457 296.494L118.075 291.01Z" fill="#45633B"/>
<path d="M86.754 310.374C86.754 308.635 88.6878 280.805 91.589 264.282C94.4902 247.759 97.3914 226.886 95.4577 214.711C93.5239 202.536 91.589 195.578 86.754 180.794C81.9191 166.01 80.9516 150.356 79.0179 149.486C77.0841 148.616 70.3142 168.619 71.2817 186.012C72.2491 203.405 76.1167 222.538 73.2155 241.671C70.3142 260.804 79.9853 286.894 79.9853 295.59C79.9853 304.287 80.9527 310.374 80.9527 310.374H86.754Z" fill="#739B67"/>
<path d="M80.7937 155.514C80.7937 155.514 79.5105 154.937 78.2284 155.514C76.9451 156.091 75.9832 155.514 75.9832 155.514L75.0214 158.975C75.0214 158.975 75.3416 159.263 76.9451 159.263C78.5486 159.263 79.1902 158.975 79.8308 159.551C80.4724 160.128 81.4343 159.839 81.4343 159.839L80.7937 155.514Z" fill="#45633B"/>
<path d="M81.7556 163.012L82.7175 167.914C82.7175 167.914 80.7937 166.472 79.5104 167.337C78.2283 168.202 75.6629 168.491 74.6999 167.914C73.7381 167.337 73.0964 167.337 73.0964 167.337L74.0583 162.435C74.0583 162.435 76.3034 161.858 77.9069 162.435C79.5104 163.012 81.7556 163.012 81.7556 163.012Z" fill="#45633B"/>
<path d="M84.321 175.124L83.3591 170.51C83.3591 170.51 82.0759 169.357 81.114 170.51C80.1521 171.664 78.5486 172.817 77.2654 171.664C75.9832 170.51 75.0202 169.934 74.3797 169.934C73.7381 169.934 72.456 170.222 72.456 170.222L71.8143 175.99C71.8143 175.99 72.7762 178.009 75.3416 177.72C77.907 177.432 79.8307 175.99 81.4342 176.278C83.0377 176.566 84.321 175.124 84.321 175.124Z" fill="#45633B"/>
<path d="M86.2447 181.757C86.2447 181.757 84.321 181.18 82.3961 182.045C80.4723 182.91 79.1891 182.045 76.3034 182.045C73.4167 182.045 71.4929 182.045 71.4929 182.045L72.1345 189.831C72.1345 189.831 74.6999 191.561 78.5486 191.85C82.3972 192.138 82.3972 189.831 85.6031 190.12C88.8101 190.408 88.8101 189.832 88.8101 189.832L86.2447 181.757Z" fill="#45633B"/>
<path d="M91.3756 198.195C91.3756 198.195 88.8102 197.042 85.9245 198.195C83.0389 199.349 80.4735 199.637 78.5486 199.06C76.6249 198.483 72.7762 198.483 72.7762 198.483L73.7381 207.711C73.7381 207.711 79.8308 210.883 83.358 210.883C86.8853 210.883 88.8091 207.134 91.6958 207.999C94.5815 208.864 93.2993 205.98 93.2993 205.98L91.3756 198.195Z" fill="#45633B"/>
<path d="M94.9028 219.535C94.9028 219.535 90.4136 217.516 86.8852 219.535C83.358 221.554 82.0747 220.112 79.8307 219.823C77.5856 219.535 74.7 218.669 74.7 218.669L75.3416 228.762C75.3416 228.762 76.3035 230.781 80.7937 231.646C85.2829 232.511 89.1315 229.339 91.0552 229.916C92.979 230.493 94.9039 229.339 94.9039 229.339L94.9028 219.535Z" fill="#45633B"/>
<path d="M94.5825 237.703C94.5825 237.703 92.979 236.549 90.7339 236.838C88.4887 237.126 87.5268 238.28 84.3198 237.703C81.1128 237.126 80.7926 235.684 78.8688 236.261C76.9451 236.838 74.6999 236.549 74.6999 236.549L73.738 244.047C73.738 244.047 74.0583 246.354 76.6237 247.508C79.1891 248.662 83.358 247.508 85.2817 248.085C87.2055 248.662 88.4887 249.239 89.7709 248.95C91.0541 248.662 93.2981 248.662 93.2981 248.662L94.5825 237.703Z" fill="#45633B"/>
<path d="M92.3374 255.005L90.7339 264.233C90.7339 264.233 86.2447 267.117 84.6412 265.387C83.0377 263.657 82.7175 263.945 80.1521 263.657C77.5867 263.369 77.5867 263.08 76.3046 262.792C75.0213 262.504 74.3808 262.215 74.3808 262.215L73.4189 252.987C73.4189 252.987 75.9843 250.968 77.9081 251.257C79.8318 251.545 82.3972 254.429 85.6042 253.852C88.8101 253.275 92.3374 255.005 92.3374 255.005Z" fill="#45633B"/>
<path d="M89.4518 271.732L88.4899 282.69C88.4899 282.69 87.8483 281.825 85.2829 282.113C82.7175 282.401 80.1522 280.959 79.5105 280.959C78.8689 280.959 77.907 280.959 77.907 280.959L75.9833 271.443C75.9833 271.443 77.5868 273.462 80.1522 273.173C82.7175 272.885 85.2829 270.578 86.2448 270.866C87.2067 271.155 89.4518 271.732 89.4518 271.732Z" fill="#45633B"/>
<path d="M87.8482 288.457C87.8482 288.457 86.8864 287.592 85.2829 287.88C83.6793 288.168 82.3972 287.592 81.4342 287.303C80.4723 287.015 79.1891 287.303 79.1891 287.303L80.151 291.34C80.151 291.34 81.4342 292.782 83.0377 292.494C84.6412 292.206 86.565 291.629 86.8852 291.917C87.2055 292.205 87.5269 291.917 87.5269 291.917L87.8482 288.457Z" fill="#45633B"/>
<path d="M87.2066 295.955C87.2066 295.955 86.2447 294.801 84.6412 295.378C83.0377 295.955 82.0759 296.243 81.7556 295.955C81.4353 295.667 80.1521 295.667 80.1521 295.667L80.4724 299.993C80.4724 299.993 82.0759 301.147 83.6794 301.147C85.2829 301.147 86.8864 300.57 86.8864 300.57L87.2066 295.955Z" fill="#45633B"/>
<path d="M117.373 269.075C119.65 263.179 121.411 256.82 122.17 250.61C122.206 250.324 122.285 250.052 122.385 249.788C121.098 225.747 110.796 189.744 99.0372 172.662C84.3811 151.371 71.9801 141.233 71.9801 141.233C71.9801 141.233 70.8525 152.385 82.1271 171.648C93.4005 190.911 106.93 228.423 109.184 237.548C111.439 246.673 109.184 279.116 106.929 287.227C104.674 295.338 101.292 310.545 101.292 310.545H105.802C105.802 309.687 113.872 292.135 119.088 274.47C117.379 273.365 116.439 271.494 117.373 269.075Z" fill="#739B67"/>
<path d="M106.579 284.179C107.477 280.485 109.111 276.976 111.365 273.783C115.783 267.526 122.944 255.425 121.922 243.908C121.922 243.908 127.222 272.019 105.802 310.546H100.165L106.579 284.179Z" fill="#45633B"/>
<path d="M74.3042 147.316C74.3042 147.316 75.5007 146.302 76.6983 147.316C78.5909 148.919 79.0925 148.33 79.0925 148.33L81.4866 151.372C81.4866 151.372 79.0925 150.358 76.6983 151.372C74.3042 152.386 74.3042 153.4 74.3042 153.4L73.1066 149.344C73.1066 149.344 73.1066 148.33 74.3042 147.316Z" fill="#45633B"/>
<path d="M75.3617 157.454C75.3617 157.454 76.4893 156.44 78.7433 156.44C80.9984 156.44 80.9984 154.412 82.126 154.412C83.2536 154.412 84.3811 154.412 84.3811 154.412L87.7627 158.467C87.7627 158.467 83.2536 156.439 82.126 159.481C80.9984 162.523 77.6168 160.495 77.6168 162.523L75.3617 157.454Z" fill="#45633B"/>
<path d="M79.5817 166.253C79.5817 166.253 79.2003 165.225 81.1063 164.882C83.0122 164.539 82.6308 163.168 85.2985 162.483C87.9662 161.798 89.8721 161.112 89.8721 161.112L92.9213 164.882C92.9213 164.882 88.3476 164.539 86.0613 166.596C83.775 168.653 81.8691 167.967 81.4877 170.023L79.5817 166.253Z" fill="#45633B"/>
<path d="M83.7739 173.793C83.7739 173.793 82.6308 172.079 87.2045 172.422C91.7781 172.765 90.635 170.023 92.9213 170.023C95.2075 170.023 95.9704 168.995 95.9704 168.995L98.6381 173.108C98.6381 173.108 97.1135 173.108 94.8272 175.164C92.541 177.22 89.1104 176.535 87.5859 177.22C86.0613 177.906 86.0613 178.591 86.0613 178.591L83.7739 173.793Z" fill="#45633B"/>
<path d="M88.3475 182.361C88.3475 182.361 89.1093 180.304 92.9212 180.304C96.7331 180.304 97.4949 178.248 98.638 178.248C99.7811 178.248 101.306 176.877 101.306 176.877L103.593 181.333C103.593 181.333 95.9703 183.732 94.0643 185.103C92.1584 186.474 89.6808 186.365 89.6808 186.365L88.3475 182.361Z" fill="#45633B"/>
<path d="M105.498 185.446L108.166 191.615C108.166 191.615 105.498 191.958 104.355 194.7C103.212 197.442 99.0194 194.014 97.4949 195.043C95.9703 196.071 94.8272 196.757 94.8272 196.757L91.7781 190.245C91.7781 190.245 92.9212 188.188 95.9703 188.874C99.0194 189.559 99.4008 187.503 101.306 185.789C103.212 184.075 105.498 185.104 105.498 185.104V185.446Z" fill="#45633B"/>
<path d="M98.6381 205.668C98.6381 205.668 99.0195 204.64 100.924 204.297C102.83 203.954 103.592 203.954 105.117 202.583C106.641 201.212 106.641 200.527 107.784 200.527C108.927 200.527 111.215 199.842 111.215 199.842L113.501 206.697C113.501 206.697 111.215 206.354 110.071 207.382C108.927 208.41 107.403 206.354 105.115 208.753C102.829 211.152 101.305 212.523 101.305 212.523L98.6381 205.668Z" fill="#45633B"/>
<path d="M103.212 216.978C103.212 216.978 104.355 215.264 108.167 215.607C111.978 215.95 111.597 212.865 112.74 212.865C113.884 212.865 115.027 212.522 115.027 212.522L117.313 221.776C117.313 221.776 116.551 219.719 114.645 221.776C112.739 223.832 112.359 223.832 109.69 224.518C107.022 225.204 106.26 225.889 106.26 225.889L103.212 216.978Z" fill="#45633B"/>
<path d="M107.784 231.03C107.784 231.03 108.547 230.002 111.215 230.002C113.882 230.002 114.264 230.688 115.788 229.316C117.313 227.945 118.837 227.945 118.837 227.945L119.981 234.457C119.981 234.457 118.075 238.227 115.027 237.542C111.978 236.856 111.596 236.514 110.834 236.856C110.072 237.199 109.31 236.171 109.31 236.171L107.784 231.03Z" fill="#45633B"/>
<path d="M110.453 246.796C110.453 246.796 109.69 246.11 112.359 246.11C115.028 246.11 114.645 245.767 116.551 244.396C118.457 243.025 119.219 243.711 119.982 244.053C120.745 244.396 121.506 244.053 121.506 244.053C121.506 244.053 121.506 247.138 121.506 247.823C121.506 248.509 120.745 248.851 119.219 249.537C117.694 250.223 118.076 249.88 115.788 249.537C113.502 249.194 110.453 250.565 110.453 250.565V246.796Z" fill="#45633B"/>
<path d="M110.453 255.365C110.453 255.365 111.215 253.994 112.74 254.68C114.265 255.365 116.171 253.309 117.694 253.652C119.219 253.995 120.743 252.624 120.743 252.624C120.743 252.624 119.6 256.737 118.457 259.136C117.314 261.535 116.551 259.822 115.789 260.164C115.028 260.507 113.122 260.85 111.979 259.478C110.836 258.107 110.454 259.135 110.454 259.135L110.453 255.365Z" fill="#45633B"/>
<path d="M110.072 264.619C110.072 264.619 111.978 264.276 113.502 264.962C115.027 265.648 116.551 264.962 116.551 264.962L112.359 271.817C112.359 271.817 111.216 271.474 110.453 271.817C109.69 272.16 109.31 271.474 109.31 271.474L110.072 264.619Z" fill="#45633B"/>
<path opacity="0.69" d="M795.098 421.475C828.367 421.475 855.337 416.525 855.337 410.42C855.337 404.314 828.367 399.365 795.098 399.365C761.83 399.365 734.86 404.314 734.86 410.42C734.86 416.525 761.83 421.475 795.098 421.475Z" fill="#E8E8E8"/>
<path d="M796.012 139.877C796.012 139.877 791.625 112.238 814.651 115.226C833.35 117.652 829.214 134.282 843.273 147.33C857.332 160.378 856.798 172.854 853.595 183.662C850.393 194.471 859.209 208.159 858.683 216.014C858.157 223.869 844.767 243.259 847.11 256.107C849.454 268.956 836.36 281.09 831.838 281.824C827.315 282.558 826.808 277.87 828.157 269.462C829.506 261.054 807.643 259.57 809.214 240.627C810.786 221.684 800.613 221.024 792.404 212.697C784.197 204.369 791.699 203.362 783.81 188.474C775.92 173.585 764.308 172.739 764.123 160.17C763.937 147.601 770.12 136.519 779.989 134.499C789.857 132.476 796.012 139.877 796.012 139.877Z" fill="#395131"/>
<path d="M736.903 319.274L752.328 404.932C752.929 408.274 755.669 410.987 759.318 411.824C771.236 414.556 799.168 419.245 828.061 411.835C831.451 410.966 834.018 408.462 834.73 405.358L853.307 324.367L736.903 319.274Z" fill="#E26C00"/>
<path d="M733.981 304.699V321.367H856.773V304.004L733.981 304.699Z" fill="#F27916"/>
<path d="M795.378 312.338C829.286 312.338 856.774 308.762 856.774 304.351C856.774 299.94 829.286 296.364 795.378 296.364C761.469 296.364 733.981 299.94 733.981 304.351C733.981 308.762 761.469 312.338 795.378 312.338Z" fill="#AF0000"/>
<path d="M795.378 312.338C829.286 312.338 856.774 308.762 856.774 304.351C856.774 299.94 829.286 296.364 795.378 296.364C761.469 296.364 733.981 299.94 733.981 304.351C733.981 308.762 761.469 312.338 795.378 312.338Z" fill="#AF0000"/>
<path d="M795.378 329.701C829.286 329.701 856.774 326.125 856.774 321.714C856.774 317.303 829.286 313.727 795.378 313.727C761.469 313.727 733.981 317.303 733.981 321.714C733.981 326.125 761.469 329.701 795.378 329.701Z" fill="#F27916"/>
<path d="M845.812 358.581C845.812 362.241 823.004 365.208 794.867 365.208C766.731 365.208 743.922 362.241 743.922 358.581" stroke="#F27916" stroke-miterlimit="10"/>
<path d="M847.389 350.763C847.389 354.536 823.875 357.595 794.867 357.595C765.861 357.595 742.345 354.536 742.345 350.763" stroke="#F27916" stroke-miterlimit="10"/>
<path d="M851.926 330.343C851.926 334.406 826.608 337.699 795.378 337.699C764.147 337.699 738.829 334.406 738.829 330.343" stroke="#F27916" stroke-miterlimit="10"/>
<path d="M838.353 390.563C838.353 393.687 818.884 396.22 794.867 396.22C770.851 396.22 751.381 393.687 751.381 390.563" stroke="#F27916" stroke-miterlimit="10"/>
<path d="M839.699 383.89C839.699 387.111 819.627 389.722 794.867 389.722C770.108 389.722 750.036 387.111 750.036 383.89" stroke="#F27916" stroke-miterlimit="10"/>
<path d="M795.378 299.837C764.418 299.837 739.321 303.102 739.321 307.129C739.321 307.306 739.386 307.48 739.481 307.654C749.142 310.416 770.528 312.338 795.378 312.338C820.227 312.338 841.613 310.416 851.276 307.654C851.37 307.48 851.436 307.306 851.436 307.129C851.435 303.102 826.337 299.837 795.378 299.837Z" fill="#461926"/>
<path d="M796.728 306.324C796.728 306.324 796.116 201.444 798.943 140.937" stroke="#395131" stroke-miterlimit="10"/>
<path d="M739.338 162.469C739.338 162.469 779.423 207.308 782.814 304.004" stroke="#395131" stroke-miterlimit="10"/>
<path d="M822.887 196.371C822.887 196.371 784.17 226.608 794.358 308.156" stroke="#395131" stroke-miterlimit="10"/>
<path d="M900.654 257.24C893.119 237.666 882.236 237.666 882.236 216.586C882.236 195.506 865.534 191.502 867.208 171.174C868.883 150.847 853.566 136.682 837.66 138.188C821.754 139.694 815.426 150.391 816.263 160.179C817.101 169.966 822.795 180.449 822.795 180.449C822.795 180.449 814.423 166.898 791.819 169.156C769.216 171.414 770.053 197.012 785.959 209.81C801.865 222.609 801.028 229.384 810.237 239.924C819.447 250.464 821.958 237.665 834.516 264.768C847.073 291.871 875.537 302.411 881.398 312.198C887.258 321.985 886.42 335.537 891.443 337.042C896.466 338.548 903.164 324.243 899.816 303.163C896.468 282.084 908.189 276.814 900.654 257.24ZM801.415 205.758C800.981 212.406 795.887 211.49 793.849 208.741C791.81 205.992 787.735 202.327 791.81 200.495C791.81 200.495 801.848 199.11 801.415 205.758ZM835.114 160.637C832.057 156.056 836.132 153.307 836.132 153.307C838.171 150.558 848.359 156.972 848.359 158.805C848.36 160.637 838.171 165.218 835.114 160.637ZM849.379 168.883C847.34 167.967 850.397 164.302 850.397 164.302C851.416 164.302 852.434 164.302 853.454 166.134C854.474 167.967 851.417 169.799 849.379 168.883ZM851.417 279.752C849.379 278.836 852.435 275.171 852.435 275.171C853.454 275.171 854.474 275.171 855.492 277.003C856.511 278.836 853.454 280.668 851.417 279.752Z" fill="#45633B"/>
<path d="M823.397 180.337C823.397 180.337 843.775 194.997 851.926 227.983C860.077 260.969 871.285 271.048 881.474 282.043C891.664 293.038 894.578 322.554 892.611 337.117" stroke="#395131" stroke-miterlimit="10"/>
<path d="M804.628 232.301C804.628 232.301 807.604 215.613 819.831 210.115C832.057 204.617 826.543 196.371 837.961 196.371" stroke="#395131" stroke-miterlimit="10"/>
<path d="M840.209 198.204C840.209 198.204 852.435 194.539 859.568 200.953C866.7 207.367 876.092 203.861 881.585 209.737" stroke="#395131" stroke-miterlimit="10"/>
<path d="M824.908 248.844C824.908 248.844 829.001 238.52 838.171 235.771C847.34 233.022 845.303 224.776 851.416 223.859" stroke="#395131" stroke-miterlimit="10"/>
<path d="M852.135 228.819C852.135 228.819 864.662 225.692 871.794 236.687C878.927 247.682 891.696 243.119 897.538 250.44" stroke="#395131" stroke-miterlimit="10"/>
<path d="M840.209 273.952C840.209 273.952 846.323 267.84 847.341 260.51C848.36 253.18 854.51 248.172 858.567 248.843" stroke="#395131" stroke-miterlimit="10"/>
<path d="M867.026 299.837C867.026 299.837 870.776 298.077 868.738 288.915C866.699 279.752 863.54 271.246 870.724 270.002" stroke="#395131" stroke-miterlimit="10"/>
<path d="M901.05 282.66C901.05 282.66 888.824 286.417 880.31 280.794" stroke="#395131" stroke-miterlimit="10"/>
<path d="M736.87 161.34C736.87 161.34 746.391 132.123 721.021 132.123C700.417 132.123 702.002 150.651 684.569 162.766C667.135 174.881 665.551 188.42 667.135 200.535C668.72 212.65 656.834 226.189 656.041 234.741C655.248 243.292 666.342 266.096 661.587 279.636C656.833 293.176 668.863 308.107 673.618 309.532C678.373 310.957 679.732 305.968 679.732 296.704C679.732 287.44 703.587 288.9 705.171 268.234C706.756 247.568 717.85 248.281 728.152 240.442C738.453 232.603 730.529 230.465 741.624 215.5C752.718 200.535 765.397 201.248 767.775 187.708C770.152 174.168 765.397 161.341 755.095 157.778C744.794 154.214 736.87 161.34 736.87 161.34Z" fill="#45633B"/>
<path d="M736.791 161.095C736.791 161.095 668.525 222.485 674.638 304.034" stroke="#395131" stroke-miterlimit="10"/>
<path d="M713.696 187.201C713.696 187.201 722.526 209.658 720.488 231.648" stroke="#395131" stroke-miterlimit="10"/>
<path d="M706.334 197.538C706.334 197.538 682.789 199.578 670.562 209.657" stroke="#395131" stroke-miterlimit="10"/>
<path d="M689.579 227.278C689.579 227.278 699.601 239.436 695.524 252.264C691.449 265.092 695.524 277.003 696.543 278.836" stroke="#395131" stroke-miterlimit="10"/>
<path d="M696.544 162.469C696.544 162.469 709.813 156.057 726.103 172.091" stroke="#395131" stroke-miterlimit="10"/>
<path d="M723.241 176.587C723.241 176.587 734.243 178.046 736.281 189.958C738.319 201.87 746.47 202.786 746.47 202.786" stroke="#395131" stroke-miterlimit="10"/>
<path d="M688.393 178.046C688.393 178.046 698.583 175.297 703.677 178.046C708.771 180.795 717.919 181.766 717.919 181.766" stroke="#395131" stroke-miterlimit="10"/>
<path opacity="0.29" d="M717.432 138.188C717.432 138.188 706.224 142.769 705.206 149.183C704.187 155.597 721.508 157.429 727.621 154.681C733.734 151.932 730.677 132.69 717.432 138.188Z" fill="#739B67"/>
<path opacity="0.29" d="M727.621 197.746C727.621 197.746 723.546 204.16 726.603 209.658C729.66 215.156 740.867 209.658 739.849 205.993C738.828 202.327 731.697 191.332 727.621 197.746Z" fill="#739B67"/>
<path opacity="0.29" d="M817.501 185.312C817.501 185.312 811.317 175.912 801.227 175.424C791.137 174.936 790.795 191.906 796.778 193.409C802.759 194.912 823.685 194.712 817.501 185.312Z" fill="#739B67"/>
<path opacity="0.29" d="M682.641 278.301C682.641 278.301 680.904 281.035 682.206 283.378C683.509 285.721 688.285 283.378 687.852 281.816C687.418 280.253 684.378 275.567 682.641 278.301Z" fill="#739B67"/>
<path opacity="0.29" d="M867.21 212.406C867.21 212.406 861.096 216.071 862.115 221.569C863.134 227.067 879.437 239.895 880.456 233.481C881.474 227.066 876.379 207.825 867.21 212.406Z" fill="#739B67"/>
<path opacity="0.29" d="M881.474 259.136C881.474 259.136 877.399 261.885 880.456 267.382C883.513 272.88 892.682 269.215 891.664 264.633C890.644 260.052 886.568 255.471 881.474 259.136Z" fill="#739B67"/>
<path opacity="0.29" d="M823.397 217.904C823.397 217.904 818.303 227.067 822.378 230.732C826.454 234.397 842.756 227.983 842.756 220.653C842.756 213.322 826.454 212.406 823.397 217.904Z" fill="#739B67"/>
<path d="M670.577 239.104C670.577 239.104 680.011 224.05 691.844 223.497" stroke="#395131" stroke-miterlimit="10"/>
<path opacity="0.29" d="M700.726 215.968C700.726 215.968 697.146 221.603 699.831 226.432C702.517 231.262 712.362 226.432 711.467 223.212C710.572 219.993 704.307 210.334 700.726 215.968Z" fill="#739B67"/>
<path opacity="0.69" d="M545.421 427.935C597.022 427.935 638.853 420.258 638.853 410.788C638.853 401.318 597.022 393.641 545.421 393.641C493.821 393.641 451.99 401.318 451.99 410.788C451.99 420.258 493.821 427.935 545.421 427.935Z" fill="#E8E8E8"/>
<path d="M554.143 327.127C560.995 315.599 564.817 302.895 564.746 289.798C564.63 268.352 555.192 248.165 549.152 227.735C545.985 217.022 544.225 206.395 545.106 195.291C545.844 185.978 548.126 176.881 550.46 167.808" stroke="#395131" stroke-miterlimit="10"/>
<path d="M557.351 254.363C557.351 251.626 559.726 249.243 562.769 249.219C563.864 249.21 565.079 249.464 566.37 250.16C571.464 252.909 568.918 258.865 571.974 265.278C575.031 271.692 573.34 274.85 571.974 274.441C568.917 273.525 568.407 271.234 562.294 268.485C556.181 265.737 549.35 258.566 557.351 254.363Z" fill="#739B67"/>
<path d="M557.199 253.825C557.199 253.825 563.823 253.367 565.86 261.613C567.898 269.859 572.483 273.983 572.483 273.983" stroke="#395131" stroke-miterlimit="10"/>
<path d="M551.623 236.915C550.832 233.868 547.5 231.769 544.104 232.453C542.881 232.699 541.601 233.266 540.366 234.343C535.488 238.594 540.045 244.631 538.493 252.487C536.943 260.343 539.737 263.465 541.141 262.69C544.28 260.956 544.186 258.286 550.198 253.797C556.212 249.306 561.747 239.725 551.623 236.915Z" fill="#45633B"/>
<path d="M551.635 236.281C551.635 236.281 544.128 237.318 544.241 246.977C544.355 256.636 540.441 262.298 540.441 262.298" stroke="#395131" stroke-miterlimit="10"/>
<path d="M563.85 277.231C563.06 274.184 559.727 272.085 556.331 272.769C555.109 273.015 553.829 273.582 552.594 274.659C547.715 278.91 552.272 284.947 550.721 292.803C549.171 300.659 551.964 303.781 553.368 303.006C556.507 301.272 556.412 298.602 562.425 294.113C568.439 289.622 573.973 280.041 563.85 277.231Z" fill="#45633B"/>
<path d="M563.863 276.597C563.863 276.597 556.356 277.634 556.469 287.293C556.582 296.952 552.668 302.614 552.668 302.614" stroke="#395131" stroke-miterlimit="10"/>
<path d="M561.953 309.861C560.958 306.027 556.765 303.386 552.493 304.246C550.955 304.556 549.344 305.269 547.789 306.624C541.651 311.973 547.384 319.568 545.434 329.453C543.483 339.338 546.998 343.267 548.764 342.29C552.714 340.108 552.595 336.748 560.161 331.1C567.727 325.452 574.69 313.397 561.953 309.861Z" fill="#45633B"/>
<path d="M561.969 309.063C561.969 309.063 552.524 310.368 552.666 322.521C552.808 334.674 547.883 341.799 547.883 341.799" stroke="#395131" stroke-miterlimit="10"/>
<path d="M545.242 189.884C546.006 187.553 548.694 186.06 551.292 186.726C552.227 186.966 553.191 187.456 554.096 188.34C557.668 191.83 553.836 196.327 554.65 202.479C555.463 208.631 553.143 210.939 552.093 210.282C549.746 208.812 549.952 206.746 545.513 203.026C541.073 199.306 537.257 191.657 545.242 189.884Z" fill="#45633B"/>
<path d="M545.265 189.392C545.265 189.392 551.033 190.496 550.467 197.978C549.901 205.46 552.655 210.006 552.655 210.006" stroke="#395131" stroke-miterlimit="10"/>
<path d="M547.575 220.204C546.579 217.744 547.845 214.901 550.573 213.983C551.555 213.652 552.741 213.523 554.154 213.769C559.735 214.74 559.615 220.845 564.699 225.711C569.783 230.577 569.415 233.915 568.036 233.949C564.954 234.026 563.661 232.116 557.164 231.446C550.667 230.775 541.913 226.34 547.575 220.204Z" fill="#45633B"/>
<path d="M547.244 219.765C547.244 219.765 553.032 217.402 557.867 224.216C562.703 231.03 568.326 233.386 568.326 233.386" stroke="#395131" stroke-miterlimit="10"/>
<path d="M460 344.452C460 344.452 454.959 344.919 453.146 351.438C451.335 357.956 460.394 360.4 462.207 366.918C464.018 373.436 469.455 371.807 472.173 374.251C474.89 376.695 478.514 371.807 473.079 366.103C467.644 360.4 473.079 352.252 469.455 347.364C465.831 342.476 462.323 342.355 460 344.452Z" fill="#45633B"/>
<path d="M489.732 175.064V248.001H604.398V174.415L489.732 175.064Z" fill="#D38D58"/>
<path d="M547.065 182.197C578.729 182.197 604.397 178.858 604.397 174.739C604.397 170.62 578.729 167.281 547.065 167.281C515.401 167.281 489.732 170.62 489.732 174.739C489.732 178.858 515.401 182.197 547.065 182.197Z" fill="#AF0000"/>
<path d="M604.577 247.424C604.577 251.556 578.319 258.413 546.555 258.413C514.792 258.413 489.552 251.556 489.552 247.424C489.552 243.292 515.302 239.942 547.065 239.942C578.828 239.942 604.577 243.292 604.577 247.424Z" fill="#D38D58"/>
<path d="M547.065 182.154C578.729 182.154 604.397 178.815 604.397 174.696C604.397 170.577 578.729 167.238 547.065 167.238C515.401 167.238 489.732 170.577 489.732 174.696C489.732 178.815 515.401 182.154 547.065 182.154Z" fill="#D38D58"/>
<path d="M547.065 170.524C518.154 170.524 494.717 173.573 494.717 177.333C494.717 177.498 494.779 177.661 494.868 177.823C503.889 180.402 523.86 182.197 547.065 182.197C570.27 182.197 590.24 180.402 599.262 177.823C599.351 177.661 599.412 177.498 599.412 177.333C599.412 173.573 575.976 170.524 547.065 170.524Z" fill="#461926"/>
<path d="M487.613 211.204C487.613 211.204 524.452 231.91 605.499 211.204" stroke="#30282B" stroke-width="2" stroke-miterlimit="10"/>
<path d="M487.613 232.738C487.613 232.738 524.452 253.444 605.499 232.738" stroke="#30282B" stroke-width="2" stroke-miterlimit="10"/>
<path d="M487.613 243.505C487.613 243.505 524.452 264.21 605.499 243.505" stroke="#30282B" stroke-width="2" stroke-miterlimit="10"/>
<path d="M489.552 235.223L476.561 406.665" stroke="#30282B" stroke-width="2" stroke-miterlimit="10"/>
<path d="M604.577 235.223L617.569 406.665" stroke="#30282B" stroke-width="2" stroke-miterlimit="10"/>
<path d="M542.872 235.223V426.543" stroke="#30282B" stroke-width="2" stroke-miterlimit="10"/>
<path d="M555.687 258.413L559.449 371.88" stroke="#30282B" stroke-width="2" stroke-miterlimit="10"/>
<path d="M562.847 174.739C562.847 174.739 574.521 170.444 584.71 185.105C594.9 199.765 571.464 228.17 580.635 264.821C589.806 301.472 611.202 332.625 587.767 372.025" stroke="#395131" stroke-miterlimit="10"/>
<path d="M542.935 176.858C542.935 176.858 525.613 158.533 501.16 161.281C476.706 164.03 466.518 196.099 470.594 216.257C474.669 236.415 484.858 251.075 469.575 280.396C454.292 309.717 458.367 340.87 465.5 359.195C465.5 359.195 468.557 368.358 474.669 372.023" stroke="#395131" stroke-miterlimit="10"/>
<path d="M538.859 180.523C538.859 180.523 528.67 175.942 526.633 186.021C524.595 196.1 542.935 203.693 526.633 248.001C510.331 292.309 526.633 325.294 526.633 325.294" stroke="#395131" stroke-miterlimit="10"/>
<path d="M475.612 181.343C475.612 181.343 467.538 178.691 464.481 185.105C461.424 191.519 461.424 197.933 456.33 200.682C451.236 203.431 461.424 203.431 465.5 202.515C469.575 201.599 481.801 197.934 483.84 189.687C485.877 181.44 477.573 179.413 475.612 181.343Z" fill="#45633B"/>
<path d="M475.178 180.982C475.178 180.982 473.14 193.81 460.914 199.307" stroke="#395131" stroke-miterlimit="10"/>
<path d="M527.575 189.589C527.575 189.589 519.5 186.937 516.444 193.351C513.387 199.765 514.916 208.47 509.821 211.218C504.726 213.967 516.953 213.967 521.028 213.051C525.104 212.135 533.764 206.179 535.802 197.933C537.841 189.686 529.536 187.659 527.575 189.589Z" fill="#45633B"/>
<path d="M527.142 189.228C527.142 189.228 527.651 205.263 515.425 210.76" stroke="#395131" stroke-miterlimit="10"/>
<path d="M525.406 252.703C525.406 252.703 521.944 247.837 516.896 250.403C511.849 252.969 508.371 258.765 503.958 258.322C499.546 257.88 506.811 262.862 509.695 263.978C512.578 265.094 520.726 265.083 526.091 261.013C531.458 256.944 527.544 252.356 525.406 252.703Z" fill="#45633B"/>
<path d="M525.331 252.312C525.331 252.312 517.554 262.048 507.519 260.334" stroke="#395131" stroke-miterlimit="10"/>
<path d="M521.688 267.823C521.688 267.823 515.288 264.998 512.14 270.046C508.992 275.094 509.404 282.393 504.933 284.257C500.463 286.121 510.547 287.087 513.997 286.654C517.448 286.22 525.172 281.993 527.658 275.353C530.143 268.714 523.493 266.387 521.688 267.823Z" fill="#45633B"/>
<path d="M521.365 267.491C521.365 267.491 520.219 280.755 509.599 284.322" stroke="#395131" stroke-miterlimit="10"/>
<path d="M469.725 209.465C469.725 206.728 472.1 204.345 475.143 204.321C476.238 204.312 477.454 204.566 478.743 205.262C483.838 208.011 481.291 213.967 484.348 220.38C487.405 226.794 485.715 229.952 484.348 229.543C481.291 228.627 480.782 226.336 474.668 223.587C468.556 220.839 461.724 213.668 469.725 209.465Z" fill="#739B67"/>
<path d="M469.575 208.928C469.575 208.928 476.198 208.47 478.235 216.716C480.274 224.963 484.858 229.086 484.858 229.086" stroke="#395131" stroke-miterlimit="10"/>
<path d="M465.65 288.265C465.65 285.528 468.025 283.145 471.067 283.121C472.163 283.112 473.378 283.366 474.668 284.062C479.762 286.811 477.216 292.767 480.272 299.18C483.329 305.594 481.639 308.753 480.272 308.343C477.216 307.427 476.706 305.136 470.592 302.387C464.48 299.639 457.649 292.468 465.65 288.265Z" fill="#739B67"/>
<path d="M465.5 287.727C465.5 287.727 472.123 287.269 474.16 295.515C476.198 303.762 480.783 307.885 480.783 307.885" stroke="#395131" stroke-miterlimit="10"/>
<path d="M590.974 299.26C590.974 296.523 593.35 294.14 596.392 294.116C597.487 294.107 598.703 294.361 599.994 295.057C605.088 297.806 602.541 303.762 605.597 310.175C608.654 316.589 606.964 319.748 605.597 319.338C602.54 318.422 602.031 316.131 595.917 313.382C589.805 310.634 582.974 303.463 590.974 299.26Z" fill="#739B67"/>
<path d="M590.823 298.723C590.823 298.723 597.446 298.265 599.483 306.511C601.522 314.758 606.106 318.881 606.106 318.881" stroke="#395131" stroke-miterlimit="10"/>
<path d="M476.816 252.863C476.816 250.924 478.499 249.236 480.655 249.219C481.431 249.213 482.292 249.393 483.206 249.886C486.814 251.833 485.011 256.052 487.176 260.596C489.341 265.14 488.144 267.377 487.176 267.087C485.011 266.438 484.649 264.815 480.319 262.868C475.988 260.92 471.15 255.84 476.816 252.863Z" fill="#45633B"/>
<path d="M476.71 252.482C476.71 252.482 481.401 252.157 482.844 257.999C484.288 263.841 487.536 266.762 487.536 266.762" stroke="#395131" stroke-miterlimit="10"/>
<path d="M532.856 210.714C532.856 208.775 534.538 207.087 536.694 207.07C537.47 207.064 538.331 207.244 539.245 207.737C542.854 209.684 541.05 213.903 543.215 218.447C545.38 222.991 544.184 225.228 543.215 224.938C541.05 224.289 540.689 222.666 536.358 220.719C532.027 218.771 527.189 213.691 532.856 210.714Z" fill="#45633B"/>
<path d="M532.749 210.333C532.749 210.333 537.44 210.009 538.884 215.85C540.327 221.692 543.575 224.613 543.575 224.613" stroke="#395131" stroke-miterlimit="10"/>
<path d="M586.107 186.702C586.107 182.684 589.594 179.185 594.062 179.149C595.67 179.136 597.455 179.509 599.35 180.531C606.829 184.567 603.09 193.311 607.578 202.728C612.066 212.145 609.585 216.782 607.578 216.18C603.09 214.835 602.342 211.472 593.366 207.436C584.39 203.401 574.36 192.872 586.107 186.702Z" fill="#45633B"/>
<path d="M585.886 185.913C585.886 185.913 595.609 185.24 598.601 197.348C601.593 209.455 608.325 215.509 608.325 215.509" stroke="#395131" stroke-miterlimit="10"/>
<path d="M585.246 281.812C584.456 278.765 581.123 276.666 577.727 277.35C576.505 277.596 575.225 278.163 573.99 279.24C569.111 283.491 573.668 289.528 572.117 297.384C570.567 305.24 573.36 308.362 574.765 307.587C577.904 305.853 577.809 303.183 583.822 298.694C589.836 294.204 595.37 284.623 585.246 281.812Z" fill="#45633B"/>
<path d="M585.259 281.178C585.259 281.178 577.752 282.215 577.865 291.874C577.978 301.533 574.064 307.195 574.064 307.195" stroke="#395131" stroke-miterlimit="10"/>
<path d="M597.474 322.128C596.683 319.081 593.351 316.982 589.955 317.666C588.733 317.912 587.453 318.479 586.217 319.556C581.339 323.807 585.896 329.844 584.345 337.7C582.794 345.556 585.588 348.678 586.991 347.903C590.13 346.169 590.036 343.499 596.048 339.01C602.062 334.52 607.596 324.939 597.474 322.128Z" fill="#45633B"/>
<path d="M597.486 321.494C597.486 321.494 589.979 322.531 590.093 332.19C590.206 341.849 586.292 347.511 586.292 347.511" stroke="#395131" stroke-miterlimit="10"/>
<path d="M595.577 354.758C594.582 350.924 590.388 348.283 586.116 349.143C584.578 349.453 582.968 350.166 581.412 351.521C575.274 356.87 581.008 364.466 579.057 374.35C577.107 384.235 580.622 388.163 582.388 387.187C586.337 385.005 586.218 381.645 593.784 375.997C601.35 370.35 608.314 358.294 595.577 354.758Z" fill="#45633B"/>
<path d="M595.593 353.961C595.593 353.961 586.147 355.266 586.29 367.419C586.432 379.572 581.507 386.697 581.507 386.697" stroke="#395131" stroke-miterlimit="10"/>
<path d="M528.94 240.279C529.704 237.948 532.392 236.455 534.99 237.121C535.925 237.361 536.889 237.851 537.794 238.735C541.366 242.225 537.535 246.722 538.348 252.874C539.162 259.026 536.841 261.334 535.791 260.677C533.444 259.207 533.65 257.141 529.211 253.421C524.771 249.7 520.955 242.053 528.94 240.279Z" fill="#45633B"/>
<path d="M528.963 239.787C528.963 239.787 534.731 240.891 534.165 248.373C533.599 255.855 536.353 260.401 536.353 260.401" stroke="#395131" stroke-miterlimit="10"/>
<path d="M578.866 234.781C579.63 232.45 582.317 230.957 584.915 231.623C585.85 231.863 586.814 232.353 587.719 233.237C591.291 236.727 587.459 241.224 588.273 247.376C589.086 253.528 586.766 255.836 585.717 255.179C583.369 253.709 583.575 251.643 579.136 247.923C574.697 244.203 570.88 236.555 578.866 234.781Z" fill="#45633B"/>
<path d="M578.888 234.289C578.888 234.289 584.656 235.393 584.09 242.875C583.524 250.357 586.278 254.903 586.278 254.903" stroke="#395131" stroke-miterlimit="10"/>
<path d="M581.199 265.102C580.202 262.641 581.469 259.799 584.197 258.881C585.179 258.55 586.364 258.421 587.777 258.667C593.359 259.638 593.238 265.743 598.322 270.609C603.407 275.475 603.038 278.813 601.66 278.847C598.577 278.924 597.285 277.014 590.788 276.344C584.29 275.672 575.536 271.237 581.199 265.102Z" fill="#45633B"/>
<path d="M580.867 264.663C580.867 264.663 586.655 262.3 591.49 269.114C596.326 275.928 601.951 278.284 601.951 278.284" stroke="#395131" stroke-miterlimit="10"/>
<path d="M520.789 306.251C521.553 303.92 524.241 302.427 526.839 303.093C527.774 303.333 528.738 303.823 529.643 304.707C533.215 308.197 529.384 312.694 530.197 318.846C531.011 324.998 528.69 327.306 527.64 326.649C525.293 325.179 525.499 323.113 521.06 319.393C516.619 315.672 512.804 308.024 520.789 306.251Z" fill="#45633B"/>
<path d="M520.812 305.759C520.812 305.759 526.579 306.863 526.013 314.345C525.447 321.827 528.202 326.373 528.202 326.373" stroke="#395131" stroke-miterlimit="10"/>
<path d="M475.35 233.437C475.717 230.836 473.014 228.769 470.157 229.29C467.411 229.791 464.048 231.277 463.461 235.5C462.443 242.83 464.989 245.121 458.876 252.451C452.763 259.781 465.5 257.491 469.575 253.825C473.651 250.159 476.707 251.076 479.764 243.746C482.821 236.416 475.207 234.03 475.207 234.03C475.207 234.03 475.296 233.815 475.35 233.437Z" fill="#45633B"/>
<path d="M475.178 234.125C475.178 234.125 469.065 234.125 467.027 241.455C464.989 248.785 462.952 252.45 457.858 254.283" stroke="#395131" stroke-miterlimit="10"/>
<path d="M475.505 261.668C474.643 259.967 472.683 258.896 470.658 259.317C468.601 259.744 466.328 261.138 465.081 264.876C462.428 272.828 452.701 276.804 450.933 280.78C449.165 284.756 458.892 285.551 471.271 279.985C483.651 274.419 483.651 264.876 480.997 264.081C478.898 263.452 476.515 263.661 475.505 261.668Z" fill="#45633B"/>
<path d="M476.707 261.155C476.707 261.155 477.217 266.194 468.047 272.608C458.878 279.022 456.839 281.771 451.745 281.771" stroke="#395131" stroke-miterlimit="10"/>
<path d="M461.678 302.871C461.678 302.871 453.603 300.219 450.547 306.633C447.49 313.047 447.49 319.461 442.396 322.21C437.301 324.959 447.49 324.959 451.566 324.042C455.642 323.126 467.868 319.461 469.906 311.214C471.944 302.968 463.639 300.941 461.678 302.871Z" fill="#45633B"/>
<path d="M461.245 302.509C461.245 302.509 459.207 315.337 446.98 320.835" stroke="#395131" stroke-miterlimit="10"/>
<path d="M459.736 327.61C459.736 327.61 467.81 324.958 470.867 331.372C473.924 337.786 473.924 344.2 479.018 346.949C484.112 349.698 473.924 349.698 469.849 348.782C465.773 347.866 453.547 344.201 451.508 335.954C449.47 327.707 457.774 325.68 459.736 327.61Z" fill="#45633B"/>
<path d="M460.169 327.249C460.169 327.249 462.206 340.077 474.433 345.574" stroke="#395131" stroke-miterlimit="10"/>
<path d="M532.237 222.214C532.237 222.214 527.143 220.381 526.124 225.879C525.105 231.377 527.142 234.125 521.03 236.874C514.916 239.623 524.086 239.623 530.199 236.874C536.313 234.125 539.37 228.627 538.35 225.879C537.331 223.13 535.293 221.298 532.237 222.214Z" fill="#739B67"/>
<path d="M532.747 221.756C532.747 221.756 531.219 222.214 530.199 228.628C529.18 235.042 522.048 236.875 522.048 236.875" stroke="#395131" stroke-miterlimit="10"/>
<path d="M583.316 208.164C583.316 208.164 576.523 205.721 575.165 213.051C573.806 220.381 576.524 224.046 568.372 227.711C560.221 231.376 572.447 231.376 580.598 227.711C588.749 224.046 592.825 216.716 591.467 213.051C590.108 209.386 587.392 206.943 583.316 208.164Z" fill="#739B67"/>
<path d="M583.995 207.553C583.995 207.553 581.957 208.164 580.599 216.716C579.241 225.268 569.731 227.711 569.731 227.711" stroke="#395131" stroke-miterlimit="10"/>
<path d="M518.991 287.269C518.991 287.269 513.897 285.436 512.877 290.934C511.859 296.432 513.896 299.18 507.783 301.929C501.67 304.678 510.84 304.678 516.953 301.929C523.067 299.18 526.122 293.683 525.104 290.934C524.085 288.186 522.048 286.353 518.991 287.269Z" fill="#739B67"/>
<path d="M519.501 286.811C519.501 286.811 517.973 287.269 516.953 293.683C515.934 300.097 508.802 301.929 508.802 301.929" stroke="#395131" stroke-miterlimit="10"/>
<path d="M550.404 167.237C550.404 167.237 552.105 164.946 556.181 164.946C560.256 164.946 559.238 173.192 559.238 173.192" stroke="#395131" stroke-miterlimit="10"/>
<path opacity="0.69" d="M312.728 429.23C361.613 429.23 401.243 421.82 401.243 412.678C401.243 403.537 361.613 396.126 312.728 396.126C263.843 396.126 224.214 403.537 224.214 412.678C224.214 421.82 263.843 429.23 312.728 429.23Z" fill="#E8E8E8"/>
<path d="M292.05 280.849C292.05 280.849 329.699 207.836 281.29 133.885" stroke="#395131" stroke-miterlimit="10"/>
<path d="M306.114 206.339C306.114 206.339 304.394 195.457 315.289 184.144C326.186 172.83 325.708 160.446 332.459 154.535C339.21 148.625 343.592 145.803 345.369 143.487C347.146 141.171 326.89 151.678 324.64 156.056C322.391 160.434 317.064 174.604 310.194 179.225C303.324 183.845 304.108 200.388 304.108 200.388L306.114 206.339Z" fill="#5D7A46"/>
<path d="M305.038 207.689C305.038 207.689 309.739 197.045 324.458 193.082C339.176 189.12 345.674 177.835 354.184 176.358C362.693 174.881 367.656 174.824 370.316 173.759C372.977 172.694 351.968 171.426 347.795 174.06C343.624 176.695 331.628 186.675 323.743 186.937C315.856 187.199 306.784 201.27 306.784 201.27L305.038 207.689Z" fill="#5D7A46"/>
<path d="M300.886 177.149C300.886 177.149 304.312 166.887 309.447 159.547C314.583 152.208 318.035 144.276 325.005 141.648C331.975 139.019 334.884 139.027 338.561 137.272C341.302 135.964 337.027 140.797 331.741 144.019C326.455 147.24 323.546 147.232 319.711 156.046C315.875 164.859 316.643 163.097 311.506 170.436C306.37 177.775 302.845 185.306 302.845 185.306L300.886 177.149Z" fill="#5D7A46"/>
<path d="M328.306 129.598C328.306 129.598 320.728 126.931 314.676 131.915C308.623 136.899 303.637 148.356 301.185 149.526C298.734 150.696 294.439 158.332 294.439 158.332L296.014 162.364C296.014 162.364 299.341 155.992 304.244 153.652C308.119 151.802 310.072 142.491 317.351 136.922C324.629 131.353 330.524 133.428 333.433 133.435C337.548 133.446 328.306 129.598 328.306 129.598Z" fill="#5D7A46"/>
<path d="M289.643 101.422C289.643 101.422 282.103 104.173 281.52 111.535C280.939 118.897 286.082 130.298 285.196 132.663C284.312 135.028 287.035 143.227 287.035 143.227L291.261 145.179C291.261 145.179 288.803 138.496 290.572 133.765C291.971 130.025 286.266 122.059 287.29 113.514C288.314 104.969 294.179 102.83 296.297 101.036C299.295 98.4985 289.643 101.422 289.643 101.422Z" fill="#5D7A46"/>
<path d="M290.848 150.968C290.848 150.968 288.321 150.079 284.111 148.597C279.901 147.115 277.608 141.227 273.014 140.627C268.421 140.027 262.218 140.892 258.466 140.588C254.714 140.284 255.172 141.462 259.382 142.943C263.592 144.425 266.427 142.373 272.322 144.448C278.215 146.523 277.982 151.522 283.035 153.3C288.087 155.078 294.898 159.508 294.439 158.33C293.982 157.153 290.848 150.968 290.848 150.968Z" fill="#5D7A46"/>
<path d="M290.263 149.433C290.263 149.433 291.539 147.146 293.074 143.621C294.608 140.096 297.059 138.926 301.886 134.527C306.714 130.128 309.474 126.018 313.075 122.204C316.677 118.39 329.691 121.954 332.525 119.903C335.36 117.852 328.315 118.421 319.054 115.161C309.792 111.901 308.865 120.722 303.196 124.825C297.527 128.928 294.308 131.86 292.391 136.267C290.473 140.674 287.519 144.227 287.519 144.227L289.815 148.552" fill="#5D7A46"/>
<path d="M245.142 323.004L254.133 413.102H377.998L386.767 322.203L245.142 323.004Z" fill="#413E3E"/>
<path d="M377.998 412.65C377.998 417.108 349.67 424.505 315.405 424.505C281.139 424.505 253.91 417.107 253.91 412.65C253.91 408.193 281.688 404.579 315.954 404.579C350.221 404.579 377.998 408.193 377.998 412.65Z" fill="#413E3E"/>
<path d="M386.989 322.659C386.989 327.756 355.226 331.888 316.044 331.888C276.863 331.888 245.1 327.756 245.1 322.659C245.1 317.562 276.863 313.43 316.044 313.43C355.226 313.43 386.989 317.562 386.989 322.659Z" fill="#686868"/>
<path d="M316.044 317.443C280.27 317.443 251.269 321.216 251.269 325.87C251.269 326.074 251.345 326.275 251.455 326.475C262.618 329.667 287.33 331.887 316.044 331.887C344.758 331.887 369.47 329.667 380.634 326.475C380.744 326.274 380.82 326.074 380.82 325.87C380.82 321.216 351.819 317.443 316.044 317.443Z" fill="#461926"/>
<path d="M217.672 183.584C217.672 183.584 287.596 219.516 301.582 321.923" stroke="#395131" stroke-miterlimit="10"/>
<path d="M291.883 281.303C291.883 281.303 283.303 282.227 276.459 281.457C269.616 280.688 263.628 281.457 259.351 284.534C255.075 287.611 253.363 285.303 248.231 287.611C243.098 289.919 237.111 289.15 234.545 291.457C231.978 293.765 231.123 289.918 242.243 285.303C253.363 280.687 258.496 279.149 262.773 276.841C267.05 274.533 278.171 276.072 281.592 276.841C285.014 277.61 290.889 277.452 290.889 277.452L291.883 281.303Z" fill="#4E6638"/>
<path d="M283.861 260.39C283.861 260.39 270.875 256.797 262.884 255.899C254.893 255.001 247.9 255.899 242.906 259.492C237.911 263.085 235.914 260.39 229.92 263.085C223.926 265.78 216.934 264.882 213.937 267.577C210.94 270.272 209.942 265.78 222.928 260.391C235.914 255.001 241.907 254.103 246.901 251.408C251.896 248.713 264.882 250.51 268.878 251.408C272.873 252.306 281.731 255.714 281.731 255.714L283.861 260.39Z" fill="#4E6638"/>
<path d="M288.955 272.076C288.955 272.076 296.842 263.153 302.466 258.672C308.089 254.191 313.997 251.567 319.949 251.964C325.899 252.361 325.857 249.34 332.049 248.572C338.242 247.804 343.097 243.797 346.984 244.45C350.87 245.103 349.005 241.173 335.851 243.182C322.696 245.191 317.558 247.342 312.134 247.636C306.709 247.93 297.769 255.471 295.22 258.056C292.671 260.642 287.852 267.465 287.852 267.465L288.955 272.076Z" fill="#4E6638"/>
<path d="M289.754 273.035C289.754 273.035 280.864 265.781 266.88 266.679C252.895 267.577 242.906 268.476 240.908 272.069C238.909 275.662 224.925 268.476 216.934 275.662C208.943 282.848 211.939 279.255 213.937 275.662C215.935 272.069 218.932 269.374 227.922 268.476C236.912 267.578 234.914 269.374 238.909 266.679C242.905 263.984 253.894 262.187 263.883 261.289C273.872 260.391 288.628 269.491 288.628 269.491L289.754 273.035Z" fill="#4E6638"/>
<path d="M279.672 251.966C279.672 251.966 268.878 244.221 252.895 246.916C236.912 249.611 232.917 244.221 224.925 248.713C216.934 253.205 207.944 255.001 205.945 255.001C203.947 255.001 219.93 249.611 222.927 245.12C225.923 240.628 234.914 243.323 242.905 242.425C250.897 241.527 263.882 237.933 268.877 242.425C273.872 246.917 276.244 246.003 276.244 246.003L279.672 251.966Z" fill="#4E6638"/>
<path d="M271.872 235.31C271.872 235.31 263.883 227.152 247.9 228.949C231.917 230.746 221.928 222.661 212.938 224.457C203.947 226.254 198.953 228.05 195.956 228.05C192.959 228.05 213.936 218.169 218.931 219.067C223.926 219.965 238.909 224.457 246.9 221.762C254.892 219.067 268.146 229.985 268.146 229.985L271.872 235.31Z" fill="#4E6638"/>
<path d="M276.409 241.701C276.409 241.701 269.767 232.619 275.911 219.23C282.055 205.84 276.019 195.043 280.318 187.718C284.617 180.394 287.862 176.534 288.652 173.935C289.443 171.336 273.31 186.926 272.955 191.495C272.601 196.064 273.466 210.246 268.466 216.467C263.468 222.688 271.681 237.065 271.681 237.065L276.409 241.701Z" fill="#4E6638"/>
<path d="M275.907 243.228C275.907 243.228 275.978 232.357 289.345 224.276C302.713 216.195 304.345 204.199 312.438 200.246C320.531 196.293 325.61 194.7 327.87 192.931C330.131 191.162 307.95 196.577 304.839 200.203C301.727 203.829 293.854 216.382 285.859 219.067C277.864 221.752 274.829 237.011 274.829 237.011L275.907 243.228Z" fill="#4E6638"/>
<path d="M290.513 275.623C290.513 275.623 295.848 272.965 300.843 272.965C305.837 272.965 312.831 275.66 316.826 275.66C320.822 275.66 324.817 290.931 324.817 293.626C324.817 296.321 319.822 284.643 317.825 281.05C315.827 277.457 303.84 275.66 300.843 277.457C297.847 279.254 293.851 276.559 291.853 280.152L290.513 275.623Z" fill="#4E6638"/>
<path d="M283.861 260.389C283.861 260.389 290.853 249.609 295.848 247.813C300.843 246.016 303.839 240.626 311.831 240.626C319.823 240.626 331.809 238.829 335.805 236.134C339.8 233.439 333.806 235.236 322.819 236.134C311.831 237.032 310.831 234.337 299.844 237.931C288.856 241.524 289.855 246.016 286.858 247.812C283.861 249.609 281.694 256.75 281.694 256.75L283.861 260.389Z" fill="#4E6638"/>
<path d="M275.488 244.43C275.488 244.43 277.868 235.237 284.861 231.644C291.853 228.051 291.853 225.356 297.847 223.559C303.84 221.762 303.84 219.966 311.831 220.864C319.822 221.762 321.82 220.864 325.816 222.661C329.811 224.458 331.809 225.356 323.817 225.356C315.826 225.356 311.83 222.661 305.837 225.356C299.844 228.051 300.843 228.051 293.85 232.542C286.858 237.034 284.859 237.034 282.862 240.627C280.865 244.22 278.867 249.61 278.867 249.61L275.488 244.43Z" fill="#4E6638"/>
<path d="M257.961 218.424C257.961 218.424 256.892 208.287 258.889 200.203C260.887 192.118 260.887 184.034 266.88 179.542C272.873 175.05 275.87 174.152 278.867 171.457C281.101 169.448 278.867 175.05 274.872 179.542C270.876 184.034 267.879 184.932 267.879 193.915C267.879 202.898 267.879 201.101 265.881 209.186C263.883 217.271 263.628 225.023 263.628 225.023L257.961 218.424Z" fill="#4E6638"/>
<path d="M255.115 214.476C255.115 214.476 250.898 211.882 244.904 213.678C238.911 215.475 231.918 209.186 222.928 209.186C213.937 209.186 206.945 210.983 201.951 211.881C196.956 212.779 188.965 210.983 190.963 209.186C192.962 207.389 199.954 209.186 204.948 207.389C209.943 205.592 221.929 201.999 228.921 203.796C235.914 205.593 238.911 210.084 242.906 209.186C246.901 208.288 248.949 208.376 248.949 208.376L255.115 214.476Z" fill="#4E6638"/>
<path d="M264.882 166.966C264.882 166.966 255.892 166.966 251.896 173.254C247.901 179.542 247.901 191.22 245.903 193.017C243.904 194.814 242.906 202.898 242.906 202.898L246.332 205.972C246.332 205.972 246.902 199.305 250.898 195.712C254.057 192.871 251.896 184.034 256.892 176.848C261.887 169.662 268.879 169.662 271.875 168.763C276.112 167.492 264.882 166.966 264.882 166.966Z" fill="#4E6638"/>
<path d="M310.634 322.634C310.634 322.634 299.084 184.933 342.039 120.255" stroke="#395131" stroke-miterlimit="10"/>
<path d="M309.622 303.849C309.622 303.849 303.579 227.602 386.49 177.297" stroke="#395131" stroke-miterlimit="10"/>
<path d="M313.039 273.218C313.039 273.218 321.619 274.142 328.462 273.373C335.306 272.604 341.294 273.373 345.57 276.45C349.847 279.527 351.558 277.219 356.69 279.527C361.823 281.835 367.81 281.065 370.377 283.373C372.943 285.681 373.798 281.835 362.678 277.219C351.558 272.603 346.425 271.065 342.149 268.757C337.872 266.449 326.751 267.988 323.329 268.757C319.908 269.526 314.033 269.367 314.033 269.367L313.039 273.218Z" fill="#5D7A46"/>
<path d="M320.061 252.305C320.061 252.305 333.047 248.712 341.038 247.813C349.029 246.915 356.022 247.813 361.016 251.406C366.011 254.999 368.008 252.304 374.002 254.999C379.996 257.694 386.988 256.796 389.985 259.49C392.982 262.185 393.98 257.693 380.994 252.304C368.008 246.914 362.015 246.016 357.021 243.321C352.027 240.626 339.041 242.423 335.044 243.321C331.048 244.219 322.19 247.627 322.19 247.627L320.061 252.305Z" fill="#5D7A46"/>
<path d="M315.967 263.991C315.967 263.991 308.079 255.069 302.456 250.587C296.832 246.106 290.924 243.482 284.973 243.879C279.022 244.276 279.065 241.255 272.872 240.487C266.679 239.719 261.824 235.713 257.938 236.366C254.052 237.019 255.916 233.088 269.07 235.097C282.224 237.106 287.364 239.258 292.788 239.552C298.212 239.846 307.153 247.386 309.702 249.972C312.25 252.558 317.07 259.382 317.07 259.382L315.967 263.991Z" fill="#5D7A46"/>
<path d="M315.167 264.949C315.167 264.949 324.058 257.695 338.042 258.593C352.027 259.491 362.016 260.39 364.014 263.983C366.012 267.576 379.997 260.39 387.988 267.576C395.978 274.763 392.982 271.169 390.984 267.576C388.986 263.983 385.989 261.288 377 260.39C368.009 259.492 370.008 261.288 366.012 258.593C362.017 255.898 351.028 254.102 341.039 253.203C331.05 252.305 316.294 261.405 316.294 261.405L315.167 264.949Z" fill="#5D7A46"/>
<path d="M323.252 243.881C323.252 243.881 334.047 236.136 350.029 238.831C366.012 241.526 370.008 236.136 378 240.628C385.99 245.12 394.981 246.916 396.979 246.916C398.977 246.916 382.995 241.526 379.998 237.035C377.001 232.543 368.01 235.238 360.02 234.34C352.029 233.442 339.043 229.848 334.048 234.34C329.053 238.832 326.681 237.918 326.681 237.918L323.252 243.881Z" fill="#5D7A46"/>
<path d="M333.049 227.226C333.049 227.226 341.039 219.067 357.022 220.864C373.004 222.661 382.994 214.577 391.984 216.373C400.975 218.17 405.969 219.966 408.965 219.966C411.962 219.966 390.985 210.085 385.99 210.983C380.996 211.881 366.012 216.372 358.021 213.677C350.029 210.982 336.775 221.901 336.775 221.901L333.049 227.226Z" fill="#5D7A46"/>
<path d="M328.512 233.617C328.512 233.617 335.154 224.534 329.01 211.144C322.867 197.754 328.903 186.957 324.604 179.632C320.305 172.308 317.06 168.449 316.269 165.85C315.478 163.251 331.611 178.839 331.966 183.409C332.321 187.978 331.456 202.161 336.455 208.381C341.454 214.602 333.24 228.979 333.24 228.979L328.512 233.617Z" fill="#5D7A46"/>
<path d="M329.015 235.144C329.015 235.144 328.944 224.273 315.576 216.192C302.209 208.111 300.577 196.115 292.483 192.162C284.39 188.209 279.312 186.615 277.051 184.845C274.79 183.076 296.971 188.492 300.083 192.118C303.194 195.744 311.067 208.297 319.062 210.982C327.058 213.667 330.091 228.925 330.091 228.925L329.015 235.144Z" fill="#5D7A46"/>
<path d="M314.409 267.538C314.409 267.538 309.073 264.88 304.078 264.88C299.083 264.88 292.091 267.576 288.095 267.576C284.1 267.576 280.105 282.847 280.105 285.542C280.105 288.237 285.1 276.559 287.097 272.965C289.094 269.372 301.081 267.575 304.078 269.372C307.075 271.169 311.07 268.474 313.069 272.067L314.409 267.538Z" fill="#5D7A46"/>
<path d="M319.062 252.306C319.062 252.306 312.07 241.526 307.075 239.73C302.08 237.933 299.084 232.544 291.092 232.544C283.1 232.544 271.114 230.747 267.119 228.052C263.123 225.357 269.117 227.154 280.105 228.052C291.092 228.95 292.092 226.255 303.08 229.849C314.067 233.442 313.069 237.934 316.066 239.73C319.062 241.527 321.23 248.668 321.23 248.668L319.062 252.306Z" fill="#5D7A46"/>
<path d="M327.437 236.345C327.437 236.345 325.056 227.152 318.064 223.559C311.072 219.966 311.072 217.271 305.078 215.474C299.084 213.677 299.084 211.881 291.093 212.779C283.103 213.677 281.104 212.779 277.109 214.576C273.113 216.373 271.115 217.272 279.107 217.272C287.099 217.272 291.095 214.577 297.088 217.272C303.082 219.967 302.082 219.966 309.076 224.457C316.068 228.949 318.066 228.949 320.063 232.542C322.062 236.135 324.059 241.526 324.059 241.526L327.437 236.345Z" fill="#5D7A46"/>
<path d="M346.96 209.441C346.96 209.441 348.03 199.304 346.033 191.22C344.035 183.135 344.035 175.05 338.042 170.559C332.049 166.068 329.052 165.169 326.055 162.474C323.821 160.465 326.055 166.067 330.05 170.559C334.045 175.051 337.042 175.949 337.042 184.932C337.042 193.915 337.042 192.118 339.041 200.203C341.039 208.288 341.294 216.04 341.294 216.04L346.96 209.441Z" fill="#5D7A46"/>
<path d="M349.808 206.391C349.808 206.391 354.025 203.797 360.018 205.594C366.012 207.391 373.004 201.102 381.995 201.102C390.985 201.102 397.978 202.899 402.972 203.797C407.967 204.695 415.958 202.899 413.959 201.102C411.961 199.305 404.969 201.102 399.975 199.305C394.98 197.508 382.994 193.915 376.001 195.712C369.009 197.509 366.012 202 362.017 201.102C358.021 200.204 355.974 200.292 355.974 200.292L349.808 206.391Z" fill="#5D7A46"/>
<path d="M340.04 158.882C340.04 158.882 349.031 158.882 353.026 165.17C357.022 171.458 357.022 183.136 359.02 184.933C361.018 186.73 362.017 194.814 362.017 194.814L358.591 197.888C358.591 197.888 358.02 191.221 354.025 187.628C350.866 184.787 353.026 175.95 348.031 168.764C343.037 161.578 336.044 161.578 333.048 160.679C328.809 159.408 340.04 158.882 340.04 158.882Z" fill="#5D7A46"/>
<path d="M369.008 189.423C369.008 189.423 372.005 189.423 376.999 189.423C381.994 189.423 386.988 184.931 391.983 185.83C396.977 186.728 402.971 189.423 406.967 190.322C410.964 191.221 409.964 192.119 404.969 192.119C399.975 192.119 397.977 189.425 390.984 189.425C383.992 189.425 381.994 193.916 376 193.916C370.007 193.916 361.016 195.714 362.016 194.815C363.014 193.916 369.008 189.423 369.008 189.423Z" fill="#5D7A46"/>
<path d="M383.992 177.746C383.992 177.746 386.989 177.746 391.983 177.746C396.977 177.746 401.972 173.254 406.967 174.153C411.962 175.051 417.955 177.746 421.951 178.645C425.947 179.543 424.948 180.442 419.953 180.442C414.958 180.442 412.961 177.747 405.969 177.747C398.976 177.747 396.978 182.239 390.984 182.239C384.991 182.239 376 184.036 377 183.137C377.998 182.238 383.992 177.746 383.992 177.746Z" fill="#5D7A46"/>
<path d="M370.297 188.25C370.297 188.25 370.007 185.831 370.007 182.238C370.007 178.645 368.008 176.848 365.011 171.458C362.015 166.068 361.016 161.577 359.018 157.085C357.02 152.593 342.036 151.695 340.038 149C338.04 146.305 345.032 149 356.021 149C367.009 149 364.012 157.085 368.008 162.475C372.004 167.865 374.002 171.458 374.002 175.95C374.002 180.442 375.45 184.502 375.45 184.502L371.152 187.61" fill="#5D7A46"/>
<path d="M381.326 180.537C381.326 180.537 378.997 175.95 378.997 169.662C378.997 163.374 377.998 161.577 375.002 154.391C372.005 147.205 371.006 145.408 364.014 144.51C357.022 143.612 357.022 142.713 362.016 142.713C367.01 142.713 375.002 140.018 377 143.611C378.998 147.204 383.92 156.271 385.99 162.475C388.987 171.458 384.718 178.385 384.718 178.385L382.042 180.075" fill="#5D7A46"/>
<path d="M385.629 173.592C385.629 173.592 390.591 168.386 395.554 166.155C400.516 163.924 407.959 163.18 413.748 162.436C419.537 161.692 422.845 160.949 424.499 162.436C426.154 163.924 417.055 163.18 409.613 166.155C402.17 169.13 397.207 169.13 394.726 173.592C392.245 178.054 383.895 179.535 383.895 179.535L385.629 173.592Z" fill="#5D7A46"/>
<path d="M232.157 193.018C232.157 193.018 220.17 187.628 215.176 187.628C210.182 187.628 205.187 189.425 198.195 183.136C191.202 176.848 186.207 176.848 180.214 175.95C174.22 175.052 177.217 176.848 184.209 179.543C191.201 182.238 197.195 187.628 200.192 190.323C203.189 193.018 211.18 192.12 220.17 193.916C229.161 195.712 239.676 199.589 239.676 199.589L232.157 193.018Z" fill="#4E6638"/>
<path d="M231.158 154.39C231.158 154.39 226.163 160.678 227.162 164.271C228.161 167.864 230.159 177.746 229.161 180.44C228.162 183.134 226.372 189.047 226.372 189.047L231.159 192.554C231.159 192.554 236.154 185.83 234.156 179.542C232.157 173.254 228.162 166.067 231.159 161.576C234.155 157.085 234.155 149.899 231.158 154.39Z" fill="#4E6638"/>
<path d="M227.162 187.627C227.162 187.627 221.169 181.339 218.172 177.746C215.175 174.153 215.175 175.949 209.181 171.458C203.188 166.966 202.189 157.984 199.192 156.188C196.195 154.391 198.194 156.188 199.192 161.578C200.191 166.968 205.186 174.154 208.183 175.951C211.18 177.748 215.175 179.543 216.175 182.238C217.173 184.933 222.342 189.201 222.342 189.201L231.159 193.916L227.162 187.627Z" fill="#4E6638"/>
</svg>
