<svg width="215" height="39" viewBox="0 0 215 39" fill="none" xmlns="http://www.w3.org/2000/svg">
<path d="M11.12 5.72C13.0133 5.72 14.6667 6.13333 16.08 6.96C17.52 7.78667 18.5867 8.82667 19.28 10.08V6.08H22.96V28.48C22.96 30.48 22.5333 32.2533 21.68 33.8C20.8267 35.3733 19.6 36.6 18 37.48C16.4267 38.36 14.5867 38.8 12.48 38.8C9.6 38.8 7.2 38.12 5.28 36.76C3.36 35.4 2.22667 33.5467 1.88 31.2H5.48C5.88 32.5333 6.70667 33.6 7.96 34.4C9.21333 35.2267 10.72 35.64 12.48 35.64C14.48 35.64 16.1067 35.0133 17.36 33.76C18.64 32.5067 19.28 30.7467 19.28 28.48V23.88C18.56 25.16 17.4933 26.2267 16.08 27.08C14.6667 27.9333 13.0133 28.36 11.12 28.36C9.17333 28.36 7.4 27.88 5.8 26.92C4.22667 25.96 2.98667 24.6133 2.08 22.88C1.17333 21.1467 0.72 19.1733 0.72 16.96C0.72 14.72 1.17333 12.76 2.08 11.08C2.98667 9.37333 4.22667 8.05333 5.8 7.12C7.4 6.18667 9.17333 5.72 11.12 5.72ZM19.28 17C19.28 15.3467 18.9467 13.9067 18.28 12.68C17.6133 11.4533 16.7067 10.52 15.56 9.88C14.44 9.21333 13.2 8.88 11.84 8.88C10.48 8.88 9.24 9.2 8.12 9.84C7 10.48 6.10667 11.4133 5.44 12.64C4.77333 13.8667 4.44 15.3067 4.44 16.96C4.44 18.64 4.77333 20.1067 5.44 21.36C6.10667 22.5867 7 23.5333 8.12 24.2C9.24 24.84 10.48 25.16 11.84 25.16C13.2 25.16 14.44 24.84 15.56 24.2C16.7067 23.5333 17.6133 22.5867 18.28 21.36C18.9467 20.1067 19.28 18.6533 19.28 17ZM31.7513 9.64C32.3913 8.38667 33.2979 7.41333 34.4713 6.72C35.6713 6.02667 37.1246 5.68 38.8313 5.68V9.44H37.8713C33.7913 9.44 31.7513 11.6533 31.7513 16.08V28H28.1113V6.08H31.7513V9.64ZM62.0331 16.2C62.0331 16.8933 61.9931 17.6267 61.9131 18.4H44.3931C44.5265 20.56 45.2598 22.2533 46.5931 23.48C47.9531 24.68 49.5931 25.28 51.5131 25.28C53.0865 25.28 54.3931 24.92 55.4331 24.2C56.4998 23.4533 57.2465 22.4667 57.6731 21.24H61.5931C61.0065 23.3467 59.8331 25.0667 58.0731 26.4C56.3131 27.7067 54.1265 28.36 51.5131 28.36C49.4331 28.36 47.5665 27.8933 45.9131 26.96C44.2865 26.0267 43.0065 24.7067 42.0731 23C41.1398 21.2667 40.6731 19.2667 40.6731 17C40.6731 14.7333 41.1265 12.7467 42.0331 11.04C42.9398 9.33333 44.2065 8.02667 45.8331 7.12C47.4865 6.18667 49.3798 5.72 51.5131 5.72C53.5931 5.72 55.4331 6.17333 57.0331 7.08C58.6331 7.98667 59.8598 9.24 60.7131 10.84C61.5931 12.4133 62.0331 14.2 62.0331 16.2ZM58.2731 15.44C58.2731 14.0533 57.9665 12.8667 57.3531 11.88C56.7398 10.8667 55.8998 10.1067 54.8331 9.6C53.7931 9.06667 52.6331 8.8 51.3531 8.8C49.5131 8.8 47.9398 9.38667 46.6331 10.56C45.3531 11.7333 44.6198 13.36 44.4331 15.44H58.2731ZM85.8378 16.2C85.8378 16.8933 85.7978 17.6267 85.7178 18.4H68.1978C68.3311 20.56 69.0645 22.2533 70.3978 23.48C71.7578 24.68 73.3978 25.28 75.3178 25.28C76.8911 25.28 78.1978 24.92 79.2378 24.2C80.3045 23.4533 81.0511 22.4667 81.4778 21.24H85.3978C84.8111 23.3467 83.6378 25.0667 81.8778 26.4C80.1178 27.7067 77.9311 28.36 75.3178 28.36C73.2378 28.36 71.3711 27.8933 69.7178 26.96C68.0911 26.0267 66.8111 24.7067 65.8778 23C64.9445 21.2667 64.4778 19.2667 64.4778 17C64.4778 14.7333 64.9311 12.7467 65.8378 11.04C66.7445 9.33333 68.0111 8.02667 69.6378 7.12C71.2911 6.18667 73.1845 5.72 75.3178 5.72C77.3978 5.72 79.2378 6.17333 80.8378 7.08C82.4378 7.98667 83.6645 9.24 84.5178 10.84C85.3978 12.4133 85.8378 14.2 85.8378 16.2ZM82.0778 15.44C82.0778 14.0533 81.7711 12.8667 81.1578 11.88C80.5445 10.8667 79.7045 10.1067 78.6378 9.6C77.5978 9.06667 76.4378 8.8 75.1578 8.8C73.3178 8.8 71.7445 9.38667 70.4378 10.56C69.1578 11.7333 68.4245 13.36 68.2378 15.44H82.0778ZM100.323 5.68C102.989 5.68 105.149 6.49333 106.803 8.12C108.456 9.72 109.283 12.04 109.283 15.08V28H105.683V15.6C105.683 13.4133 105.136 11.7467 104.043 10.6C102.949 9.42667 101.456 8.84 99.5625 8.84C97.6425 8.84 96.1092 9.44 94.9625 10.64C93.8425 11.84 93.2825 13.5867 93.2825 15.88V28H89.6425V6.08H93.2825V9.2C94.0025 8.08 94.9758 7.21333 96.2025 6.6C97.4558 5.98667 98.8292 5.68 100.323 5.68ZM140.588 5.68C142.295 5.68 143.815 6.04 145.148 6.76C146.482 7.45333 147.535 8.50667 148.308 9.92C149.082 11.3333 149.468 13.0533 149.468 15.08V28H145.868V15.6C145.868 13.4133 145.322 11.7467 144.228 10.6C143.162 9.42667 141.708 8.84 139.868 8.84C137.975 8.84 136.468 9.45333 135.348 10.68C134.228 11.88 133.668 13.6267 133.668 15.92V28H130.068V15.6C130.068 13.4133 129.522 11.7467 128.428 10.6C127.362 9.42667 125.908 8.84 124.068 8.84C122.175 8.84 120.668 9.45333 119.548 10.68C118.428 11.88 117.868 13.6267 117.868 15.92V28H114.228V6.08H117.868V9.24C118.588 8.09333 119.548 7.21333 120.748 6.6C121.975 5.98667 123.322 5.68 124.788 5.68C126.628 5.68 128.255 6.09333 129.668 6.92C131.082 7.74667 132.135 8.96 132.828 10.56C133.442 9.01333 134.455 7.81333 135.868 6.96C137.282 6.10667 138.855 5.68 140.588 5.68ZM153.079 16.96C153.079 14.72 153.533 12.76 154.439 11.08C155.346 9.37333 156.586 8.05333 158.159 7.12C159.759 6.18667 161.533 5.72 163.479 5.72C165.399 5.72 167.066 6.13333 168.479 6.96C169.893 7.78667 170.946 8.82667 171.639 10.08V6.08H175.319V28H171.639V23.92C170.919 25.2 169.839 26.2667 168.399 27.12C166.986 27.9467 165.333 28.36 163.439 28.36C161.493 28.36 159.733 27.88 158.159 26.92C156.586 25.96 155.346 24.6133 154.439 22.88C153.533 21.1467 153.079 19.1733 153.079 16.96ZM171.639 17C171.639 15.3467 171.306 13.9067 170.639 12.68C169.973 11.4533 169.066 10.52 167.919 9.88C166.799 9.21333 165.559 8.88 164.199 8.88C162.839 8.88 161.599 9.2 160.479 9.84C159.359 10.48 158.466 11.4133 157.799 12.64C157.133 13.8667 156.799 15.3067 156.799 16.96C156.799 18.64 157.133 20.1067 157.799 21.36C158.466 22.5867 159.359 23.5333 160.479 24.2C161.599 24.84 162.839 25.16 164.199 25.16C165.559 25.16 166.799 24.84 167.919 24.2C169.066 23.5333 169.973 22.5867 170.639 21.36C171.306 20.1067 171.639 18.6533 171.639 17ZM184.911 9.08V22C184.911 23.0667 185.137 23.8267 185.591 24.28C186.044 24.7067 186.831 24.92 187.951 24.92H190.631V28H187.351C185.324 28 183.804 27.5333 182.791 26.6C181.777 25.6667 181.271 24.1333 181.271 22V9.08H178.431V6.08H181.271V0.559998H184.911V6.08H190.631V9.08H184.911ZM214.041 16.2C214.041 16.8933 214.001 17.6267 213.921 18.4H196.401C196.534 20.56 197.268 22.2533 198.601 23.48C199.961 24.68 201.601 25.28 203.521 25.28C205.094 25.28 206.401 24.92 207.441 24.2C208.508 23.4533 209.254 22.4667 209.681 21.24H213.601C213.014 23.3467 211.841 25.0667 210.081 26.4C208.321 27.7067 206.134 28.36 203.521 28.36C201.441 28.36 199.574 27.8933 197.921 26.96C196.294 26.0267 195.014 24.7067 194.081 23C193.148 21.2667 192.681 19.2667 192.681 17C192.681 14.7333 193.134 12.7467 194.041 11.04C194.948 9.33333 196.214 8.02667 197.841 7.12C199.494 6.18667 201.388 5.72 203.521 5.72C205.601 5.72 207.441 6.17333 209.041 7.08C210.641 7.98667 211.868 9.24 212.721 10.84C213.601 12.4133 214.041 14.2 214.041 16.2ZM210.281 15.44C210.281 14.0533 209.974 12.8667 209.361 11.88C208.748 10.8667 207.908 10.1067 206.841 9.6C205.801 9.06667 204.641 8.8 203.361 8.8C201.521 8.8 199.948 9.38667 198.641 10.56C197.361 11.7333 196.628 13.36 196.441 15.44H210.281Z" fill="#F7F3F3"/>
</svg>
