<svg width="976" height="843" viewBox="0 0 976 843" fill="none" xmlns="http://www.w3.org/2000/svg">
<path d="M945.787 656.955H14.2754V660.067H945.787V656.955Z" fill="#6C7DAD"/>
<path d="M916.39 98.2927C913.411 110.095 908.332 108.377 906.185 116.771C905.207 120.705 907.282 130.933 902.513 136.489C897.65 142.188 889.376 140.4 884.345 145.024C883.463 145.835 882.77 146.669 882.2 147.503C879.721 151.175 879.457 155.109 875.405 158.326C871.09 161.712 857.785 164.764 848.248 163.501C843.79 158.065 838.736 140.684 843.574 134.176C846.912 129.692 853.302 127.952 856.64 123.47C859.335 119.846 859.572 115.197 859.74 110.548C859.931 105.16 860.026 99.747 863.721 95.9795C869.3 90.3053 879.505 92.1414 886.49 88.1125C891.569 85.1789 894.166 79.6728 898.077 75.4281C901.963 71.1834 909.141 68.2748 914.481 73.5692C920.394 80.2682 918.512 89.9008 916.39 98.2927Z" fill="#3B6257"/>
<path d="M916.389 98.2916C913.41 110.094 908.332 108.376 906.184 116.77C905.207 120.704 907.282 130.932 902.512 136.488C897.649 142.187 889.376 140.398 884.345 145.023C883.463 145.834 882.77 146.668 882.199 147.502C883.772 144.093 886.396 141.112 889.853 139.181C893.763 136.988 898.722 135.865 901.226 132.338C904.446 127.785 901.942 121.799 902.251 116.389C902.751 107.447 910.906 100.582 914.197 92.1403C915.412 89.0159 915.937 85.5118 914.649 82.3895C913.36 79.29 909.881 76.8108 906.28 77.2153C902.13 77.6925 899.581 81.4123 897.004 84.4164C893.118 88.9225 887.919 92.4743 882.127 94.6216C877.048 96.5053 871.422 97.3642 867.082 100.391C863.434 102.918 861.217 106.542 859.737 110.549C859.928 105.161 860.024 99.748 863.719 95.9805C869.297 90.3063 879.502 92.1424 886.488 88.1134C891.566 85.1799 894.164 79.6738 898.075 75.4291C901.96 71.1844 909.139 68.2757 914.479 73.5702C920.394 80.2671 918.512 89.8997 916.389 98.2916Z" fill="#50806B"/>
<path d="M844.361 186.103C842.43 173.68 848.033 160.52 858.643 152.581C864.317 148.336 871.684 145.071 874.188 138.753C876.024 134.177 876.763 123.59 878.003 118.845C880.03 110.953 887.659 107.64 894.646 102.632C901.631 97.6485 905.517 94.2398 905.517 84.5596C905.303 91.4266 899.127 96.8393 892.953 100.748C886.777 104.659 879.817 108.283 876.431 114.409C872.52 121.49 874.308 130.336 870.327 137.369C866.655 143.83 858.979 147.359 853.066 152.224C843.195 160.329 838.046 172.991 839.714 185.03C841.264 185.364 842.813 185.65 844.361 186.103Z" fill="#243C40"/>
<path d="M891.617 102.822C889.947 98.4112 889.947 93.5005 891.592 89.0898C889.161 93.5482 888.445 98.7452 889.59 103.61C890.474 103.274 891.355 102.917 891.617 102.822Z" fill="#243C40"/>
<path d="M886.872 106.089C894.191 107.877 901.965 108.139 909.427 106.827C901.822 108.998 893.525 109.141 885.824 107.232C886.108 106.971 886.395 106.709 886.872 106.089Z" fill="#243C40"/>
<path d="M876.025 118.964C869.778 114.101 865.581 107.066 864.508 99.6035C864.89 107.566 868.824 115.34 875.261 120.727C875.643 120.252 876.025 119.775 876.025 118.964Z" fill="#243C40"/>
<path d="M875.525 124.16C885.11 124.59 894.717 124.447 904.254 123.708C894.717 125.615 884.823 126.021 875.143 124.876C875.168 124.519 875.191 124.137 875.525 124.16Z" fill="#243C40"/>
<path d="M868.491 141.805C863.008 137.324 859.218 131.125 857.977 124.472C857.62 127.405 858.311 130.384 859.574 133.127C860.838 135.845 862.651 138.324 864.605 140.662C865.105 141.282 865.678 141.903 866.464 142.164C867.251 142.424 868.3 142.092 868.491 141.805Z" fill="#243C40"/>
<path d="M866.56 145.048C871.352 146.241 876.31 146.764 881.271 146.645C876.36 147.909 871.018 147.743 866.203 146.168C866.035 145.905 866.178 145.523 866.56 145.048Z" fill="#243C40"/>
<path d="M853.185 154.275C848.869 151.866 845.556 148.006 844.029 143.593C845.15 147.837 847.606 151.771 850.992 154.823C851.635 154.371 852.253 153.918 853.185 154.275Z" fill="#243C40"/>
<path d="M844.339 93.835C844.625 99.2229 849.345 110.239 848.177 123.971C847.032 137.228 826.267 158.066 815.012 164.478C801.659 158.541 789.834 141.875 790.12 128.143C790.311 118.845 794.435 115.436 792.408 108.521C792.074 107.353 791.55 106.065 790.786 104.636C787.473 98.366 776.361 88.0883 777.577 81.1756C778.818 73.9994 787.305 69.207 790.07 62.3171C793.408 53.9729 787.614 45.3176 786.828 36.6145C785.683 23.9073 796.913 10.9844 811.599 8.86204C821.613 7.78946 828.385 17.4697 829.623 26.1002C830.864 34.7079 829.455 44.1495 834.702 51.4689C839.138 57.6451 847.886 61.506 849.843 68.6365C851.415 74.3583 848.029 80.0574 845.909 85.8497C844.911 88.4949 844.196 91.1421 844.339 93.835Z" fill="#3B6257"/>
<path d="M846.103 84.5609C847.128 79.5299 848.941 74.1898 846.771 69.4928C843.599 62.6984 833.873 60.8623 828.626 55.2359C825.097 51.4207 823.929 46.2465 823.62 41.2404C823.311 36.2571 824.717 32.1328 823.763 27.1972C822.809 22.2865 818.637 16.183 813.844 13.7743C800.374 15.8967 794.652 20.5459 792.911 33.0622C792.173 38.4272 795.702 47.01 796.202 52.3978C796.702 57.7856 796.654 63.437 794.009 68.2771C792.268 71.4243 789.573 73.9989 787.357 76.8848C785.14 79.7706 783.351 83.2041 783.901 86.6833C784.449 90.1168 787.121 92.8823 789.027 95.8864C791.436 99.7016 792.556 104.135 792.388 108.546C792.054 107.378 791.529 106.089 790.768 104.66C787.453 98.3904 776.343 88.1127 777.559 81.2C778.799 74.0238 787.287 69.2314 790.052 62.3415C793.39 53.9974 787.596 45.342 786.81 36.6389C785.664 23.9317 796.894 11.0088 811.583 8.88646C821.597 7.81387 828.367 17.4941 829.607 26.1246C830.848 34.7323 829.441 44.174 834.686 51.4933C839.122 57.6695 847.87 61.5304 849.827 68.6588C851.399 74.3807 848.016 80.0797 845.893 85.8721C845.937 85.4177 846.007 84.9904 846.103 84.5609Z" fill="#50806B"/>
<path d="M829.962 190.922C819.184 184.223 816.253 170.823 816.825 158.902C817.398 146.981 820.498 134.988 818.041 123.281C816.157 114.221 810.96 105.518 812.056 96.3622C813.058 87.8977 819.352 80.4352 819.827 71.9002C820.327 63.1493 814.678 55.2823 810.911 47.2244C807.143 39.1665 805.761 28.5548 813.724 23.001C807.788 25.0279 804.807 31.4406 805.189 37.2351C805.571 43.0295 808.527 48.3696 811.27 53.5915C814.012 58.8134 816.657 64.3672 816.348 70.1616C815.944 77.7672 810.531 84.3708 808.861 91.8333C806.405 102.8 812.247 113.746 814.131 124.808C816.085 136.299 813.749 147.958 812.676 159.545C811.604 171.132 811.985 183.482 818.28 193.949C821.784 193.329 825.313 192.733 829.962 190.922Z" fill="#243C40"/>
<path d="M807.05 35.2566C801.732 31.7276 797.513 26.817 795.081 21.2383C796.488 27.6759 800.564 33.5886 806.286 37.547C806.645 36.7337 806.979 35.9226 807.05 35.2566Z" fill="#243C40"/>
<path d="M806.381 42.0511C814.034 38.9765 821.044 34.5409 826.884 29.0576C822.283 35.5658 814.796 39.8105 807.572 43.8394C807.049 43.1008 806.763 42.2419 806.381 42.0511Z" fill="#243C40"/>
<path d="M816.396 60.9826C809.195 60.9349 802.019 58.908 795.988 55.2607C801.662 59.9577 808.933 63.0095 816.539 63.8912C816.635 62.8415 816.705 61.7938 816.396 60.9826Z" fill="#243C40"/>
<path d="M818.184 66.7046C825.646 64.8457 832.704 61.5782 838.783 57.1924C833.227 62.7711 825.955 66.9204 818.041 69.0427C818.136 68.3975 818.231 67.7772 818.184 66.7046Z" fill="#243C40"/>
<path d="M810.222 93.0498C799.874 90.8797 790.314 85.6827 783.281 78.4111C789.789 85.9462 798.565 91.7863 808.386 95.1244C809.029 94.0746 809.672 93.0498 810.222 93.0498Z" fill="#243C40"/>
<path d="M809.936 98.01C821.022 97.4146 831.941 94.3628 841.526 89.2363C831.941 94.5536 821.379 98.3689 810.413 100.489C810.197 99.7029 810.006 98.9415 809.936 98.01Z" fill="#243C40"/>
<path d="M814.608 120.803C807.813 121.185 800.921 119.826 794.938 116.893C800.183 121.065 807.575 121.924 814.512 122.567C814.655 121.996 814.846 121.399 814.608 120.803Z" fill="#243C40"/>
<path d="M815.918 125.5C826.314 124.02 836.304 120.278 844.839 114.651C836.447 120.373 827.148 124.975 817.325 128.29C817.111 127.502 816.943 126.715 815.918 125.5Z" fill="#243C40"/>
<path d="M815.275 145.167C808.481 145.501 801.589 144.333 795.39 141.781C800.873 146.074 808.551 147.91 815.632 146.621C815.514 145.81 815.705 145.144 815.275 145.167Z" fill="#243C40"/>
<path d="M815.012 149.485C821.497 148.937 827.839 146.79 833.132 143.286C828.769 147.84 821.997 149.603 815.632 151.153C815.418 150.344 815.561 149.462 815.012 149.485Z" fill="#243C40"/>
<path d="M883.678 160.788V215.936C883.678 218.011 883.392 220.038 882.844 221.969C879.768 232.983 868.396 241.162 854.828 241.162H818.182C802.255 241.162 789.332 229.861 789.332 215.936V160.788H883.678Z" fill="#6D9CCD"/>
<path d="M883.678 160.788V215.936C883.678 218.011 883.392 220.038 882.844 221.969C877.886 225.521 871.519 227.668 864.581 227.668H827.935C812.008 227.668 799.085 216.368 799.085 202.443V160.79L883.678 160.788Z" fill="#79A8D4"/>
<path d="M691.344 197.789C679.828 199.744 668.098 193.449 660.683 184.414C653.268 175.402 649.382 164.029 646.14 152.799C654.27 152.774 662.257 155.707 668.981 160.286C675.705 164.863 681.236 171.014 685.933 177.667C684.74 164.054 683.549 150.367 684.931 136.778C686.315 123.187 690.439 109.574 698.902 98.8457C710.679 122.974 713.995 151.133 708.13 177.335C715.379 161.529 730.256 149.44 747.208 145.529C743.679 162.601 734.714 178.526 721.982 190.402C718.93 193.262 715.522 195.957 711.491 196.982C709.059 197.603 706.507 197.603 703.981 197.603C697.209 197.646 690.485 197.646 691.344 197.789Z" fill="#36675C"/>
<path d="M696.231 185.224C692.155 158.474 693.036 130.96 698.831 104.519C695.445 130.339 694.561 156.517 696.231 185.224Z" fill="#295250"/>
<path d="M707.199 189.66C716.427 174.305 728.682 160.787 743.009 150.034C729.731 162.741 717.738 176.807 707.199 189.66Z" fill="#295250"/>
<path d="M650.073 155.947C657.465 160.335 663.33 166.891 668.693 173.615C674.058 180.339 679.136 187.372 685.478 193.189C671.388 182.984 663.496 165.841 650.073 155.947Z" fill="#295250"/>
<path d="M682.761 204.394C675.035 205.848 667.097 202.439 660.825 197.122C654.556 191.805 649.691 184.699 644.923 177.691C658.751 174.066 674.035 178.525 684.86 189.469C677.659 181.554 672.748 171.038 671.033 159.857C669.317 148.675 670.794 136.897 675.205 126.692C688.58 139.829 696.758 159.498 697.808 180.909C697.022 168.297 700.478 155.635 706.295 144.835C712.113 134.034 720.218 124.997 729.017 117.226C730.471 140.829 724.988 164.911 712.183 185.867C722.102 174.519 737.193 169.297 751.022 172.444C744.489 185.319 735.786 196.763 725.654 206.634C712.444 204.632 698.853 201.389 682.761 204.394Z" fill="#529E86"/>
<path d="M700.117 200.579C702.215 174.71 710.536 149.414 724.079 127.574C711.704 150.868 703.576 176.546 700.117 200.579Z" fill="#3C7B7D"/>
<path d="M706.341 203.105C717.69 192.04 730.971 183.101 745.371 176.877C731.447 184.485 718.476 193.901 706.341 203.105Z" fill="#3C7B7D"/>
<path d="M676.727 136.539C677.895 157.806 684.046 178.739 694.537 197.05C685.621 178.358 679.444 158.258 676.727 136.539Z" fill="#3C7B7D"/>
<path d="M650.906 180.004C664.711 183.224 677.323 191.711 685.787 203.489C676.275 193.331 664.377 185.56 650.906 180.004Z" fill="#3C7B7D"/>
<path d="M744.965 202.104L742.629 208.733L733.092 236.008C732.042 239.012 727.774 241.157 722.839 241.157H674.462C669.622 241.157 665.402 239.083 664.257 236.151L650.978 202.104H744.965Z" fill="#F4BB4F"/>
<path d="M742.652 208.731L733.115 236.007H689.508C680.687 236.007 673.008 232.239 670.888 226.899L663.687 208.731H742.652Z" fill="#F7CF60"/>
<path d="M646.709 202.129C646.709 199.983 648.45 198.266 650.572 198.266H745.346C747.491 198.266 749.209 200.006 749.209 202.129C749.209 204.274 747.468 205.992 745.346 205.992H650.572C648.45 205.992 646.709 204.274 646.709 202.129Z" fill="#EDA73E"/>
<path d="M943.381 241.181H602.436V253.102H943.381V241.181Z" fill="#B27843"/>
<path d="M635.958 253.104H624.037V298.404H635.958V253.104Z" fill="#693C29"/>
<path d="M921.78 253.104H909.859V298.404H921.78V253.104Z" fill="#693C29"/>
<path d="M152.488 180.284L201.51 2L254.199 180.74" stroke="#37425E" stroke-miterlimit="10"/>
<path d="M196.395 183.271C201.681 141.704 193.601 98.5226 173.634 61.6895C186.032 78.3654 193.182 98.4645 197.08 118.866C200.978 139.271 201.795 160.129 202.594 180.873C200.959 181.408 199.343 181.942 196.395 183.271Z" fill="#529E86"/>
<path d="M179.394 71.4825C179.832 66.159 178.216 60.682 174.965 56.4414C171.695 52.2008 166.826 49.2528 161.559 48.3213C162.986 58.9517 170.382 68.5926 179.394 71.4825Z" fill="#529E86"/>
<path d="M185.994 82.9865C183.884 77.8726 183.483 72.0719 184.834 66.6903C186.185 61.3273 189.303 56.4021 193.581 52.9043C195.197 57.5245 195.805 62.5078 195.369 67.3749C195.083 70.4931 194.379 73.6112 192.84 76.3311C191.28 79.0323 188.865 81.333 185.994 82.9865Z" fill="#529E86"/>
<path d="M194.208 107.42C193.656 100.974 195.33 94.3372 198.905 88.9369C202.479 83.5367 207.917 79.3915 214.079 77.375C212.558 83.4786 211.016 89.6402 208.031 95.1733C205.066 100.708 200.444 105.615 194.208 107.42Z" fill="#529E86"/>
<path d="M188.104 93.9019C185.499 89.2816 180.462 86.4477 175.269 85.3834C170.078 84.3191 164.715 84.8129 159.468 85.4975C162.586 89.9476 167.151 93.3894 172.304 95.1757C177.437 96.962 183.142 97.0761 188.104 93.9019Z" fill="#529E86"/>
<path d="M197.44 129.65C194.455 124.497 189.529 120.503 183.882 118.622C178.235 116.74 171.903 116.987 166.426 119.306C173.557 129.099 186.774 134.061 197.44 129.65Z" fill="#529E86"/>
<path d="M199.476 149.387C200.826 136.191 209.762 124.039 221.95 118.83C220.201 125.523 218.432 132.311 215.01 138.34C211.587 144.348 206.264 149.595 199.476 149.387Z" fill="#529E86"/>
<path d="M199.703 166.956C198.106 161.099 194.38 155.871 189.341 152.466C184.32 149.062 178.065 147.541 172.038 148.244C175.023 153.589 178.218 158.968 182.82 162.981C187.422 166.993 193.77 169.561 199.703 166.956Z" fill="#529E86"/>
<path d="M218.737 190.153C219.079 171.709 220.923 153.187 225.963 135.447C231.002 117.706 239.311 100.707 251.576 86.9209C231.573 116.433 221.343 152.446 222.826 188.062C221.226 188.46 219.592 188.86 218.737 190.153Z" fill="#529E86"/>
<path d="M246.593 93.6144C246.745 87.32 249.236 81.121 253.44 76.4447C257.661 71.7664 263.574 68.6669 269.811 67.8682C266.578 79.4488 257.527 89.2037 246.593 93.6144Z" fill="#529E86"/>
<path d="M240.071 105.576C242.637 96.221 238.853 85.4765 231.001 79.792C229.194 84.4122 229.005 89.6424 230.488 94.3767C231.951 99.111 235.071 103.314 240.071 105.576Z" fill="#529E86"/>
<path d="M233.74 121.302C236.287 116.719 240.738 113.24 245.795 111.87C250.853 110.501 256.445 111.262 260.951 113.943C256.901 117.212 252.812 120.503 248.059 122.633C243.325 124.743 237.789 125.579 233.74 121.302Z" fill="#529E86"/>
<path d="M225.372 151.116C228.206 146.173 233.073 142.465 238.588 141.057C244.102 139.65 250.168 140.563 255.017 143.53C247.867 148.55 240.108 153.76 231.362 153.816C229.061 153.834 226.494 153.34 225.372 151.116Z" fill="#529E86"/>
<path d="M220.428 169.999C219.972 165.342 217.785 160.891 214.401 157.659C211.015 154.427 206.453 152.468 201.775 152.24C202.744 162.906 210.959 172.547 220.428 169.999Z" fill="#529E86"/>
<path d="M220.696 186.027C222.655 179.6 226.667 173.82 232.009 169.75C237.354 165.681 243.988 163.341 250.702 163.171C244.731 173.554 234.748 181.54 220.696 186.027Z" fill="#529E86"/>
<path d="M177.722 188.766C176.486 172.146 169.812 155.966 158.955 143.321C148.099 130.676 133.132 121.587 116.894 117.821C132.333 122.593 146.31 131.968 156.596 144.422C166.884 156.876 173.444 172.393 175.212 188.442C176.505 187.985 177.797 187.51 177.722 188.766Z" fill="#529E86"/>
<path d="M177.038 184.752C177.322 177.109 182.894 169.939 190.253 167.79C190.994 171.879 190.025 176.252 187.629 179.655C185.214 183.041 181.411 185.4 177.038 184.752Z" fill="#529E86"/>
<path d="M174.28 172.583C168.31 165.034 157.528 161.687 148.325 164.521C154.619 172.87 165.951 177.071 174.28 172.583Z" fill="#529E86"/>
<path d="M166.863 156.822C163.517 152.087 161.824 146.212 162.166 140.43C162.509 134.65 164.886 129.003 168.782 124.704C169.905 129.781 171.046 134.915 171.006 140.125C170.971 145.336 169.679 150.681 166.863 156.822Z" fill="#529E86"/>
<path d="M156.254 142.884C147.431 139.309 136.744 140.793 129.215 146.631C138.323 152.602 150.91 152.772 156.254 142.884Z" fill="#529E86"/>
<path d="M146.384 132.844C142.125 129.498 139.063 124.649 137.903 119.363C136.744 114.077 137.447 108.392 139.899 103.562C145.262 108.981 148.59 116.398 149.044 124.023C149.218 126.759 148.972 129.668 146.384 132.844Z" fill="#529E86"/>
<path d="M133.684 123.888C131.288 118.621 125.811 115.16 120.107 114.191C114.402 113.222 108.508 114.457 103.126 116.606C106.911 121.513 112.444 125.048 118.491 126.38C124.555 127.728 131.078 126.892 133.684 123.888Z" fill="#529E86"/>
<path d="M257.832 177.204V214.645C257.832 236.703 239.349 254.576 216.57 254.576H189.948C167.168 254.576 148.686 236.682 148.686 214.645V177.204H257.832Z" fill="#F47F59"/>
<path d="M257.83 190.058H148.686V206.429H257.83V190.058Z" fill="#75203B"/>
<path d="M504.927 712.76C625.144 712.76 722.598 705.088 722.598 695.624C722.598 686.16 625.144 678.487 504.927 678.487C384.711 678.487 287.256 686.16 287.256 695.624C287.256 705.088 384.711 712.76 504.927 712.76Z" fill="#D0DFF2"/>
<path d="M557.644 695.505C555.362 695.028 553.702 692.849 553.163 690.567C552.623 688.285 552.955 685.899 553.287 683.555C554.055 678.223 554.802 672.331 555.549 666.17C557.312 651.481 559.075 635.444 560.922 622.747C571.005 621.959 581.087 621.171 589.946 619.49C590.465 620.009 591.025 620.486 591.585 620.942C595.278 623.826 599.904 625.424 604.074 627.644C608.908 630.216 611.875 631.108 611.958 636.585C612.041 642.062 606.937 645.797 603.348 649.925C589.137 666.211 581.295 677.476 564.822 692.704C562.893 694.509 560.258 696.044 557.644 695.505Z" fill="#612F25"/>
<path d="M555.569 666.19C557.332 651.502 559.096 635.465 560.942 622.768C571.025 621.98 581.108 621.191 589.966 619.511C590.485 620.029 591.045 620.507 591.605 620.963C586.792 640.195 573.203 657.124 555.569 666.19Z" fill="#FEC5A7"/>
<path d="M589.947 619.468C584.158 628.098 574.781 635.588 567.458 641.272C560.113 635.09 552.582 629.281 544.844 623.887C536.794 618.285 528.517 613.14 519.969 608.597C517.77 607.414 515.529 606.273 513.31 605.153C514.305 604.116 515.384 602.892 516.525 601.564C523.309 593.639 532.23 581.502 538.745 572.498C562.084 590.464 570.321 601.087 587.644 617.31C588.391 618.036 589.179 618.742 589.947 619.468Z" fill="#FEC5A7"/>
<path d="M587.664 617.331C572.955 617.559 558.391 619.032 544.844 623.907C536.794 618.306 528.516 613.161 519.969 608.617C518.475 606.148 517.355 603.825 516.525 601.584C523.309 593.659 532.23 581.522 538.744 572.519C562.105 590.485 570.341 601.128 587.664 617.331Z" fill="#F2A68F"/>
<path d="M385.719 674.256C385.055 672.016 386.217 669.526 387.98 667.97C389.744 666.414 392.005 665.584 394.225 664.796C399.287 662.97 404.847 660.854 410.635 658.634C424.432 653.303 439.411 647.307 451.485 642.95C456.941 651.477 462.377 660.004 468.02 667.037C467.812 667.742 467.646 668.447 467.522 669.174C466.713 673.779 467.48 678.634 467.48 683.364C467.48 688.841 468.082 691.891 463.29 694.526C458.497 697.181 452.813 694.443 447.481 693.198C426.423 688.323 412.793 686.684 391.611 679.319C389.059 678.426 386.466 676.808 385.719 674.256Z" fill="#612F25"/>
<path d="M410.615 658.614C424.411 653.282 439.39 647.286 451.464 642.93C456.921 651.456 462.356 659.983 467.999 667.016C467.792 667.722 467.626 668.427 467.501 669.153C448.249 673.946 426.901 669.921 410.615 658.614Z" fill="#FEC5A7"/>
<path d="M444.576 592.639C445.24 614.111 442.792 635.687 438.166 657.388C446.651 661.164 457.667 665.936 467.978 666.973C474.492 642.077 480.26 630.003 485.343 599.713C472.522 597.97 454.368 595.294 444.576 592.639Z" fill="#FEC5A7"/>
<path d="M385.719 674.256C385.055 672.016 386.217 669.526 387.98 667.97C389.744 666.414 392.005 665.584 394.225 664.796C399.287 662.97 404.847 660.854 410.635 658.634C424.432 653.303 439.411 647.307 451.485 642.95C456.941 651.477 462.377 660.004 468.02 667.037C467.812 667.742 467.646 668.447 467.522 669.174C466.713 673.779 467.48 678.634 467.48 683.364C467.48 688.841 468.082 691.891 463.29 694.526C458.497 697.181 452.813 694.443 447.481 693.198C426.423 688.323 412.793 686.684 391.611 679.319C389.059 678.426 386.466 676.808 385.719 674.256Z" fill="#612F25"/>
<path d="M410.615 658.614C424.411 653.282 439.39 647.286 451.464 642.93C456.921 651.456 462.356 659.983 467.999 667.016C467.792 667.722 467.626 668.427 467.501 669.153C448.249 673.946 426.901 669.921 410.615 658.614Z" fill="#FEC5A7"/>
<path d="M485.364 599.734C482.542 616.497 479.513 627.7 476.277 638.592C473.663 647.347 470.903 655.895 467.978 666.994C457.646 665.957 446.651 661.185 438.166 657.388C440.863 644.733 442.792 632.119 443.809 619.547C444.555 610.564 444.825 601.56 444.555 592.618C454.368 595.315 472.522 597.971 485.364 599.734Z" fill="#FEC5A7"/>
<path d="M485.364 599.734C482.543 616.497 479.514 627.7 476.277 638.592C473.518 636.704 470.821 634.712 468.124 632.783C460.655 627.368 452.543 621.995 443.809 619.567C444.556 610.584 444.826 601.58 444.556 592.639C454.369 595.315 472.522 597.97 485.364 599.734Z" fill="#F2A68F"/>
<path d="M602.332 611.999C584.428 610.464 565.341 608.306 548.246 614.821C537.458 618.908 527.977 626.252 516.815 629.094C498.683 633.7 480.073 625.692 462.481 619.302C444.888 612.933 424.058 608.368 408.457 618.679C408.913 609.012 409.432 599.966 410.034 591.439C414.37 528.37 422.046 492.189 426.755 417.045C427.274 408.747 427.751 400.013 428.187 390.697C470.551 393 514.824 392.731 559.013 390.677C579.054 437.73 578.598 543.017 602.332 611.999Z" fill="#E86754"/>
<path d="M602.332 611.999C584.428 610.464 565.341 608.306 548.246 614.821C537.458 618.908 527.977 626.252 516.815 629.094C498.683 633.7 480.073 625.692 462.481 619.302C444.888 612.933 424.058 608.368 408.457 618.679C408.913 609.012 409.432 599.966 410.034 591.439C433.643 601.688 461.568 602.103 485.737 592.933C516.525 581.274 540.923 555.195 553.018 524.595C565.113 493.994 565.362 459.327 556.296 427.709C514.243 429.203 470.074 425.821 426.755 417.045C427.274 408.747 427.751 400.013 428.187 390.697C470.551 393 514.824 392.731 559.013 390.677C579.054 437.73 578.598 543.017 602.332 611.999Z" fill="#DE5849"/>
<path d="M442.502 249.56L385.533 398.581L419.391 412.128L482.356 283.833L442.502 249.56Z" fill="#F2A68F"/>
<path d="M499.575 237.048C498.808 230.306 497.77 223.46 494.596 217.464C491.422 211.468 485.717 206.427 478.953 205.804C470.198 204.995 462.522 211.53 456.921 218.335C446.299 231.281 439.017 246.571 432.44 262.235C444.66 272.089 458.02 280.533 472.19 287.275C483.932 272.006 501.754 256.052 499.575 237.048Z" fill="#F2E2D3"/>
<path d="M427.336 401.879C469.97 416.838 521.38 413.435 565.901 405.738C561.109 377.834 555.362 345.802 558.495 333.956C558.536 333.748 558.619 333.541 558.661 333.354C558.661 333.333 558.682 333.354 558.682 333.354C563.267 316.84 580.548 283.21 583.826 260.099C578.121 247.485 566.462 230.66 556.566 218.378C531.338 226.967 513.04 228.481 492.148 213.627C456.402 238.855 451.029 280.368 447.398 309.268C445.51 324.371 443.27 336.549 440.552 348.769C437.046 364.329 432.772 379.971 427.336 401.879Z" fill="#FBF2E8"/>
<path d="M427.336 401.88C469.97 416.838 521.38 413.435 565.901 405.739C561.109 377.835 555.362 345.802 558.495 333.956C558.536 333.749 558.619 333.541 558.661 333.354C539.906 346.238 516.525 353.209 493.58 354.267C475.696 355.076 457.958 352.815 440.531 348.769C437.046 364.329 432.772 379.972 427.336 401.88Z" fill="#F2E2D3"/>
<path d="M495.51 235.802C496.61 240.242 499.182 244.433 502.896 245.906C506.609 247.358 510.655 245.906 514.306 244.225C525.675 238.977 536.297 231.404 545.529 221.965C544.036 216.384 543.04 211.011 542.459 205.782C541.774 199.849 541.567 194.144 541.65 188.625C541.712 184.849 541.92 181.177 542.21 177.567C531.671 179.103 521.049 179.849 507.999 180.534C508.02 181.156 508.041 181.779 508.062 182.401C508.269 189.206 508.31 196.094 506.9 202.671C505.696 208.272 503.207 213.749 499.493 217.421C498.456 218.458 497.336 219.351 496.091 220.077C494.556 226.653 494.431 231.363 495.51 235.802Z" fill="#FEC5A7"/>
<path d="M499.493 217.461C514.285 221.424 530.613 216.963 542.48 205.823C541.795 199.889 541.588 194.184 541.671 188.665C530.281 189.059 518.808 186.943 508.082 182.441C508.29 189.246 508.331 196.134 506.92 202.711C505.696 208.312 503.207 213.768 499.493 217.461Z" fill="#F2A68F"/>
<path d="M463.606 167.612C465.071 161.99 472.809 159.14 480.892 161.245C488.975 163.351 494.34 169.614 492.877 175.235C491.412 180.857 483.674 183.707 475.591 181.602C467.508 179.496 462.143 173.235 463.606 167.612Z" fill="#F2A68F"/>
<path d="M560.737 159.331C562.624 130.078 544.803 105.141 520.924 103.585C497.045 102.05 476.174 124.497 474.286 153.75C472.399 183.002 485.448 207.939 509.327 209.495C533.206 211.03 558.849 188.583 560.737 159.331Z" fill="#FEC5A7"/>
<path d="M550.135 150.368C534.368 148.729 518.829 140.202 506.775 128.148C496.464 132.858 489.162 138.563 480.49 147.857C477.544 153.314 475.51 159.289 474.515 165.409C473.311 154.787 472.44 142.94 479.037 134.538C482.129 130.596 486.527 127.941 490.904 125.493C497.73 121.675 504.742 118.19 511.9 115.057C516.111 113.211 520.717 111.447 525.219 112.464C528.808 113.273 531.775 115.763 534.389 118.335C542.584 126.406 549.015 136.239 550.135 150.368Z" fill="#F2A68F"/>
<path d="M519.099 156.115C522.128 154.247 525.841 153.542 529.347 154.144C532.853 154.745 536.111 156.675 538.745 159.787C537.501 157.297 536.028 154.849 533.953 152.982C531.878 151.115 529.119 149.849 526.339 150.077C523.538 150.285 520.821 152.214 519.099 156.115Z" fill="#703B26"/>
<path d="M480.531 157.008C482.938 154.414 486.402 152.941 489.846 153.045C493.311 153.149 496.693 154.808 498.518 156.862C496.962 154.331 495.095 151.904 492.626 150.348C490.157 148.792 486.963 148.211 484.307 149.414C481.651 150.597 479.805 153.833 480.531 157.008Z" fill="#703B26"/>
<path d="M524.12 173.791C525.598 173.791 526.796 171.943 526.796 169.663C526.796 167.383 525.598 165.534 524.12 165.534C522.642 165.534 521.443 167.383 521.443 169.663C521.443 171.943 522.642 173.791 524.12 173.791Z" fill="#2C3C4D"/>
<path d="M492.128 173.791C493.606 173.791 494.804 171.943 494.804 169.663C494.804 167.383 493.606 165.534 492.128 165.534C490.65 165.534 489.452 167.383 489.452 169.663C489.452 171.943 490.65 173.791 492.128 173.791Z" fill="#2C3C4D"/>
<path d="M502.045 170.929C501.423 173.833 501.838 176.966 503.207 179.601" stroke="#CF6A63" stroke-miterlimit="10" stroke-linecap="round"/>
<path d="M503.726 191.115C508.145 192.92 513.643 191.696 516.879 188.169" stroke="#CF6A63" stroke-miterlimit="10" stroke-linecap="round"/>
<path d="M541.566 116.033C537.998 108.087 538.226 98.2118 543.267 91.1165C549.989 81.6769 564.491 79.3326 574.304 85.4735C584.138 91.6144 588.453 104.913 585.009 115.971C581.544 127.028 571.088 135.286 559.636 137.049C554.906 128.211 547.935 120.597 541.566 116.033Z" fill="#612F25"/>
<path d="M569.304 157.754C565.113 162.38 557.914 166.343 553.724 170.969C552.603 164.082 551.69 158.688 548.267 152.111C532.313 145.431 516.297 131.074 508.268 122.195C496.277 128.004 484.244 136.883 477.896 147.568C476.589 152.796 474.493 159.725 475.261 170.949C470.842 159.829 469.535 146.696 470.51 137.215C470.634 135.929 470.904 134.663 471.132 133.377C473.124 122.132 477.356 111.531 486.547 104.685C496.775 97.0501 505.385 95.8468 517.5 99.7679C526.338 96.2202 539.118 97.3613 547.624 101.677C549.076 102.423 550.446 103.253 551.711 104.228C569.491 117.278 570.051 148.273 569.304 157.754Z" fill="#703B26"/>
<path d="M551.731 104.249C540.259 100.224 527.085 100.763 515.903 106.323C503.226 103.398 489.762 109.581 480.924 119.145C476.982 123.419 473.808 128.252 471.132 133.397C473.123 122.153 477.356 111.552 486.546 104.705C496.774 97.0706 505.384 95.8673 517.5 99.7884C526.338 96.2408 539.118 97.3818 547.624 101.697C549.076 102.444 550.445 103.274 551.731 104.249Z" fill="#945B3A"/>
<path d="M556.627 158.227C563.977 155.227 571.829 157.428 574.163 163.146C576.497 168.864 572.429 175.932 565.079 178.932C557.728 181.932 549.876 179.731 547.542 174.013C545.208 168.293 549.276 161.227 556.627 158.227Z" fill="#FEC5A7"/>
<path d="M373.375 420.029C370.471 424.428 367.587 428.826 364.682 433.224C363.562 434.946 362.379 436.979 363.064 438.929C363.998 441.564 367.691 441.937 370.305 440.962C374.495 439.406 377.732 435.506 378.479 431.087C379.226 426.668 377.504 421.917 373.375 420.029Z" fill="#F2A68F"/>
<path d="M477.189 146.776C468.725 163.871 459.348 181.568 447.315 197.833C440.883 206.526 433.705 214.804 425.49 222.355C424.722 206.526 430.967 189.555 439.846 176.298C440.489 175.323 441.174 174.369 441.858 173.435C450.655 161.548 463.061 152.15 477.189 146.776Z" fill="#3B7067"/>
<path d="M425.863 221.878C433.249 199.762 445.697 179.182 462.169 161.838C447.191 180.427 435.137 201.069 426.527 222.915C426.257 222.646 426.009 222.355 425.863 221.878Z" fill="#294C54"/>
<path d="M447.294 197.854C456.028 181.9 464.762 165.967 473.496 150.013C461.111 155.386 450.24 163.518 441.837 173.456C450.634 161.548 463.061 152.17 477.168 146.797C468.725 163.871 459.347 181.568 447.294 197.854Z" fill="#4D8A78"/>
<path d="M486.193 185.738C480.135 199.763 474.015 213.933 465.55 226.318C463.891 228.746 462.127 231.09 460.239 233.372C452.459 242.708 442.418 250.508 428 255.093C430.655 244.347 435.012 234.16 440.676 224.949C451.733 206.962 467.853 192.792 486.193 185.738Z" fill="#3B7067"/>
<path d="M427.543 255.591C440.074 232.812 456.858 212.066 476.961 194.556C457.501 213.829 440.862 235.53 427.606 258.911C427.543 257.77 427.045 256.504 427.543 255.591Z" fill="#294C54"/>
<path d="M486.193 185.738C480.135 199.763 474.015 213.933 465.551 226.318C463.891 228.745 462.128 231.09 460.24 233.372C468.912 219.908 475.716 205.406 480.426 190.302C464.991 199.452 451.464 211.256 440.676 224.928C451.734 206.962 467.854 192.792 486.193 185.738Z" fill="#4D8A78"/>
<path d="M490.716 233.765C483.621 252.436 469.97 268.764 451.9 279.676C444.348 284.241 436.008 287.871 427.046 290.319C427.233 277.332 434.743 265.382 445.033 256.523C445.074 256.482 445.095 256.461 445.137 256.44C446.381 255.382 447.647 254.366 448.954 253.411C461.174 244.387 476.028 238.93 490.716 233.765Z" fill="#3B7067"/>
<path d="M427.129 289.012C441.092 267.768 462.979 252.146 485.364 238.35C463.622 253.806 441.403 269.78 427.254 291.481C427.233 290.796 427.233 290.091 427.129 289.012Z" fill="#294C54"/>
<path d="M451.901 279.676C464.411 267.125 476.526 254.138 484.887 238.951C470.24 241.482 456.444 247.623 445.137 256.44C446.382 255.382 447.648 254.366 448.955 253.411C461.195 244.387 476.029 238.93 490.717 233.765C483.601 252.436 469.971 268.764 451.901 279.676Z" fill="#4D8A78"/>
<path d="M494.969 272.416C486.36 283.619 477.646 294.905 466.713 304.22C462.128 308.121 457.086 311.668 451.568 314.469C443.892 318.369 435.282 320.859 425.573 320.88C429.701 307.27 440.074 295.859 452.668 287.955C454.14 287.021 455.634 286.15 457.169 285.32H457.19C468.704 278.993 481.775 275.072 494.969 272.416Z" fill="#3B7067"/>
<path d="M425.22 320.547C446.651 305.9 468.103 291.253 489.534 276.606C468.705 287.892 448.892 300.797 430.407 315.112C428.374 316.668 426.216 318.452 425.22 320.547Z" fill="#294C54"/>
<path d="M494.97 272.416C486.36 283.619 477.647 294.905 466.713 304.22C462.128 308.121 457.087 311.668 451.568 314.469C465.302 303.349 476.796 289.884 488.123 276.586C477.294 277.603 466.734 280.611 457.17 285.32C468.705 278.993 481.775 275.072 494.97 272.416Z" fill="#4D8A78"/>
<path d="M486.359 314.325C477.522 321.773 468.621 329.263 458.476 335.134C455.925 336.607 453.269 337.997 450.53 339.221C442.377 342.893 433.352 345.32 423.208 345.528C428.373 337.001 435.884 329.844 444.721 324.512C456.941 317.168 471.692 313.329 486.359 314.325Z" fill="#3B7067"/>
<path d="M422.502 346.109C439.493 333.64 458.601 323.661 478.994 316.607C463.186 321.441 448.082 328.122 434.12 336.42C429.701 339.034 425.261 341.939 422.502 346.109Z" fill="#294C54"/>
<path d="M486.36 314.325C477.522 321.773 468.622 329.263 458.477 335.134C455.925 336.607 453.269 337.997 450.531 339.221C460.945 331.711 471.111 323.889 481.256 316.089C468.58 316.607 456.091 319.512 444.722 324.512C456.941 317.168 471.692 313.329 486.36 314.325Z" fill="#4D8A78"/>
<path d="M424.847 333.474C415.324 332.747 406.258 330.092 398.084 325.943C384.205 318.889 372.939 307.52 366.632 294.076C380.097 294.989 393.976 296.524 405.781 302.769C407.897 303.889 409.93 305.217 411.839 306.69C420.49 313.412 426.382 323.391 424.847 333.474Z" fill="#3B7067"/>
<path d="M424.66 333.764C419.432 324.531 410.096 317.81 400.366 312.54C390.636 307.25 380.2 303.08 370.844 297.25C378.146 301.752 386.652 304.179 394.515 307.748C405.428 312.706 415.179 319.947 422.772 328.764C424.183 330.423 425.614 332.602 424.66 333.764Z" fill="#294C54"/>
<path d="M398.084 325.943C384.205 318.889 372.939 307.52 366.632 294.076C380.097 294.989 393.976 296.524 405.781 302.769C407.897 303.889 409.93 305.217 411.839 306.69C399.764 301.151 385.491 299.595 371.923 298.267C378.396 309.055 387.399 318.536 398.084 325.943Z" fill="#4D8A78"/>
<path d="M427.377 303.369C417.523 299.531 408.83 295.465 401.092 291.17C401.092 291.17 401.092 291.17 401.071 291.15C382.337 280.776 369.184 269.034 358.624 255.549C374.205 256.233 390.034 259.719 403.084 267.81C407.544 270.569 411.652 273.909 415.158 277.685C421.942 285.009 426.548 293.93 427.377 303.369Z" fill="#3B7067"/>
<path d="M426.631 302.746C419.681 293.306 410.469 285.402 400.469 278.659C390.47 271.917 379.682 266.294 368.852 260.817C389.163 268.473 407.668 280.319 422.606 295.215C424.763 297.352 426.983 299.966 426.631 302.746Z" fill="#294C54"/>
<path d="M366.529 260.673C377.047 271.751 388.624 281.959 401.092 291.17C382.358 280.797 369.205 269.054 358.645 255.569C374.226 256.254 390.055 259.739 403.104 267.83C407.565 270.59 411.673 273.93 415.179 277.706C409.121 273.909 398.893 267.768 393.105 265.88C384.516 263.1 375.491 261.876 366.529 260.673Z" fill="#4D8A78"/>
<path d="M427.356 263.474C420.386 263.121 414.182 261.897 408.664 259.926L408.643 259.905C399.764 256.772 392.585 251.814 386.673 245.777C377.067 235.985 370.823 223.433 369.101 210.404C386.901 215.425 402.751 226.047 413.996 239.802C419.825 246.959 424.41 254.968 427.356 263.474Z" fill="#3B7067"/>
<path d="M427.605 262.623C404.847 252.333 385.739 235.072 374.101 214.284C387.378 233.495 404.95 250.902 427.191 260.756C427.377 261.399 427.585 262.042 427.605 262.623Z" fill="#294C54"/>
<path d="M389.764 244.864C394.951 250.922 401.34 256.254 408.643 259.926C399.764 256.793 392.585 251.835 386.673 245.797C377.067 236.005 370.823 223.454 369.101 210.425C386.901 215.445 402.751 226.068 413.996 239.822C409.701 235.839 404.805 232.374 399.701 229.325C391.361 224.366 382.316 220.508 373.333 216.649C377.503 226.628 382.544 236.42 389.764 244.864Z" fill="#4D8A78"/>
<path d="M425.469 222.374C420.324 220.466 415.552 218.287 411.154 215.86C389.266 203.765 376.735 185.736 374.993 166.629C386.528 172.998 397.938 179.844 407.274 188.786C407.419 188.911 407.564 189.056 407.71 189.201C417.129 198.309 424.307 209.906 425.469 222.374Z" fill="#3B7067"/>
<path d="M425.738 220.486C408.415 205.154 391.092 189.573 377.606 171.296C392.855 188.038 409.12 204.013 426.298 219.075C426.257 219.552 426.215 220.008 425.738 220.486Z" fill="#294C54"/>
<path d="M411.174 215.84C389.287 203.744 376.756 185.716 375.013 166.608C386.548 172.978 397.959 179.824 407.295 188.766C404.888 187.376 402.378 186.151 399.867 184.969C392.565 181.546 384.888 178.289 379.349 172.687C384.66 189.616 396.05 204.968 411.174 215.84Z" fill="#4D8A78"/>
<path d="M424.265 198.31C420.033 192.584 416.589 186.734 413.871 180.759C404.618 160.531 403.373 139.1 405.925 118.063C418.871 127.794 429.576 150.137 429.41 173.083C429.327 181.63 427.771 190.24 424.265 198.31Z" fill="#3B7067"/>
<path d="M420.967 346.524C428.581 280.302 426.838 213.021 415.801 146.902C431.465 214.39 430.593 279.596 425.013 345.943C423.643 345.798 422.274 345.653 420.967 346.524Z" fill="#294C54"/>
<path d="M408.913 124.453C407.087 143.229 408.768 162.378 413.85 180.759C404.598 160.531 403.353 139.1 405.905 118.063C418.85 127.794 429.555 150.137 429.389 173.083C427.647 155.614 420.51 138.519 408.913 124.453Z" fill="#4D8A78"/>
<path d="M487.812 357.745L484.14 368.969L457.418 450.751L374.889 441.415L367.068 355.753L366.01 343.99L487.812 357.745Z" fill="#65B7A8"/>
<path d="M487.812 357.745L484.14 368.969L367.068 355.753L366.01 343.99L487.812 357.745Z" fill="#4EA3A0"/>
<path d="M494.533 354.696C494.305 356.729 493.289 358.451 491.795 359.634C490.322 360.816 488.413 361.418 486.38 361.19L365.533 347.539C361.487 347.082 358.582 343.431 359.039 339.385C359.101 338.887 359.205 338.41 359.35 337.954C360.408 334.676 363.645 332.498 367.192 332.892L488.04 346.543C492.085 346.999 494.99 350.651 494.533 354.696Z" fill="#74CFB8"/>
<path d="M488.641 350.319L488.496 351.543C488.267 353.576 486.442 355.028 484.429 354.8L362.586 341.024C360.905 340.838 359.619 339.551 359.37 337.954C360.428 334.676 363.665 332.498 367.212 332.892L485.404 346.252C487.417 346.481 488.869 348.286 488.641 350.319Z" fill="#8EE6C0"/>
<path d="M468.891 416.377C468.891 416.377 455.987 415.257 449.867 417.995C443.747 420.734 438.871 425.672 434.888 431.066C433.623 432.788 432.399 434.966 433.249 436.916C434.1 438.825 436.672 439.426 438.664 438.825C440.676 438.202 442.253 436.729 443.871 435.402C445.49 434.074 447.336 432.788 449.514 433.203C445.614 438.41 441.714 443.617 437.813 448.825C437.129 449.737 436.423 450.754 436.506 451.874C436.631 453.472 438.332 454.488 439.909 454.841C443.27 455.567 446.963 454.385 449.473 451.522C449.971 453.472 451.548 455.111 453.477 455.671C455.406 456.231 457.626 455.712 458.995 454.281C460.137 455.816 462.107 456.667 463.995 456.48C465.883 456.293 467.647 455.049 468.456 453.907C469.618 455.38 471.941 455.505 473.622 454.654C475.302 453.804 476.464 452.206 477.46 450.609C480.738 445.298 482.833 439.24 483.04 434.053C478.393 428.618 468.891 416.377 468.891 416.377Z" fill="#FEC5A7"/>
<path d="M374.309 448.305C380.449 449.218 380.553 439.115 379.578 434.882C379.246 433.43 378.52 431.957 376.757 431.708C374.35 431.356 373.748 432.538 372.773 434.613C371.632 437.061 368.126 447.393 374.309 448.305Z" fill="#FEC5A7"/>
<path d="M390.926 448.139C397.067 449.052 397.171 438.949 396.196 434.716C395.864 433.264 395.138 431.791 393.375 431.542C390.968 431.19 390.366 432.372 389.391 434.447C388.271 436.874 384.765 447.227 390.926 448.139Z" fill="#FEC5A7"/>
<path d="M398.395 448.865C404.536 449.778 404.64 439.674 403.665 435.442C403.333 433.99 402.606 432.517 400.843 432.268C398.436 431.915 397.835 433.098 396.86 435.172C395.719 437.6 392.213 447.952 398.395 448.865Z" fill="#FEC5A7"/>
<path d="M382.026 447.226C388.105 448.367 389.018 438.326 388.375 434.094C388.146 432.641 387.545 431.148 385.802 430.816C383.416 430.359 382.711 431.521 381.591 433.533C380.242 435.94 375.906 446.085 382.026 447.226Z" fill="#FEC5A7"/>
<path d="M567.914 285.512C560.674 295.034 553.973 304.972 547.873 315.283C542.355 324.619 537.313 334.266 532.791 344.12C518.496 375.385 510.799 395.468 482.978 437.728C478.165 432.168 469.701 426.649 464.763 421.587C477.46 377.626 494.679 328.602 514.72 286.736C518.33 279.122 522.085 271.57 525.986 264.019C540.446 267.774 554.242 274.164 567.914 285.512Z" fill="#FEC5A7"/>
<path d="M567.914 285.512C560.674 295.034 553.973 304.972 547.873 315.283C535.592 307.316 524.409 297.69 514.721 286.736C518.331 279.122 522.086 271.57 525.986 264.019C540.446 267.774 554.243 274.164 567.914 285.512Z" fill="#F2A68F"/>
<path d="M514.244 274.515C528.164 286.755 549.969 296.236 566.96 302.44C574.014 279.515 585.424 259.764 586.047 238.561C586.835 211.799 553.786 201.55 539.513 225.616C531.193 239.599 521.609 256.279 514.244 274.515Z" fill="#F2E2D3"/>
<path d="M273.666 842.997C401.923 842.997 505.896 834.809 505.896 824.709C505.896 814.609 401.923 806.421 273.666 806.421C145.408 806.421 41.4351 814.609 41.4351 824.709C41.4351 834.809 145.408 842.997 273.666 842.997Z" fill="#D0DFF2"/>
<path d="M190.905 467.495C195.783 473.312 193.281 482.019 190.671 489.142C188.061 496.264 185.922 505.185 191.183 510.639C193.43 512.971 196.702 514.168 198.671 516.736C201.386 520.265 200.853 525.313 199.355 529.506C197.857 533.699 195.569 537.678 195.057 542.082C194.073 550.638 200.596 558.916 208.789 561.611C216.959 564.306 226.158 562.187 233.537 557.739C240.917 553.289 246.757 546.723 252.126 539.987C257.495 533.248 262.563 526.211 268.874 520.35C274.223 515.388 280.382 511.388 285.816 506.51C291.249 501.633 296.062 495.623 297.538 488.48C298.971 481.507 297.087 474.298 295.206 467.433C293.453 460.972 291.527 454.234 286.928 449.4C279.335 441.4 266.843 440.888 255.868 442.105C234.263 444.543 213.172 451.732 190.905 467.495Z" fill="#85482A"/>
<path d="M264.679 568.713C259.225 581.782 253.642 593.696 247.802 603.858C242.348 613.376 236.68 621.355 230.691 627.345C215.355 642.683 188.102 654.34 158.798 665.676C152.039 657.226 148.317 650.873 145.236 643.687C175.675 629.484 187.204 618.681 207.075 600.393C208.679 595.346 210.349 590.36 212.038 585.398C215.695 574.682 219.502 564.158 223.353 553.633C224.037 551.751 224.722 549.89 225.384 548.029C233.105 551.538 242.624 556.649 251.566 561.548C256.209 564.093 260.68 566.574 264.679 568.713Z" fill="#FCC3A0"/>
<path d="M264.68 568.713C259.225 581.781 253.643 593.696 247.802 603.857C234.904 599.901 222.732 593.634 212.061 585.42C215.718 574.705 219.525 564.18 223.376 553.655C232.745 556.435 242.134 559.066 251.589 561.57C256.209 564.093 260.68 566.574 264.68 568.713Z" fill="#EDA180"/>
<path d="M249.792 506.447C243.203 507.731 231.887 516.009 228.423 521.742C224.935 527.474 223.139 534.04 221.365 540.5C217.772 553.656 214.156 566.788 210.691 580.136C226.84 589.547 245.128 595.281 263.053 595.516C268.7 573.805 270.347 564.008 269.662 548.073C268.957 532.117 270.048 513.036 249.792 506.447Z" fill="#E86754"/>
<path d="M122.48 730.827C105.41 711.896 95.7007 686.144 95.8709 660.325C96.0202 639.535 102.331 619.191 111.379 600.605C120.426 582.016 132.171 564.989 143.913 548.05C150.245 567.707 155.463 587.729 159.527 608.007C163.89 629.697 166.927 652.049 163.676 673.93C160.446 695.832 150.181 717.415 122.48 730.827Z" fill="#408B8F"/>
<path d="M143.89 560.263C132.897 614.892 121.881 669.972 121.773 725.694C118.179 670.144 125.409 613.929 143.89 560.263Z" fill="#326473"/>
<path d="M129.174 572.37C131.55 576.092 133.944 579.814 136.319 583.536C137.197 584.905 138.031 586.787 136.94 587.963C133.73 582.936 131.398 577.353 129.174 572.37Z" fill="#326473"/>
<path d="M135.099 598.38C142.093 596.006 148.618 592.284 154.244 587.513C149.282 593.844 142.437 598.678 134.821 601.268C134.736 600.112 134.649 598.956 135.099 598.38Z" fill="#326473"/>
<path d="M110.972 610.763C116.406 616.302 123.314 620.41 130.802 622.528C131.015 623.213 130.353 623.897 129.646 624.003C128.941 624.111 128.256 623.81 127.613 623.511C124.511 622.098 121.389 620.667 118.63 618.657C115.87 616.646 113.474 613.993 110.972 610.763Z" fill="#326473"/>
<path d="M157.217 618.187C148.361 623.193 138.736 626.871 128.791 629.01C128.706 629.908 128.598 630.807 128.513 631.726C138.757 628.603 148.533 624.004 157.217 618.187Z" fill="#326473"/>
<path d="M101.196 649.565C107.549 656.474 115.464 661.928 124.169 665.416C123.698 666.08 123.206 666.762 122.735 667.426C114.823 663.918 107.657 658.742 101.196 649.565Z" fill="#326473"/>
<path d="M122.373 671.599C134.715 671.92 147.142 668.86 157.924 662.829C148.171 670.636 135.656 674.914 123.165 674.7C122.972 673.48 122.779 672.24 122.373 671.599Z" fill="#326473"/>
<path d="M116.64 737.138C128.233 689.566 107.4 645.951 83.7635 626.937C60.1271 607.921 29.7752 599.579 0 599.515C40.4492 663.021 40.7044 689.438 51.2726 706.037C68.1705 732.54 94.9499 744.646 116.64 737.138Z" fill="#4F9E96"/>
<path d="M7.01611 603.26C30.3101 614.768 52.8116 634.253 71.7635 658.617C89.6448 681.633 102.03 704.606 110.843 736.713C93.0036 681.845 55.7846 633.504 7.01611 603.26Z" fill="#37747A"/>
<path d="M31.679 619.728C32.0649 614.188 31.0795 608.562 28.8555 603.471C30.567 605.823 31.5712 608.626 32.1292 611.491C32.6852 614.336 32.8346 617.267 32.9632 620.176C32.4052 620.178 31.8284 619.921 31.679 619.728Z" fill="#37747A"/>
<path d="M64.1703 616.158C65.1329 625.826 63.4214 635.751 59.2285 644.521C59.741 645.205 60.2555 645.89 60.7679 646.554C64.5334 636.521 65.774 625.569 64.1703 616.158Z" fill="#37747A"/>
<path d="M98.6943 648.628C96.1487 658.831 90.6301 668.264 82.9727 675.472C83.4229 676.326 83.871 677.183 84.3419 678.017C91.4641 669.632 96.4682 659.408 98.6943 648.628Z" fill="#37747A"/>
<path d="M115.634 689.48C111.014 695.576 105.109 700.71 98.4146 704.453C98.6926 705.395 98.9498 706.314 99.2278 707.256C106.203 702.785 111.935 696.412 115.634 689.48Z" fill="#37747A"/>
<path d="M30.1818 618.382C25.0906 619.88 19.68 620.264 14.4395 619.515C19.9372 621.077 25.7981 621.332 31.3809 620.243C31.0158 619.878 30.6527 619.515 30.1818 618.382Z" fill="#37747A"/>
<path d="M56.8546 643.021C48.8756 646.936 39.936 648.903 31.0586 648.689C40.0646 650.7 49.7967 649.33 57.9023 644.903C57.3671 644.306 56.8339 643.685 56.8546 643.021Z" fill="#37747A"/>
<path d="M81.261 673.526C69.2177 678.381 56.0417 680.393 43.1001 679.387C55.7409 682.211 68.8546 678.767 81.346 675.344C81.0473 674.767 80.7693 674.167 81.261 673.526Z" fill="#37747A"/>
<path d="M113.945 735.212C114.416 707.661 127.358 680.346 148.917 661.245C170.479 642.144 200.445 631.513 231.355 633.074C223.911 659.405 214.03 685.929 195.271 706.933C176.51 727.941 147.249 742.571 113.945 735.212Z" fill="#4F9E96"/>
<path d="M123.356 729.928C130.8 707.427 146.244 688.174 164.683 673.287C183.121 658.399 204.469 647.555 226.478 638.613C205.645 649.051 185.367 660.837 167.355 675.639C149.345 690.442 133.624 708.346 123.356 729.928Z" fill="#37747A"/>
<path d="M197.859 637.738C196.618 643.128 196.104 648.67 196.32 654.209C195.635 653.995 194.865 654.23 194.374 654.744C194.907 649.118 196.17 643.576 197.859 637.738Z" fill="#37747A"/>
<path d="M169.944 649.803C168.724 656.24 169.28 663.022 171.527 669.182C171.015 669.759 170.48 670.315 169.965 670.894C167.89 663.663 167.934 655.854 169.944 649.803Z" fill="#37747A"/>
<path d="M139.914 671.982C140.385 679.084 142.931 686.036 147.144 691.768C146.673 692.324 146.225 692.859 145.754 693.415C141.837 686.914 139.935 679.213 139.914 671.982Z" fill="#37747A"/>
<path d="M124.79 699.233C125.773 703.961 128.532 708.281 132.406 711.148C131.87 711.833 131.337 712.517 130.802 713.202C128.02 709.349 126.223 704.773 124.79 699.233Z" fill="#37747A"/>
<path d="M190.886 657.095C198.309 659.854 206.095 661.63 213.987 662.335C205.581 663.277 197.174 661.051 189.004 658.848C189.731 658.422 190.459 658.016 190.886 657.095Z" fill="#37747A"/>
<path d="M166.779 673.415C178.416 680.238 191.934 683.811 205.409 683.618C191.633 685.072 177.389 681.778 165.644 674.421C166.437 673.906 167.185 673.394 166.779 673.415Z" fill="#37747A"/>
<path d="M144.277 695.831C155.955 700.065 168.341 702.42 180.768 702.76C168.104 703.852 155.206 701.991 143.379 697.35C143.786 696.773 144.192 696.196 144.277 695.831Z" fill="#37747A"/>
<path d="M171.655 747.746L157.259 823.574C156.191 829.327 151.141 833.478 145.303 833.478H100.149C94.8873 833.478 90.2671 830.099 88.6405 825.221C88.6198 825.157 88.597 825.072 88.5762 825.008C88.4269 824.56 88.2982 824.089 88.2132 823.597L75.701 757.694L73.8193 747.769H171.657L171.655 747.746Z" fill="#F4BB4C"/>
<path d="M164.469 757.671L151.399 817.798C150.308 822.825 145.281 826.439 139.443 826.439H94.2886C92.2575 826.439 90.3322 826.011 88.6207 825.219C88.5999 825.155 88.5771 825.07 88.5564 825.005C88.407 824.557 88.2783 824.086 88.1933 823.595L75.6812 757.692H164.471L164.469 757.671Z" fill="#FCD16D"/>
<path d="M181.387 736.43V748.151C181.387 751.253 178.885 753.755 175.784 753.755H69.668C66.5872 753.755 64.0645 751.253 64.0645 748.151V736.43C64.0645 733.328 66.5665 730.826 69.668 730.826H175.784C176.34 730.826 176.875 730.911 177.367 731.061C179.698 731.745 181.387 733.884 181.387 736.43Z" fill="#FCD16D"/>
<path d="M177.387 731.058V742.759C177.387 745.861 174.885 748.363 171.784 748.363H65.6679C65.1119 748.363 64.5766 748.278 64.085 748.128V736.45C64.085 733.348 66.587 730.846 69.6886 730.846H175.804C176.339 730.824 176.875 730.909 177.387 731.058Z" fill="#FAD97F"/>
<path d="M110.799 738.806C105.708 744.559 99.4401 748.86 92.5958 752.281C83.3347 756.922 73.003 760.003 63.0343 762.911C45.6655 767.982 27.2925 773.905 15.826 787.873C15.5916 769.436 15.3986 750.698 20.5748 733.007C22.7138 725.736 25.8797 718.611 30.0725 712.238C36.0827 703.126 44.1261 695.597 54.1362 691.405C71.142 684.282 93.7514 689.652 102.328 705.971C108.681 703.404 116.981 709.863 118.371 717.522C119.784 725.2 115.954 732.966 110.799 738.806Z" fill="#69B2A0"/>
<path d="M92.5958 752.28C83.3347 756.921 73.003 760.002 63.0343 762.91C45.6655 767.981 27.2925 773.904 15.826 787.872C15.5916 769.435 15.3986 750.697 20.5748 733.007C22.7138 725.735 25.8797 718.611 30.0725 712.237C27.7199 717.243 25.8382 722.461 24.4046 727.766C19.9773 744.064 19.2491 761.091 18.5438 777.947C31.1845 767.124 47.9974 762.782 64.275 759.294C73.7312 757.263 83.399 755.361 92.5958 752.28Z" fill="#7DC7B0"/>
<path d="M99.8056 707.294C80.2127 709.86 61.4746 718.503 46.8007 731.744C32.1268 744.984 21.6042 762.739 17.4321 782.031C23.2079 763.614 33.9234 746.781 48.1699 733.754C62.4144 720.727 80.1256 711.551 99.8056 707.294Z" fill="#4D9492"/>
<path d="M37.6243 743.317C41.0474 751.338 42.6304 760.151 42.2238 768.856C42.118 760.62 40.2549 752.429 36.811 744.963C37.1969 744.409 37.5807 743.832 37.6243 743.317Z" fill="#4D9492"/>
<path d="M58.4361 723.512C64.6393 726.165 69.2595 731.789 71.7407 738.057C74.222 744.324 74.7344 751.233 74.4357 757.971C74.1577 751.469 73.0457 744.945 70.3279 739.04C67.5894 733.136 63.1414 727.918 57.3013 725.03C57.795 724.539 58.3282 724.045 58.4361 723.512Z" fill="#4D9492"/>
<path d="M85.7522 710.803C92.2541 710.461 98.8639 712.857 103.633 717.305C108.403 721.755 111.27 728.172 111.376 734.695C110.498 728.257 107.183 722.204 102.264 717.967C97.3453 713.733 90.8413 711.401 84.3394 711.507C85.1526 710.976 85.9659 710.484 85.7522 710.803Z" fill="#4D9492"/>
<path d="M35.3775 745.736C28.2553 745.286 21.0459 749.265 17.6021 755.511C20.8115 750.634 26.4566 747.447 32.2967 747.254C33.0021 747.234 33.7075 747.234 34.3506 746.997C35.0145 746.763 35.614 746.186 35.3775 745.736Z" fill="#4D9492"/>
<path d="M56.2751 724.921C50.3707 723.423 44.2546 722.504 38.2008 723.21C32.1471 723.915 26.1804 726.355 22.0083 730.803C30.9915 723.488 44.1032 721.627 54.7772 726.139C55.2502 725.691 55.6983 725.263 56.2751 724.921Z" fill="#4D9492"/>
<path d="M82.8851 711.125C79.4847 704.6 74.2214 698.868 67.485 695.895C60.7466 692.922 52.4916 693.028 46.3735 697.092C52.8983 694.184 60.5972 694.096 67.1863 696.858C73.7753 699.617 79.1217 705.179 81.6029 711.851C82.0511 711.725 82.5013 711.552 82.8851 711.125Z" fill="#4D9492"/>
<path d="M212.424 746.528C212.403 762.314 207.353 777.608 201.557 792.282C195.011 780.73 184.103 772.239 172.53 765.737C168.616 763.534 164.574 761.523 160.51 759.598C153.772 756.411 146.927 753.416 140.253 750.123H140.232C139.056 749.524 137.88 748.947 136.703 748.326C127.975 743.791 118.694 737.14 117.795 727.344C117.09 719.856 121.901 712.585 128.405 708.819C134.907 705.033 142.78 704.307 150.265 705.033C160.682 695.301 176.553 694.68 188.661 700.863C190.692 701.89 192.617 703.11 194.393 704.52C206.756 714.292 212.446 730.742 212.424 746.528Z" fill="#69B2A0"/>
<path d="M212.423 746.528C212.402 762.314 207.353 777.608 201.556 792.282C195.01 780.73 184.102 772.239 172.53 765.737C168.615 763.534 164.573 761.523 160.509 759.598C163.547 760.646 166.627 761.693 169.58 762.893C181.814 767.94 192.681 776.218 200.809 786.658C206.135 774.017 209.601 761.332 209.815 748.412C210.008 735.493 206.799 722.315 199.355 711.771C196.423 707.622 192.789 703.9 188.681 700.884C190.712 701.911 192.637 703.129 194.413 704.541C206.755 714.292 212.446 730.742 212.423 746.528Z" fill="#7DC7B0"/>
<path d="M151.333 706.162C168.445 709.691 181.943 723.66 189.407 739.466C196.872 755.273 199.268 772.92 201.6 790.247C200.894 778.291 199.868 766.289 196.915 754.675C193.963 743.06 189.001 731.788 181.15 722.741C173.302 713.691 162.371 706.996 151.333 706.162Z" fill="#4D9492"/>
<path d="M163.014 709.95C154.5 708.88 145.666 709.309 137.689 712.411C129.689 715.492 122.608 721.438 119.208 729.309C123.957 722.207 130.909 716.604 138.824 713.417C146.759 710.251 155.979 708.84 164.321 710.701C163.954 710.143 163.248 710.249 163.014 709.95Z" fill="#4D9492"/>
<path d="M182.82 725.82C175.013 725.8 167.206 728.43 161.024 733.221C154.841 738.013 150.329 744.899 148.404 752.471C150.929 745.135 155.804 738.611 162.115 734.119C168.447 729.627 176.189 727.146 183.955 727.19C183.61 726.847 183.268 726.505 182.82 725.82Z" fill="#4D9492"/>
<path d="M195.719 752.559C189.536 757.478 186.072 765.627 186.821 773.5C186.926 769.778 187.333 766.013 188.725 762.571C190.115 759.127 192.619 756.005 196.02 754.486C195.868 753.971 195.719 753.478 195.719 752.559Z" fill="#4D9492"/>
<path d="M196.468 755.532C201.837 755.895 206.885 759.319 209.217 764.152C208.576 761.35 206.885 758.804 204.597 757.094C202.308 755.383 199.356 754.528 196.489 754.721C196.574 754.956 196.661 755.19 196.468 755.532Z" fill="#4D9492"/>
<path d="M183.763 727.639C188.084 725.649 192.939 724.645 197.667 725.33C202.372 726.014 206.908 728.539 209.538 732.516C206.972 728.195 202.586 725.008 197.688 723.917C192.79 722.805 187.464 723.809 183.292 726.612C183.634 727.083 183.977 727.595 183.763 727.639Z" fill="#4D9492"/>
<path d="M165.302 711.383C169.217 707.512 174.457 705.01 179.911 704.366C185.386 703.725 191.056 704.943 195.762 707.81C191.291 704.495 185.579 702.891 180.019 703.383C174.48 703.895 169.152 706.505 165.345 710.59C165.58 710.827 165.793 711.061 165.302 711.383Z" fill="#4D9492"/>
<path d="M409.556 797.63C405.77 797.545 401.984 797.458 398.22 797.373C384.295 797.074 370.37 796.752 356.424 796.431C355.997 796.41 355.57 796.41 355.14 796.323C354.348 796.194 353.622 795.875 353.194 795.167C352.618 794.248 352.744 792.985 352.916 791.873C353.151 790.246 353.302 788.599 353.537 786.782C353.879 784.321 354.35 781.541 355.418 778.161C356.381 775.081 357.537 772.043 358.862 769.135C361.065 764.193 363.74 759.488 366.818 755.189C368.059 753.457 369.472 751.702 371.31 750.911C374.947 749.372 378.882 751.959 381.94 754.677C394.368 765.716 404.058 780.773 409.556 797.63Z" fill="#DB5144"/>
<path d="M398.198 797.372C384.273 797.073 370.348 796.751 356.402 796.43C355.975 796.409 355.547 796.409 355.118 796.322C354.304 793.22 353.748 790.034 353.491 786.783C353.834 784.322 354.304 781.542 355.373 778.162C356.336 775.082 357.491 772.044 358.817 769.136C371.565 769.264 383.887 776.366 391.714 786.525C394.347 789.886 396.486 793.521 398.198 797.372Z" fill="#EDA180"/>
<path d="M298.092 766.036C318.884 765.887 339.674 765.715 360.466 765.565C361.022 774.271 361.043 783.019 360.51 791.747C360.381 793.822 360.124 796.133 358.541 797.5C357.193 798.656 355.269 798.785 353.514 798.87C332.722 799.768 311.953 800.666 291.163 801.585C292.53 790.206 293.9 778.826 298.092 766.036Z" fill="#5D6980"/>
<path d="M482.667 819.79C482.196 822.099 480.015 823.746 477.725 824.325C475.437 824.881 473.04 824.56 470.688 824.24C465.339 823.491 459.393 822.765 453.211 822.037C438.452 820.325 422.324 818.636 409.534 816.84C408.679 806.701 407.845 796.583 406.133 787.664C406.646 787.129 407.137 786.594 407.567 785.996C410.455 782.274 412.038 777.611 414.241 773.397C416.807 768.519 417.685 765.526 423.203 765.418C428.701 765.31 433.064 769.824 436.637 774.017C447.972 787.237 464.337 799.172 479.802 812.541C481.812 814.315 483.181 817.159 482.667 819.79Z" fill="#E86754"/>
<path d="M453.193 822.016C438.434 820.305 422.306 818.616 409.516 816.819C408.661 806.68 407.827 796.562 406.115 787.644C406.628 787.108 407.121 786.573 407.549 785.976C426.926 790.764 443.994 804.326 453.193 822.016Z" fill="#FCC3A0"/>
<path d="M281.537 644.754C263.891 691.278 228.084 785.651 230.97 802.526C233.943 819.938 245.837 822.376 257.6 823.895C269.343 825.413 281.172 822.42 293.514 818.333C313.707 771.767 330.69 723.831 344.337 674.954C324.831 665.096 302.883 655.214 281.537 644.754Z" fill="#62738C"/>
<path d="M410.368 817.904C372.508 824.107 312.402 834.46 285.622 833.391C278.456 833.113 271.677 827.788 269.067 821.114C264.125 808.408 283.975 755.424 310.713 702.506C295.398 692.581 277.985 677.802 275.89 659.941C275.483 656.454 275.656 652.819 276.554 649.097C311.848 648.07 350.372 639.128 384.894 631.9C386.989 640.693 388.016 649.504 388.06 658.36C388.252 693.953 372.317 730.914 342.115 774.038C368.446 777.225 386.97 777.567 410.905 777.16C415.994 792.342 412.486 804.535 410.368 817.904Z" fill="#798799"/>
<path d="M388.039 658.357C351.976 671.32 311.997 671.683 275.89 659.94C275.484 656.453 275.656 652.818 276.554 649.096C311.848 648.069 350.372 639.127 384.894 631.899C386.969 640.667 388.016 649.48 388.039 658.357Z" fill="#62738C"/>
<path d="M397.386 780.73C405.535 789.201 408.081 802.635 403.568 813.499C404.83 803.574 400.124 793.971 397.386 780.73Z" fill="#62738C"/>
<path d="M324.683 796.646C332.319 791.405 338.394 783.918 341.645 774.613C341.794 779.684 340.126 784.796 337.025 788.816C333.923 792.837 329.388 795.746 324.683 796.646Z" fill="#62738C"/>
<path d="M342.265 778.037C343.398 786.914 342.437 796.047 339.441 804.453C342.649 800.389 345.966 796.026 346.586 790.871C347.14 786.099 345.089 781.116 342.265 778.037Z" fill="#62738C"/>
<path d="M377.151 648.285C381.707 664.671 380.574 682.318 375.89 698.659C371.205 715.022 363.12 730.211 353.901 744.519C345.944 756.841 336.895 769.095 334.565 784.39C337.067 783.535 339.978 783.942 342.137 785.46C344.297 786.979 345.689 789.568 346.351 791.898C363.998 792.667 381.688 792.091 399.526 789.993C401.495 787.491 406.692 787.406 409.129 789.437" stroke="#495875" stroke-miterlimit="10" stroke-linecap="round"/>
<path d="M406.839 778.187C410.391 791.105 409.812 805.117 405.213 817.694" stroke="#495875" stroke-miterlimit="10" stroke-linecap="round"/>
<path d="M362.24 652.947C364.786 656.476 365.257 661.076 365.45 665.418C365.643 669.76 365.728 674.316 367.717 678.187C369.707 682.059 375.31 684.347 379.418 682.915" stroke="#495875" stroke-miterlimit="10" stroke-linecap="round"/>
<path d="M362.327 533.891C348.124 504.736 327.012 480.224 283.698 491.753C265.047 496.715 233.262 510.362 231.272 527.152C228.577 549.741 244.492 569.527 258.823 590.767C273.155 612.028 278.653 636.372 273.348 661.439C311.509 669.076 359.165 667.172 393.731 649.27C393.085 644.799 393.513 597.891 362.327 533.891Z" fill="#F47E5C"/>
<path d="M342.093 570.016C340.211 580.348 337.879 589.738 335.248 597.974C329.344 616.498 321.944 629.224 315.035 633.844C286.179 644.902 252.383 660.647 229.154 665.673C226.842 656.454 226.224 650.979 221.646 639.919C254.373 626.722 278.009 612.733 286.2 605.866C289.322 603.256 291.548 597.202 295.484 578.059C297.067 570.317 298.928 560.392 301.26 547.685C301.581 545.973 301.901 544.197 302.222 542.38C318.114 545.803 329.002 551.322 336.489 560.861C338.628 563.579 340.489 566.616 342.093 570.016Z" fill="#FCC3A0"/>
<path d="M342.092 570.018C340.211 580.349 337.879 589.739 335.248 597.976C321.13 593.569 307.568 586.853 295.483 578.082C297.066 570.339 298.927 560.414 301.259 547.707C312.724 553.012 324.445 557.781 336.489 560.883C338.628 563.58 340.489 566.617 342.092 570.018Z" fill="#EDA180"/>
<path d="M291.162 573.952C294.542 551.706 294.498 537.567 298.927 515.172C302.714 496.114 318.242 493.054 324.317 494.959C330.412 496.863 335.483 501.205 339.462 506.209C348.532 517.653 352.316 532.561 352.723 547.15C353.129 561.739 350.412 576.22 348.21 590.742C327.611 588.606 317.174 585.483 291.162 573.952Z" fill="#E86754"/>
<path d="M232.04 638.231C225.644 633.632 216.64 633.889 209.539 637.269C202.417 640.648 196.94 646.723 192.405 653.162C191.463 654.488 190.587 656.372 191.656 657.59C192.768 658.874 194.863 658.125 196.34 657.291C201.411 654.424 204.661 653.227 211.506 650.895C207.334 661.569 201.388 669.162 191.612 675.152C190.392 675.9 189.11 676.627 188.253 677.782C187.398 678.938 187.098 680.649 187.975 681.761C189.044 683.11 191.098 682.981 192.788 682.595C199.697 681.012 206.114 677.247 212.147 672.006C209.217 677.911 205.666 683.494 201.558 688.67C200.446 690.083 199.205 691.792 199.676 693.525C199.954 694.487 200.788 695.28 201.772 695.493C202.755 695.707 203.846 695.344 205.514 694.209C205.728 695.321 206.626 696.263 207.738 696.518C208.85 696.775 211.331 696.305 213.3 694.915C213.558 695.962 214.798 696.968 215.867 696.84C216.937 696.711 218.304 696.07 219.182 695.406C226.86 689.653 229.663 684.904 233.128 678.678C239.912 666.552 237.708 651.75 232.04 638.231Z" fill="#FCC3A0"/>
<path d="M207.163 693.183C213.58 688.112 218.35 680.99 220.617 673.14" stroke="#BD5A53" stroke-miterlimit="10" stroke-linecap="round"/>
<path d="M214.628 693.566C221.194 688.305 226.2 681.117 228.874 673.14" stroke="#BD5A53" stroke-miterlimit="10" stroke-linecap="round"/>
<path d="M294.263 485.569C294.904 492.521 287.396 519.473 264.68 532.412C255.569 528.647 248.745 519.578 249.793 512.755C250.392 511.579 250.948 510.381 251.376 509.162C253.131 504.135 252.701 498.786 245.044 492.328C255.376 484.307 265.151 475.129 274.327 465.42C275.91 468.522 277.429 471.281 278.948 473.654C283.804 481.355 288.553 485.27 294.263 485.569Z" fill="#FCC3A0"/>
<path d="M278.927 473.655C277.771 482.339 274.029 490.681 268.253 497.27C263.653 502.511 257.793 506.619 251.376 509.185C253.131 504.158 252.701 498.812 245.044 492.351C255.376 484.331 265.151 475.155 274.327 465.443C275.89 468.543 277.408 471.279 278.927 473.655Z" fill="#EDA180"/>
<path d="M278.799 451.327C281.772 470.449 276.125 489.722 273.772 508.952C273.26 513.081 272.917 517.359 274.114 521.338C275.312 525.317 278.413 528.995 282.5 529.724C287.164 530.558 291.805 527.327 294.137 523.199C296.448 519.05 296.94 514.172 297.346 509.446C298.994 489.681 312.512 494.451 314.651 487.864C317.111 480.356 306.757 468.356 302.908 461.705C298.545 454.155 297.068 443.417 293.112 432.102C288.168 435.199 284.403 446.365 278.799 451.327Z" fill="#9E6237"/>
<path d="M178.714 462.4C179.849 456.002 187.388 451.992 195.552 453.438C203.717 454.886 209.416 461.247 208.281 467.643C207.147 474.041 199.607 478.053 191.442 476.605C183.278 475.157 177.579 468.796 178.714 462.4Z" fill="#EDA180"/>
<path d="M190.309 456.095C183.272 425.1 197.71 395.433 222.543 389.786C247.377 384.159 273.216 404.694 280.233 435.689C287.27 466.684 264.426 500.33 240.597 503.345C215.336 506.532 197.324 487.067 190.309 456.095Z" fill="#FCC3A0"/>
<path d="M276.318 438.791C264.382 436.459 253.43 429.358 247.227 418.642C233.879 434.106 214.906 444.61 193.988 446.814C191.913 449.851 190.801 453.552 190.866 457.23C185.432 452.162 185.069 443.326 188.106 436.546C191.144 429.766 196.876 424.632 202.652 419.947C215.743 409.317 229.838 399.883 245.003 392.524C248.875 390.643 253.325 388.888 257.345 390.406C260.447 391.583 262.542 394.491 264.318 397.315C270.992 407.968 275.976 419.69 276.318 438.791Z" fill="#EDA180"/>
<path d="M295.503 439.711C290.626 441.87 285.771 444.032 279.012 445.935C263.931 437.891 252.68 422.939 248.809 405.658C236.424 426.17 213.814 440.63 191.014 444.46C190.736 449.636 190.885 453.829 191.742 461.721C189.304 459.432 187.23 456.843 185.518 454.042C177.475 440.846 177.369 422.769 183.508 408.311C190.952 390.814 207.507 378.15 225.731 372.654C231.442 370.922 237.496 369.831 243.399 370.729C246.863 371.264 250.307 372.546 253.494 374.644C255.741 376.098 257.857 377.959 259.782 380.206C265.964 377.275 273.622 380.227 278.199 385.297C282.775 390.368 284.958 397.104 287.012 403.629C290.754 415.477 292.445 424.952 295.503 439.711Z" fill="#9E6237"/>
<path d="M253.494 374.685C231.078 373.36 213.238 383.455 200.255 397.616C186.971 412.118 180.49 430.686 185.517 454.042C177.473 440.846 177.368 422.769 183.506 408.311C190.95 390.814 207.506 378.15 225.729 372.654C231.441 370.922 237.495 369.831 243.397 370.729C246.885 371.285 250.308 372.567 253.494 374.685Z" fill="#BA864A"/>
<path d="M231.271 449.163C233.644 444.651 237.409 441.954 241.023 442.169C244.637 442.383 248.017 445.505 249.816 450.277C244.233 445.292 236.853 445.271 231.271 449.163Z" fill="#9E6237"/>
<path d="M208.896 450.981C203.676 442.426 194.137 446.575 193.537 454.039C196.319 449.676 203.763 448.542 208.896 450.981Z" fill="#9E6237"/>
<path d="M206.939 463.437C208.546 462.96 210.387 464.383 211.049 466.613C211.71 468.843 210.943 471.04 209.335 471.516C207.727 471.993 205.887 470.569 205.225 468.339C204.563 466.109 205.331 463.914 206.939 463.437Z" fill="#242A42"/>
<path d="M239.28 459.306C240.888 458.829 242.728 460.25 243.39 462.482C244.052 464.713 243.284 466.91 241.676 467.385C240.068 467.862 238.228 466.441 237.566 464.208C236.904 461.978 237.672 459.781 239.28 459.306Z" fill="#242A42"/>
<path d="M219.634 469.44C218.736 472.563 219.4 476.094 221.39 478.66" stroke="#BD5A53" stroke-miterlimit="10" stroke-linecap="round"/>
<path d="M226.201 486.897C233.858 488.246 239.891 485.229 242.051 477.549" stroke="#BD5A53" stroke-miterlimit="10" stroke-linecap="round"/>
<path d="M270.573 445.434C276.851 439.608 285.514 438.737 289.927 443.49C294.34 448.243 292.827 456.819 286.549 462.647C280.272 468.473 271.608 469.344 267.195 464.591C262.785 459.838 264.297 451.261 270.573 445.434Z" fill="#FCC3A0"/>
<path d="M734.316 842.999C867.397 842.999 975.28 836.1 975.28 827.589C975.28 819.078 867.397 812.179 734.316 812.179C601.234 812.179 493.351 819.078 493.351 827.589C493.351 836.1 601.234 842.999 734.316 842.999Z" fill="#D0DFF2"/>
<path d="M949.786 697.904C949.766 698.612 949.745 699.319 949.703 700.006C948.954 722.508 946.417 744.905 944.816 767.262C932.754 767.365 920.671 768.425 908.526 770.61C906.051 741.308 905.885 711.778 908.005 682.455C908.505 675.405 909.565 667.627 913.121 661.97C914.43 659.891 916.053 658.123 918.113 656.75C926.847 650.989 939.033 656.708 944.419 666.026C949.828 675.361 950.1 686.946 949.786 697.904Z" fill="#36675C"/>
<path d="M949.724 700.007C948.975 722.509 946.438 744.906 944.836 767.263C932.775 767.366 920.692 768.427 908.547 770.611C906.072 741.309 905.906 711.779 908.026 682.456C908.526 675.406 909.586 667.628 913.142 661.971C911.561 679.273 911.126 696.721 915.41 713.44C916.825 718.971 919.964 725.378 925.683 725.689C930.051 725.938 933.627 722.382 936.393 718.971C941.303 713.005 945.753 706.66 949.724 700.007Z" fill="#2B5953"/>
<path d="M917.76 764.184C916.325 749.833 914.912 735.485 913.476 721.135C912.374 709.988 911.25 698.758 912.437 687.632C913.621 676.505 917.242 665.338 925.517 657.207C918.03 666.086 914.453 677.713 913.414 689.275C912.374 700.837 913.704 712.463 915.036 724.004C916.534 737.085 918.051 750.165 919.549 763.246C919.051 763.642 918.592 764.059 917.76 764.184Z" fill="#244F4E"/>
<path d="M929.781 763.933C928.742 730.533 927.702 697.115 927.14 663.155C929.032 696.825 930.219 730.535 930.696 764.267C930.302 764.35 929.802 764.474 929.781 763.933Z" fill="#244F4E"/>
<path d="M943.278 764.122C944.963 736.942 946.606 709.387 941.135 682.726C939.513 674.886 937.162 666.921 933.15 660.932C940.386 671.205 942.986 684.016 944.567 696.493C947.394 718.953 947.415 741.766 944.65 764.247C944.089 764.247 943.569 764.247 943.278 764.122Z" fill="#244F4E"/>
<path d="M968.629 750.209C966.695 758.091 964.054 765.806 961.849 773.232C950.681 775.541 939.513 777.827 930.24 780.885C930.613 760.879 931.072 740.353 938.663 721.845C940.493 717.353 942.822 712.924 946.441 709.721C948.001 708.347 949.851 707.204 951.826 706.497C954.426 705.54 957.233 705.291 959.895 706.08C966.695 708.096 970.002 715.833 970.917 722.882C972.143 732.116 970.834 741.286 968.629 750.209Z" fill="#45826C"/>
<path d="M968.629 750.21C966.695 758.091 964.054 765.807 961.849 773.232C950.681 775.541 939.513 777.827 930.24 780.885C930.613 760.88 931.072 740.353 938.663 721.845C940.493 717.354 942.822 712.924 946.441 709.721C948.001 708.348 949.851 707.205 951.826 706.497C947.19 711.468 943.507 717.354 941.117 723.737C939.64 727.687 938.663 731.868 938.891 736.069C939.119 740.27 940.7 744.492 943.758 747.361C946.92 750.357 951.349 751.645 955.696 751.998C960.061 752.392 964.594 751.809 968.629 750.21Z" fill="#3B7866"/>
<path d="M933.337 777.761C933.462 761.705 934.918 745.569 939.182 730.075C940.449 725.501 941.989 720.903 944.63 716.953C947.271 713.001 951.14 709.675 956.005 709.217C951.117 710.528 947.229 714.354 944.754 718.762C942.279 723.171 941.053 728.142 939.949 733.069C936.684 747.71 934.292 762.662 934.667 777.678C934.169 777.867 933.692 778.053 933.337 777.761Z" fill="#316660"/>
<path d="M946.773 778.844C949.103 756.78 952.617 734.838 957.754 712.754C954.654 734.672 951.078 756.529 946.773 778.844Z" fill="#316660"/>
<path d="M958.273 775.182C959.437 764.139 963.14 753.554 965.178 742.635C967.215 731.737 967.445 719.885 962.182 710.318C965.676 720.862 965.655 732.32 963.825 743.28C961.995 754.241 958.418 764.825 954.842 775.348C955.964 775.661 957.068 775.972 958.273 775.182Z" fill="#316660"/>
<path d="M917.635 773.123C908.714 771.169 901.685 771.19 894.657 771.21C888.958 757.651 884.424 745.589 879.871 733.506C876.794 725.355 873.674 716.745 875.004 708.156C875.483 705.121 876.709 702.125 878.518 699.567C878.539 699.567 878.539 699.546 878.539 699.546C881.846 694.868 886.982 691.644 892.576 692.372C900.768 693.453 905.76 701.855 908.756 709.571C913.685 722.216 916.741 735.587 917.803 749.105C918.426 757.111 918.384 765.138 917.635 773.123Z" fill="#45826C"/>
<path d="M917.78 749.124C918.426 757.109 918.363 765.157 917.635 773.144C908.714 771.19 901.685 771.211 894.657 771.231C888.958 757.672 884.424 745.61 879.871 733.527C876.794 725.376 873.674 716.766 875.004 708.177C875.483 705.14 876.709 702.146 878.518 699.588C877.769 703.455 877.624 707.469 877.997 711.401C878.808 719.386 881.657 726.998 885.339 734.131C887.794 738.915 890.704 743.572 894.74 747.149C898.775 750.726 904.077 753.097 909.463 752.659C912.519 752.389 915.515 751.122 917.78 749.124Z" fill="#3B7866"/>
<path d="M906.176 772.27C894.446 748.646 888.042 722.379 888.291 695.782C889.913 721.674 896.338 747.273 907.112 770.878C906.738 771.438 906.363 772 906.176 772.27Z" fill="#316660"/>
<path d="M913.933 772.353C912.124 755.03 910.294 737.644 906.176 720.715C903.888 711.315 900.56 701.521 893.178 695.635C899.896 703.788 903.639 713.997 906.051 724.271C908.547 734.939 909.753 745.878 910.939 756.774C911.52 762.079 912.103 767.382 913.933 772.353Z" fill="#316660"/>
<path d="M898.982 773.267C892.327 758.585 887.024 743.278 883.115 727.639C881.972 723.023 880.933 718.343 880.806 713.581C880.703 708.818 881.555 703.953 884.072 700.252C880.91 704.495 879.912 709.86 879.829 715.142C879.746 720.424 880.848 725.643 882.138 730.759C885.902 745.649 891.974 759.562 898.215 773.601C898.899 773.497 898.648 773.933 898.982 773.267Z" fill="#316660"/>
<path d="M940.366 664.254C941.364 663.153 942.382 662.049 943.382 660.947" stroke="#65AD82" stroke-miterlimit="10"/>
<path d="M928.596 652.422C928.513 653.586 928.409 654.752 928.326 655.916" stroke="#65AD82" stroke-miterlimit="10"/>
<path d="M915.93 655.539C916.492 656.765 917.031 657.993 917.594 659.219" stroke="#65AD82" stroke-miterlimit="10"/>
<path d="M906.468 675.838C907.486 676.483 908.484 677.126 909.503 677.771" stroke="#65AD82" stroke-miterlimit="10"/>
<path d="M952.24 676.463C950.825 677.482 949.412 678.479 947.977 679.498" stroke="#65AD82" stroke-miterlimit="10"/>
<path d="M932.651 685.216C931.55 686.068 930.467 686.921 929.365 687.774" stroke="#65AD82" stroke-miterlimit="10"/>
<path d="M919.655 673.404C920.424 674.05 921.194 674.693 921.964 675.359" stroke="#65AD82" stroke-miterlimit="10"/>
<path d="M905.408 694.698C906.302 695.385 907.196 696.072 908.09 696.756" stroke="#65AD82" stroke-miterlimit="10"/>
<path d="M923.042 707.592C924.019 708.279 924.996 708.965 925.953 709.65" stroke="#65AD82" stroke-miterlimit="10"/>
<path d="M935.936 710.505C934.876 711.565 933.837 712.604 932.774 713.667" stroke="#65AD82" stroke-miterlimit="10"/>
<path d="M953.28 697.299C951.637 698.463 950.014 699.608 948.371 700.772" stroke="#65AD82" stroke-miterlimit="10"/>
<path d="M961.517 703.913C960.975 705.224 960.436 706.533 959.895 707.822" stroke="#78CF8D" stroke-miterlimit="10"/>
<path d="M945.836 708.655C946.292 709.508 946.751 710.34 947.23 711.193" stroke="#78CF8D" stroke-miterlimit="10"/>
<path d="M969.939 713.5C969.024 714.228 968.089 714.956 967.174 715.683" stroke="#78CF8D" stroke-miterlimit="10"/>
<path d="M973.391 728.369C972.038 728.826 970.709 729.284 969.356 729.763" stroke="#78CF8D" stroke-miterlimit="10"/>
<path d="M971.539 742.656C970.272 742.698 969.002 742.739 967.734 742.781" stroke="#78CF8D" stroke-miterlimit="10"/>
<path d="M960.247 722.711C959.291 723.084 958.334 723.481 957.357 723.854" stroke="#78CF8D" stroke-miterlimit="10"/>
<path d="M958.397 739.619C957.399 740.036 956.401 740.451 955.403 740.866" stroke="#78CF8D" stroke-miterlimit="10"/>
<path d="M948.27 726.852C949.185 727.725 950.121 728.619 951.035 729.493" stroke="#78CF8D" stroke-miterlimit="10"/>
<path d="M933.982 729.285C934.752 729.972 935.522 730.679 936.292 731.364" stroke="#78CF8D" stroke-miterlimit="10"/>
<path d="M929.926 746.481C931.214 746.813 932.401 747.542 933.295 748.519" stroke="#78CF8D" stroke-miterlimit="10"/>
<path d="M946.543 751.867C947.396 752.409 948.228 752.948 949.081 753.49" stroke="#78CF8D" stroke-miterlimit="10"/>
<path d="M890.29 689.854C890.373 690.934 890.435 691.997 890.518 693.078" stroke="#78CF8D" stroke-miterlimit="10"/>
<path d="M878.414 696.321C879.184 697.049 879.953 697.778 880.723 698.504" stroke="#78CF8D" stroke-miterlimit="10"/>
<path d="M873.34 712.919C874.421 713.064 875.481 713.23 876.564 713.377" stroke="#78CF8D" stroke-miterlimit="10"/>
<path d="M884.757 710.837C885.63 711.252 886.524 711.69 887.398 712.105" stroke="#78CF8D" stroke-miterlimit="10"/>
<path d="M886.711 730.655C887.668 730.842 888.624 731.029 889.601 731.238" stroke="#78CF8D" stroke-miterlimit="10"/>
<path d="M879.101 739.597C880.371 739.556 881.638 739.514 882.906 739.473" stroke="#78CF8D" stroke-miterlimit="10"/>
<path d="M884.301 750.372C885.423 750.33 886.527 750.289 887.649 750.247" stroke="#78CF8D" stroke-miterlimit="10"/>
<path d="M893.055 750.079C894.322 750.183 895.592 750.307 896.86 750.411" stroke="#78CF8D" stroke-miterlimit="10"/>
<path d="M900.084 692.743C899.669 694.011 899.231 695.28 898.816 696.548" stroke="#78CF8D" stroke-miterlimit="10"/>
<path d="M911.604 710.961C910.606 711.917 909.608 712.874 908.608 713.851" stroke="#78CF8D" stroke-miterlimit="10"/>
<path d="M918.177 730.553C916.824 731.364 915.494 732.175 914.142 732.966" stroke="#78CF8D" stroke-miterlimit="10"/>
<path d="M919.8 746.232C918.449 746.815 917.117 747.376 915.765 747.959" stroke="#78CF8D" stroke-miterlimit="10"/>
<path d="M909.651 720.049C909.005 720.736 908.339 721.443 907.696 722.128" stroke="#78CF8D" stroke-miterlimit="10"/>
<path d="M970.001 755.82V787.432C970.001 806.045 954.904 821.142 936.29 821.142H914.537C895.926 821.142 880.827 806.045 880.827 787.432V755.82H970.001Z" fill="#F47F59"/>
<path d="M970.001 766.679H880.827V780.488H970.001V766.679Z" fill="#75203B"/>
<path d="M854.706 619.027C850.173 620.046 845.659 621.065 841.125 622.083C839.858 610.812 838.567 599.52 837.3 588.248C841.501 587.875 845.889 587.458 849.528 584.858C854.478 581.323 857.223 574.336 862.09 570.591C863.191 585.605 864.316 600.6 865.417 615.615C862.419 616.803 859.405 617.967 854.706 619.027Z" fill="#AA6148"/>
<path d="M882.405 623.579C889.682 623.121 896.713 620.293 901.765 615.822C906.798 611.351 909.792 605.237 909.999 599.04C910.062 596.879 909.416 594.258 907.006 593.572C903.053 592.449 898.958 603.679 897.668 606.86C896.149 610.602 880.614 601.432 877.641 604.488C873.691 608.524 883.778 617.527 882.405 623.579Z" fill="#9C4C3E"/>
<path d="M913.474 543.659C913.267 543.949 913.057 544.242 912.85 544.511C905.321 554.515 894.049 561.648 881.469 564.061C879.452 551.374 882.842 537.92 890.62 527.709C896.215 520.369 903.991 514.774 912.684 511.674H912.705C916.115 510.448 919.63 509.637 923.227 509.22C924.123 521.365 920.609 533.781 913.474 543.659Z" fill="#36675C"/>
<path d="M913.474 543.659C917.987 533.74 921.773 523.425 921.501 512.63C918.381 511.861 915.449 511.57 912.705 511.674C916.115 510.448 919.63 509.637 923.227 509.22C924.123 521.365 920.609 533.781 913.474 543.659Z" fill="#4C8A75"/>
<path d="M893.53 553.703C899.541 538.272 908.982 524.194 921.355 512.881C908.026 523.196 897.794 537.482 892.346 553.434C892.846 553.62 893.323 553.807 893.53 553.703Z" fill="#274A4F"/>
<path d="M891.202 535.215C888.04 544.76 880.679 553.204 870.779 553.911C863.958 542.057 861.026 528.02 862.543 514.439C863.126 509.365 864.311 504.373 866.057 499.57C868.989 491.523 873.483 484.056 879.283 477.776C881.675 482.351 884.024 486.969 886.084 491.689C888.059 496.18 889.806 500.757 891.075 505.477C893.739 515.168 894.362 525.669 891.202 535.215Z" fill="#36675C"/>
<path d="M886.086 491.668C883.86 488.361 881.574 485.096 879.265 481.833C874.483 487.428 870.051 493.353 866.06 499.55C868.991 491.502 873.485 484.036 879.285 477.756C881.677 482.33 884.026 486.949 886.086 491.668Z" fill="#4C8A75"/>
<path d="M879.473 481.126C873.421 505.022 872.817 530.268 877.705 554.433C878.164 554.392 878.599 554.371 879.058 554.33C874.44 530.538 874.67 505.831 879.473 481.126Z" fill="#274A4F"/>
<path d="M866.913 563.416C860.112 559.694 853.978 554.765 848.696 548.879C839.358 538.523 832.725 525.193 829.999 510.177C834.804 509.866 839.627 510.594 844.14 512.214C851.293 514.772 857.72 519.533 862.108 525.898C869.282 536.319 870.801 550.605 866.913 563.416Z" fill="#36675C"/>
<path d="M848.696 548.879C839.358 538.523 832.725 525.193 829.999 510.177C834.804 509.866 839.627 510.594 844.14 512.214C840.439 511.756 836.694 511.673 832.993 511.944C835.779 520.845 838.565 529.747 842.58 538.168C844.349 541.892 846.387 545.51 848.696 548.879Z" fill="#4C8A75"/>
<path d="M866.851 556.428C859.405 539.167 847.26 523.967 832.101 512.882C845.015 521.012 855.849 532.431 863.316 545.761C865.394 549.503 867.286 553.58 866.851 556.428Z" fill="#274A4F"/>
<path d="M908.109 529.29C907.485 532.66 906.508 535.925 905.199 539.023C900.894 549.296 892.95 557.844 882.386 562.688C878.54 549.919 877.957 536.257 880.349 523.363C882.865 509.679 888.709 496.889 897.485 487.032C906.696 498.594 910.75 514.753 908.109 529.29Z" fill="#529E86"/>
<path d="M908.11 529.29C907.485 532.659 906.508 535.925 905.199 539.022C906.801 532.618 906.925 525.817 906.031 519.245C904.743 509.948 901.477 501.028 897.67 492.459C889.685 501.297 883.737 511.965 880.368 523.384C882.884 509.7 888.728 496.909 897.504 487.053C906.697 498.594 910.751 514.753 908.11 529.29Z" fill="#65B892"/>
<path d="M885.608 555.909C892.762 535.862 896.942 514.755 897.982 493.5C897.836 514.566 893.697 535.924 887.021 555.909C886.503 555.93 886.606 555.64 885.608 555.909Z" fill="#327868"/>
<path d="M873.649 565.307C865.289 558.735 857.699 550.749 852.853 541.37C851.48 538.667 850.295 535.839 849.422 532.926C845.451 519.804 847.03 504.643 853.623 492.685C860.61 498.236 866.392 505.62 870.425 514.043C872.131 517.557 873.525 521.238 874.564 525.065C878.164 538.044 877.83 552.372 873.649 565.307Z" fill="#529E86"/>
<path d="M870.427 514.045C865.874 507.286 860.32 501.213 853.998 496.118C848.301 510.448 847.926 526.792 852.876 541.37C851.505 538.667 850.318 535.839 849.445 532.926C845.472 519.804 847.053 504.643 853.646 492.685C860.631 498.24 866.392 505.622 870.427 514.045Z" fill="#65B892"/>
<path d="M872.34 557.758C863.085 537.086 859.177 519.514 855.121 499.716C857.116 519.784 863.585 539.561 871.176 558.258C872.236 558.009 871.736 557.758 872.34 557.758Z" fill="#327868"/>
<path d="M910.022 549.795L909.648 554.953L909.231 561.108L908.858 566.328L908.443 572.504L908.088 577.724L907.652 583.902L907.298 589.122L906.862 595.298L906.507 600.518L906.092 606.694L905.843 610.084H850.919L850.67 606.694L850.253 600.518L849.901 595.298L849.465 589.122L849.11 583.902L848.695 577.724L848.32 572.504L847.905 566.328L847.529 561.108L847.115 554.953L846.76 549.795H910.022Z" fill="#F37E5B"/>
<path d="M909.647 554.953L909.23 561.109H847.529L847.114 554.953H909.647Z" fill="#75203B"/>
<path d="M908.857 566.329L908.442 572.505H848.319L847.904 566.329H908.857Z" fill="#75203B"/>
<path d="M908.088 577.723L907.652 583.901H849.11L848.695 577.723H908.088Z" fill="#75203B"/>
<path d="M907.296 589.122L906.86 595.298H849.899L849.463 589.122H907.296Z" fill="#75203B"/>
<path d="M906.506 600.518L906.091 606.694H850.669L850.252 600.518H906.506Z" fill="#75203B"/>
<path d="M851.315 619.378C857.867 621.791 864.583 623.953 871.529 624.515C878.475 625.078 885.752 623.912 891.597 620.107C897.441 616.302 900.435 609.439 901.891 602.597C902.889 597.939 898.522 593.448 895.09 600.808C891.555 608.358 889.039 609.522 883.86 612.101C880.595 609.294 876.269 607.754 871.964 607.858C867.659 607.962 863.292 609.418 860.382 612.599C860.382 612.58 853.873 617.341 851.315 619.378Z" fill="#AA6148"/>
<path d="M846.759 628.531C846.448 615.409 846.156 598.69 845.844 585.586C826.191 586.939 797.203 591.804 789.3 585.19C779.9 577.308 764.637 513.484 751.971 506.538C738.891 499.364 729.947 523.133 726.412 534.218C724.644 565.35 750.847 618.255 763.409 625.888C779.338 635.56 810.949 634.77 846.759 628.531Z" fill="#EDA73E"/>
<path d="M591.758 790.2C591.758 790.2 582.109 805.297 575.599 818.65C559.628 821.791 537.77 824.888 522.193 827.342C518.262 827.967 513.417 828.05 510.194 826.282C508.654 825.45 507.49 824.183 506.949 822.374C505.638 817.944 509.465 813.785 512.917 810.729C529.45 796.129 545.983 781.53 562.537 766.931C565.219 764.56 570.335 760.589 573.87 759.944C576.843 759.423 579.715 762.149 582.231 766.182C587.785 775.039 591.758 790.2 591.758 790.2Z" fill="#29324D"/>
<path d="M582.213 766.159C555.282 782.297 530.868 802.656 510.175 826.28C508.636 825.448 507.472 824.18 506.931 822.371C505.62 817.942 509.447 813.782 512.899 810.726C529.432 796.127 545.965 781.528 562.519 766.929C565.201 764.557 570.317 760.586 573.852 759.941C576.827 759.4 579.697 762.144 582.213 766.159Z" fill="#596D85"/>
<path d="M783.436 792.404C783.436 792.404 800.552 787.101 814.153 781.111C828.377 789.014 847.074 800.764 860.571 808.936C863.982 810.994 867.725 814.052 869.057 817.484C869.702 819.127 869.785 820.832 869.015 822.579C867.144 826.801 861.548 827.529 856.932 827.633C834.869 828.11 812.824 828.589 790.76 829.069C787.183 829.152 780.714 828.882 777.596 827.094C774.976 825.575 774.559 821.646 775.225 816.944C776.698 806.526 783.436 792.404 783.436 792.404Z" fill="#29324D"/>
<path d="M775.223 816.902C806.21 821.956 838.005 822.164 869.054 817.465C869.7 819.108 869.783 820.813 869.013 822.56C867.142 826.782 861.546 827.51 856.93 827.614C834.867 828.093 812.821 828.57 790.758 829.049C787.181 829.132 780.712 828.863 777.594 827.074C774.972 825.554 774.557 821.601 775.223 816.902Z" fill="#596D85"/>
<path d="M865.395 683.141C858.011 721.719 852.065 755.658 844.765 793.798C819.06 799.788 797.079 798.748 774.93 798.956C785.598 772.357 792.774 739.208 796.289 713.9C773.58 709.118 748.686 708.804 725.166 714.96C734.525 747.611 743.301 779.427 748.562 811.787C749.705 818.796 750.516 826.656 746.315 832.397C741.012 839.675 730.51 840.092 721.525 839.654C679.933 837.554 614.675 832.687 574.247 822.706C573.207 809.209 580.236 786.375 585.829 769.925C609.87 772.025 638.88 775.853 664.126 772.172C656.597 756.013 649.402 735.571 644.079 715.815C637.778 692.398 634.137 669.917 635.845 656.671C670.074 648.123 704.306 639.555 739.139 633.879C745.087 633.42 763.304 635.377 783.976 638.412C818.06 643.383 858.883 651.223 862.607 655.88C868.557 663.239 867.183 673.845 865.395 683.141Z" fill="#709BCF"/>
<path d="M784.04 638.389C771.374 664.53 747.314 684.432 720.695 696.514C696.633 707.433 670.472 712.653 644.145 715.792C637.844 692.375 634.205 669.895 635.91 656.648C670.142 648.101 704.371 639.532 739.205 633.856C745.13 633.418 763.347 635.373 784.04 638.389Z" fill="#5C79BD"/>
<path d="M800.967 712.507C811.282 710.032 820.869 704.584 828.25 696.993C823.865 707.163 812.489 713.818 800.967 712.507Z" fill="#5C79BD"/>
<path d="M800.345 715.335C810.515 720.119 822.118 721.802 833.224 720.076C827.4 722.965 820.954 725.109 814.485 724.38C808.04 723.654 801.654 719.412 800.345 715.335Z" fill="#5C79BD"/>
<path d="M665.667 774.188C664.378 786.854 669.681 800.018 679.393 808.252C673.694 804.3 667.872 800.08 664.42 794.049C660.968 788.018 660.592 779.659 665.667 774.188Z" fill="#5C79BD"/>
<path d="M658.43 776.788C651.028 787.956 648.156 802.055 650.631 815.219C647.949 808.045 645.225 800.661 645.474 793.008C645.723 785.377 649.716 777.33 658.43 776.788Z" fill="#5C79BD"/>
<path d="M643.771 659.849C645.372 700.047 654.814 739.936 671.43 776.599C667.583 775.205 662.861 778.553 662.695 782.858C661.428 780.759 659.015 779.406 656.561 779.406C654.106 779.406 651.694 780.756 649.822 783.231C630.752 781.651 610.85 781.026 591.78 779.447" stroke="#434F8C" stroke-miterlimit="10" stroke-linecap="round"/>
<path d="M594.752 772.149C588.076 787.705 583.397 804.487 582.856 821.416" stroke="#434F8C" stroke-miterlimit="10" stroke-linecap="round"/>
<path d="M661.59 670.143C665.125 677.941 667.849 686.53 666.393 694.974C664.937 703.418 659.696 711.714 651.148 712.027" stroke="#434F8C" stroke-miterlimit="10" stroke-linecap="round"/>
<path d="M781.106 790.741C802.382 791.135 823.697 789.305 844.597 785.313" stroke="#434F8C" stroke-miterlimit="10" stroke-linecap="round"/>
<path d="M725.373 714.315C726.08 708.45 732.692 705.436 738.453 704.021C761.475 698.342 786.346 700.506 808.765 711.132C806.79 711.653 805.292 713.566 805.271 715.603C805.25 717.641 806.727 719.597 808.078 720.074C799.634 742.161 794.997 765.681 794.456 789.326" stroke="#434F8C" stroke-miterlimit="10" stroke-linecap="round"/>
<path d="M698.484 641.259C715.037 659.082 725.749 682.247 728.577 706.413" stroke="#434F8C" stroke-miterlimit="10" stroke-linecap="round"/>
<path d="M715.683 641.777C720.509 646.393 725.353 651.074 729.013 656.646C737.332 669.312 736.145 687.071 726.309 690.647" stroke="#434F8C" stroke-miterlimit="10" stroke-linecap="round"/>
<path d="M781.254 633.854C760.312 664.403 735.149 683.515 710.755 690.44C686.383 697.345 655.541 704.539 632.583 694.017C633.145 686.905 631.813 664.237 630.274 636.744C627.343 583.152 623.743 511.239 632.228 500.405C637.697 493.418 651.112 489.675 667.207 488.592C690.27 486.991 718.886 490.837 737.601 498.345C747.896 502.463 755.194 507.683 756.941 513.735C760.206 525.006 760.038 586.19 747.873 618.361C750.286 616.988 753.696 617.82 755.215 620.149C756.734 622.458 756.109 625.911 754.321 628.531C756.462 629.715 763.97 630.923 770.542 631.921C775.721 632.711 780.297 633.377 781.254 633.854Z" fill="#F4BB4F"/>
<path d="M737.623 498.347C736.728 504.46 734.816 510.408 731.965 515.877C728.617 522.302 723.252 528.522 716.077 529.437C709.86 530.227 703.912 526.879 698.796 523.24C685.985 514.091 675.151 502.195 667.228 488.594C690.292 486.992 718.907 490.818 737.623 498.347Z" fill="#EDA73E"/>
<path d="M781.254 633.854C760.313 664.403 735.149 683.514 710.756 690.44C686.383 697.344 655.541 704.539 632.583 694.016C633.146 686.904 631.814 663.529 630.274 636.036C654.004 683.139 730.199 679.334 770.524 631.897C775.721 632.711 780.298 633.377 781.254 633.854Z" fill="#F0AC46"/>
<path d="M730.157 497.265C727.869 513.173 726.518 523.468 714.415 521.244C702.187 518.997 679.102 501.321 673.571 489.8C678.625 486.452 681.787 479.631 683.866 471.956C685.675 465.218 686.673 457.816 687.401 451.492C700.668 458.521 714.601 464.303 729.742 469.461C727.537 476.927 724.854 486.576 727.891 493.668C728.431 494.958 729.18 496.163 730.157 497.265Z" fill="#AA6148"/>
<path d="M727.87 493.647C711.109 492.649 694.763 484.685 683.844 471.936C685.653 465.197 686.651 457.795 687.379 451.472C700.646 458.501 714.58 464.283 729.72 469.44C727.517 476.907 724.832 486.556 727.87 493.647Z" fill="#9C483A"/>
<path d="M758.687 430.646C766.766 428.154 774.886 431.231 776.826 437.521C778.765 443.809 773.79 450.928 765.712 453.421C757.633 455.913 749.513 452.834 747.573 446.546C745.633 440.256 750.608 433.138 758.687 430.646Z" fill="#9C483A"/>
<path d="M674.505 423.025C676.397 392.122 699.938 369.102 724.852 371.45C749.767 373.801 767.608 400.669 764.718 431.488C761.828 462.309 753.219 486.513 727.493 486.513C698.525 486.516 672.343 458.628 674.505 423.025Z" fill="#AA6148"/>
<path d="M689.418 428.66C695.241 422.587 699.399 414.913 701.583 406.534C704.703 408.926 708.903 409.861 712.751 409.009C716.597 408.177 720.008 405.577 722.483 402.519C724.792 404.973 728.056 406.492 731.425 406.637C734.794 406.803 738.184 405.619 740.763 403.351C742.945 405.515 745.983 406.824 749.061 406.907C752.14 407.011 755.237 405.909 758.233 404.245C761.955 412.044 764.409 420.446 765.428 429.014C766.385 416.89 765.075 404.6 761.582 392.953C760.729 390.146 759.524 387.067 756.841 385.862C755.281 385.154 753.493 385.237 751.767 385.32C733.529 386.235 715.27 387.171 697.031 388.086C695.868 388.148 694.639 388.231 693.725 388.918C692.498 389.833 692.206 391.538 692.019 393.057C690.395 405.098 688.814 417.118 689.418 428.66Z" fill="#9C483A"/>
<path d="M772.727 396.364C772.789 398.173 772.247 399.961 771.291 401.48C770.459 402.791 769.274 403.892 767.901 404.6C769.127 412.793 766.965 429.639 763.887 437.645C765.945 409.112 758.397 399.816 757.627 397.841C755.735 401.897 751.493 402.957 748.269 402.436C745.503 401.978 741.219 400.274 740.553 396.613C739.68 400.627 736.748 403.038 731.611 403.455C726.392 403.849 722.545 400.21 720.527 396.903C719.301 399.959 718.321 403.058 712.396 404.494C705.992 406.033 700.625 402.996 699.44 401.791C696.154 421.963 689.957 428.867 689.957 428.867C689.957 428.867 681.098 444.132 682.573 459.291C674.609 458.397 670.97 454.341 669.223 450.14C667.476 445.918 668.785 442.093 670.825 437.995C667.518 434.128 664.314 430.031 663.42 425.164C662.526 420.297 664.626 414.6 669.223 412.77C663.92 408.216 662.485 401.789 664.356 396.362C666.227 390.934 671.323 386.754 677.022 385.984C676.335 382.47 676.98 378.769 678.644 375.607C679.829 373.319 681.575 371.302 683.739 369.846C688.855 366.393 696.05 366.331 701.208 369.68C702.455 364.543 705.305 360.945 708.986 359.24C712.666 357.514 717.033 357.555 720.861 358.95C724.666 360.344 727.931 363.026 730.427 366.227C733.109 362.109 738.974 359.865 744.173 361.111C749.372 362.379 753.553 367.059 754.219 372.362C759.48 371.572 763.536 373.505 765.949 376.75C768.362 379.995 769.048 384.445 767.737 388.27C770.397 389.812 772.602 393.015 772.727 396.364Z" fill="#3D1F24"/>
<path d="M772.727 396.364C772.789 398.173 772.247 399.961 771.291 401.48C769.42 397.009 765.719 393.246 761.121 391.644C761.746 389.522 761.932 387.319 761.476 385.196C760.997 383.076 759.812 381.078 757.941 379.956C756.09 378.833 753.532 378.792 751.848 380.122C750.622 375.317 746.524 372.178 742.032 371.699C737.541 371.222 732.861 373.425 730.388 377.209C729.701 371.489 724.191 367.267 718.429 367.288C712.668 367.309 707.199 371.572 705.743 377.145C700.127 372.943 693.805 371.551 687.795 372.404C684.592 372.863 681.495 373.964 678.686 375.566C679.87 373.277 681.617 371.261 683.781 369.805C688.897 366.352 696.092 366.29 701.249 369.639C702.496 364.502 705.347 360.904 709.027 359.199C712.708 357.473 717.075 357.514 720.902 358.909C724.707 360.303 727.973 362.985 730.468 366.186C733.151 362.068 739.016 359.823 744.215 361.07C749.414 362.338 753.594 367.018 754.26 372.321C759.522 371.531 763.578 373.464 765.99 376.709C768.403 379.954 769.09 384.404 767.779 388.229C770.397 389.812 772.602 393.016 772.727 396.364Z" fill="#593235"/>
<path d="M664.06 433.468C666.768 427.47 675.209 425.426 682.914 428.905C690.62 432.385 694.669 440.067 691.962 446.065C689.254 452.063 680.813 454.106 673.108 450.627C665.402 447.148 661.353 439.465 664.06 433.468Z" fill="#AA6148"/>
<path d="M720.508 422.129C719.406 417.845 715.06 414.642 710.628 414.872C706.199 415.1 702.205 418.741 701.625 424.168C706.637 419.882 714.373 419.133 720.508 422.129Z" fill="#3D1F24"/>
<path d="M762.162 422.918C761.165 418.447 757.15 414.954 752.887 414.871C748.623 414.788 744.484 418.074 743.924 422.918C749.455 419.215 757.109 419.673 762.162 422.918Z" fill="#3D1F24"/>
<path d="M717.972 444.11C720.062 444.11 721.756 442.145 721.756 439.722C721.756 437.298 720.062 435.334 717.972 435.334C715.882 435.334 714.188 437.298 714.188 439.722C714.188 442.145 715.882 444.11 717.972 444.11Z" fill="#1D243B"/>
<path d="M749.25 444.11C751.34 444.11 753.034 442.145 753.034 439.722C753.034 437.298 751.34 435.334 749.25 435.334C747.16 435.334 745.466 437.298 745.466 439.722C745.466 442.145 747.16 444.11 749.25 444.11Z" fill="#1D243B"/>
<path d="M739.224 441.406C740.015 445.836 739.641 450.454 738.164 454.694" stroke="#7A2530" stroke-miterlimit="10" stroke-linecap="round"/>
<path d="M737.477 461.393C730.573 460.872 720.403 457.547 715.559 454.696C713.439 458.211 713.853 462.995 716.287 466.3C718.721 469.607 722.922 471.271 727.038 471.271C735.896 471.271 737.477 464.949 737.477 461.393Z" fill="white"/>
<path d="M795.105 526.379C792.796 535.613 792.111 546.156 793.837 554.725C794.003 555.577 789.761 552.687 788.265 545.262C787.391 540.957 788.203 529.041 788.203 529.041C788.203 529.041 793.003 526.586 795.105 526.379Z" fill="#B8252A"/>
<path d="M786.161 629.176C785.891 630.465 785.536 631.255 785.08 631.465C775.618 635.77 731.695 631.61 725.812 624.104C724.648 622.627 725.187 618.322 726.83 612.353C728.204 607.258 730.386 600.978 732.944 594.219C733.173 593.636 733.401 593.034 733.631 592.451C733.714 592.223 733.797 591.972 733.901 591.744C735.023 588.812 736.231 585.775 737.478 582.761C745.525 563.025 754.967 542.728 757.296 537.758C757.649 537.009 757.838 536.594 757.838 536.594L762.33 536.843L782.481 537.965C782.481 537.965 782.522 538.486 782.605 539.463C782.75 541.127 782.999 544.121 783.312 548.031C783.582 551.442 783.916 555.56 784.248 560.135C784.559 564.439 784.893 569.097 785.204 573.943C785.453 577.707 785.704 581.555 785.912 585.402C786.972 604.138 787.534 622.77 786.161 629.176Z" fill="#B8D5E6"/>
<path d="M786.161 629.176C771.23 631.11 737.206 627.118 732.09 620.566C726.994 614.015 754.923 552.75 762.327 536.819L782.478 537.942C782.46 537.942 789.26 614.701 786.161 629.176Z" fill="#D7F1FA"/>
<path d="M798.389 516.251C798.036 520.826 797.744 525.297 797.806 530.164C796.038 530.205 794.52 530.267 793.042 530.309C789.86 530.454 786.825 530.767 782.997 531.12C782.831 534.031 783.018 535.861 782.81 539.439C775.198 538.815 764.531 538.004 756.628 537.672C756.774 535.114 757.274 532.888 757.481 529.207C755.172 527.981 751.222 526.877 750.763 525.61C750.39 524.55 755.548 513.942 757.168 513.444C759.288 512.778 774.574 514.193 793.04 515.774C794.812 515.961 796.58 516.106 798.389 516.251Z" fill="#E83E35"/>
<path d="M798.389 516.249C798.036 520.824 797.744 525.295 797.806 530.162C796.038 530.204 794.52 530.266 793.042 530.307V515.791C794.812 515.959 796.58 516.104 798.389 516.249Z" fill="#FC7262"/>
<path d="M738.474 588.642C736.956 589.681 735.416 590.7 733.9 591.741C733.609 591.928 733.337 592.138 733.047 592.304C732.923 592.387 732.819 592.47 732.674 592.553C724.002 598.397 715.33 604.26 706.678 610.104C705.805 597.106 704.952 580.366 704.1 567.369C712.168 565.518 717.659 564.207 724.334 562.087C726.954 561.255 729.74 560.298 732.943 559.114C733.381 558.968 733.796 558.823 734.232 558.657C736.478 568.203 736.478 575.252 737.456 582.719C737.725 584.648 738.039 586.605 738.474 588.642Z" fill="#AA6148"/>
<path d="M729.033 590.719C743.383 598.165 763.117 587.018 763.117 587.018C763.117 587.018 769.876 588.141 777.674 587.456C780.129 587.249 782.604 586.935 784.849 585.937C787.095 584.939 789.091 583.13 789.778 580.78C790.465 578.429 789.529 575.539 787.324 574.458C790.131 572.691 792.253 570.029 792.46 567.139C792.668 564.249 790.983 561.315 788.384 560.069C790.525 558.591 792.002 556.285 792.064 553.892C792.126 551.5 790.734 549.129 788.633 548.007C792.709 547.444 793.187 546.864 795.516 546.301C797.846 545.739 800.091 544.513 801.381 542.476C802.649 540.459 802.711 537.588 801.132 535.8C799.865 534.364 797.846 533.866 795.954 533.449C785.68 531.287 775.22 529.935 764.739 529.435C755.86 533.49 740.346 553.185 729.033 562.645C724.624 577.556 725.997 581.091 729.033 590.719Z" fill="#AA6148"/>
<path d="M787.181 548.129C781.212 548.046 773.351 547.317 767.382 547.234" stroke="#7A2530" stroke-miterlimit="10" stroke-linecap="round"/>
<path d="M787.18 560.296C781.067 559.796 773.164 559.985 767.092 560.817" stroke="#7A2530" stroke-miterlimit="10" stroke-linecap="round"/>
<path d="M787.18 574.104C782.209 573.606 774.203 572.94 769.232 573.252" stroke="#7A2530" stroke-miterlimit="10" stroke-linecap="round"/>
<path d="M732.694 592.553C724.022 598.397 715.35 604.26 706.699 610.104C705.825 597.107 704.973 580.367 704.12 567.369C712.188 565.518 717.68 564.207 724.354 562.087C725.352 564.666 726.288 567.265 727.161 569.885C729.553 577.163 731.383 584.609 732.63 592.159C732.653 592.302 732.673 592.426 732.694 592.553Z" fill="#9C483A"/>
<path d="M726.331 606.466C704.536 628.26 663.069 639.47 650.32 635.144C636.366 630.403 625.968 594.114 623.285 539.314C622.723 527.794 623.036 515.691 628.588 505.562C634.119 495.434 646.368 488.135 656.975 492.378C662.527 493.855 666.708 498.699 668.871 504.023C671.035 509.346 671.512 515.191 671.971 520.931C673.176 536.258 676.9 552.457 677.481 568.117C695.927 565.144 704.059 562.355 721.486 556.99C724.604 573.461 726.331 606.466 726.331 606.466Z" fill="#EDA73E"/>
<path d="M673.134 568.179C662.236 567.783 651.651 575.915 649.217 586.542C656.205 578.577 665.001 572.214 673.134 568.179Z" fill="#DB8539"/>
<path d="M677.209 569.99C671.969 573.733 668.392 579.722 667.581 586.108C666.77 592.492 668.724 599.189 672.842 604.118C671.326 592.033 673.591 579.515 677.209 569.99Z" fill="#DB8539"/>
</svg>
