<svg width="41" height="41" viewBox="0 0 41 41" fill="none" xmlns="http://www.w3.org/2000/svg">
<path d="M12.4557 25.8675C12.4557 25.8675 6.99038 29.0409 8.29008 37.9994C8.29008 37.9994 12.8001 38.024 14.8706 39.7255C16.9411 41.427 26.1128 35.5435 20.1309 27.2205C20.1309 27.2205 22.0169 35.2401 29.3805 35.1909C29.3805 35.1909 31.9881 34.6292 33.3698 35.1909C34.7515 35.7526 38.6096 24.2644 29.6224 22.1857C29.6224 22.1857 34.5957 21.3657 36.5924 16.663C36.5924 16.663 36.8999 14.8877 39.5075 14.121C39.5075 14.121 27.1255 2.82957 22.4228 13.998C22.4228 13.998 23.6241 8.37688 20.6721 5.87998C20.6721 5.87998 16.6459 1.87838 16.9534 0.484375C16.9534 0.484375 5.88338 6.01118 14.8706 16.663C14.8706 16.663 11.2749 11.8209 5.90798 13.793C0.541083 15.7651 3.27988 22.2349 0.844482 23.2394C0.844482 23.2394 6.42048 28.8687 12.4557 25.8675Z" fill="white"/>
<path d="M17.8512 19.1074C17.8512 19.1074 15.7438 17.3649 14.8705 18.6974C13.9972 20.0299 16.1005 20.7884 16.1005 20.7884C16.1005 20.7884 13.825 19.747 13.5298 21.7314C13.2346 23.7158 15.6864 22.7605 15.6864 22.7605C15.6864 22.7605 13.374 23.5231 14.8664 24.7449C16.3588 25.9667 17.1009 24.0684 17.1009 24.0684C17.1009 24.0684 16.6909 26.5981 18.54 25.9093C20.3891 25.2205 20.4383 23.2648 19.36 23.232C19.36 23.232 21.4879 25.9093 22.1767 23.8962C22.8655 21.8831 20.1759 21.7314 20.1759 21.7314C20.1759 21.7314 23.1484 22.6867 23.4928 21.2476C23.8372 19.8085 20.6556 18.7876 20.1759 20.2431C20.1759 20.2431 22.3407 17.9676 20.672 17.5658C19.0033 17.164 17.556 17.3649 17.8512 19.1074Z" fill="#EDC06F"/>
</svg>
