<svg width="230" height="72" viewBox="0 0 230 72" fill="none" xmlns="http://www.w3.org/2000/svg">
<path d="M36.2146 50.2065H6.21843C5.73598 50.2065 5.2845 50.4072 4.97946 50.7571C4.67442 51.107 4.53715 51.5816 4.60298 52.0594L7.56072 69.4369C7.69477 70.3656 8.53088 71.0911 9.47009 71.0911H32.9633C33.9024 71.0911 34.7385 70.3657 34.8727 69.437L37.8271 52.0809L37.8304 52.0594C37.8961 51.5816 37.759 51.107 37.4541 50.7571C37.1489 50.4072 36.6972 50.2065 36.2146 50.2065Z" fill="#F7F3F3"/>
<path d="M38.2304 36.9836H21.7632V28.3508C21.788 28.3301 21.813 28.3096 21.8376 28.2856C22.7992 27.3486 24.3814 26.8465 26.2133 26.2649C29.5546 25.2045 33.7127 23.8845 36.2974 19.0789C37.6916 16.4863 38.4247 12.9578 38.3616 9.14295C38.3113 6.09095 37.7379 3.13802 36.9353 1.79493C36.5839 1.20698 36.1695 0.908936 35.7034 0.908936C35.4556 0.908936 35.0934 0.997237 34.776 1.41741C33.9948 2.45145 32.3132 2.97461 30.366 3.58021C27.0305 4.61758 22.8795 5.90872 20.3843 10.5471C19.1272 12.8844 18.5387 15.6924 18.386 18.385C17.776 17.3875 16.9626 16.4175 15.8594 15.5152C12.4279 12.7096 7.24226 11.7141 3.84404 11.7141C1.67963 11.7141 0.415324 12.0883 0.0863164 12.826C0.00466656 13.0092 -0.135928 13.4897 0.320027 13.9971C1.05923 14.8201 1.22609 16.3388 1.41966 18.0974C1.75532 21.1504 2.1732 24.95 5.76729 27.889C9.13282 30.6409 14.0334 31.6218 17.4973 31.6218C17.9846 31.6218 18.5118 31.6024 19.0199 31.5475V36.9838H4.20298C3.2272 36.9838 2.43329 37.7776 2.43329 38.7534V45.645C2.43329 46.6207 3.2272 47.4145 4.20298 47.4145H38.2304C39.2062 47.4145 40 46.6207 40 45.645V38.7534C40 37.7774 39.2062 36.9836 38.2304 36.9836ZM16.4846 26.5394L16.4255 26.4781L16.4107 26.4628L16.407 26.4588C16.403 26.4541 16.4289 26.4861 16.4162 26.4712L16.4089 26.4648L16.3802 26.4389C16.3037 26.3703 16.2263 26.3009 16.1481 26.2306C15.9833 26.0977 15.8219 25.9582 15.6443 25.8284C14.9444 25.3011 14.1195 24.8224 13.2381 24.3615C12.3598 23.8969 11.4301 23.4426 10.5704 22.915C10.1407 22.6523 9.73028 22.3694 9.35621 22.069C8.98259 21.7689 8.65037 21.4408 8.37951 21.1066C8.11093 20.77 7.89603 20.435 7.75888 20.1125C7.72092 20.0351 7.69053 19.9563 7.66381 19.8794C7.63571 19.8036 7.61048 19.7302 7.58709 19.66C7.54959 19.5145 7.51588 19.3845 7.49294 19.2647C7.47482 19.141 7.46129 19.0331 7.45177 18.9404C7.44225 18.8486 7.44799 18.7717 7.44638 18.7084C7.44856 18.5818 7.44971 18.5143 7.44971 18.5143C7.44971 18.5143 7.4856 18.5714 7.55315 18.6784C7.58743 18.7311 7.62379 18.8014 7.6747 18.8745C7.72482 18.9447 7.78227 19.0256 7.84672 19.1159C7.91598 19.2008 7.99247 19.2949 8.07607 19.3972C8.17217 19.4895 8.25416 19.5988 8.36815 19.696C8.42182 19.7455 8.4771 19.7966 8.53386 19.8494C8.59418 19.8981 8.65611 19.9482 8.71964 19.9997C8.78053 20.0517 8.85209 20.0984 8.91952 20.1493C8.98672 20.2002 9.05759 20.25 9.13454 20.2964C9.43086 20.4918 9.76641 20.6807 10.1411 20.8615C10.5138 21.045 10.9223 21.2213 11.354 21.4051C12.217 21.7716 13.1786 22.1633 14.1327 22.6625C14.6086 22.9125 15.0817 23.1925 15.5303 23.5068C15.9792 23.8207 16.4023 24.1727 16.7779 24.5534C16.967 24.7417 17.1404 24.9425 17.3024 25.1432C17.3798 25.2469 17.4564 25.3495 17.5323 25.4509L17.5603 25.4886L17.5674 25.4983C17.5571 25.4856 17.5855 25.5204 17.5836 25.5183L17.5864 25.5228L17.5981 25.5408L17.6442 25.6126C17.6742 25.6608 17.7041 25.7085 17.7333 25.7562C17.97 26.1362 18.1868 26.5013 18.3816 26.8425C18.4769 27.0147 18.5709 27.1778 18.6557 27.3365C18.7389 27.4966 18.8172 27.6497 18.8874 27.7958C18.9346 27.8929 18.9783 27.9846 19.0204 28.0737V28.8641C18.9932 28.8422 18.9667 28.8209 18.9377 28.797C18.7577 28.6508 18.5451 28.4691 18.3063 28.2571C18.0698 28.0427 17.8032 27.8012 17.5121 27.5373C17.2249 27.2701 16.9197 26.9757 16.6041 26.6588C16.5642 26.6194 16.5246 26.5795 16.4846 26.5394ZM24.0585 22.4765L24.1185 22.4L24.1334 22.3809L24.1371 22.3761C24.1402 22.3724 24.1232 22.3906 24.1321 22.3808L24.1384 22.3716L24.1641 22.3348C24.2322 22.2371 24.3011 22.1383 24.3709 22.0385C24.5004 21.8308 24.6373 21.6248 24.7606 21.4019C25.2648 20.5212 25.6875 19.5024 26.0735 18.4271C26.4641 17.3541 26.8287 16.2288 27.2801 15.174C27.5048 14.6471 27.7534 14.1391 28.027 13.67C28.2998 13.2009 28.6095 12.7748 28.9354 12.4153C29.2647 12.058 29.6001 11.7601 29.9349 11.5505C30.0145 11.4943 30.097 11.4465 30.1778 11.4031C30.2573 11.3583 30.3345 11.3171 30.4086 11.2783C30.5636 11.2105 30.7029 11.1492 30.8322 11.1016C30.9665 11.0589 31.0842 11.0239 31.1858 10.9959C31.2865 10.968 31.3736 10.9593 31.4441 10.9456C31.5856 10.9237 31.6611 10.9118 31.6611 10.9118C31.6611 10.9118 31.601 10.959 31.4882 11.0474C31.433 11.0921 31.3583 11.1415 31.2815 11.2076C31.2077 11.2728 31.1228 11.3476 31.0277 11.4317C30.9395 11.5207 30.8419 11.6193 30.7357 11.7267C30.6874 11.7836 30.6372 11.843 30.5849 11.9044C30.5319 11.9635 30.4793 12.0263 30.4309 12.0971C30.381 12.1648 30.3293 12.2344 30.2761 12.3062C30.2279 12.3815 30.1786 12.4586 30.1278 12.538C30.0755 12.6144 30.0318 12.7024 29.9822 12.7865C29.9579 12.8289 29.9337 12.8717 29.9088 12.9151C29.8865 12.9604 29.8642 13.0062 29.8415 13.0525C29.6563 13.4179 29.4849 13.8286 29.3303 14.2823C29.1725 14.7341 29.0293 15.2257 28.8828 15.7437C28.5912 16.7796 28.2931 17.928 27.8788 19.0807C27.671 19.6562 27.4309 20.2316 27.1494 20.7852C26.8688 21.3389 26.5429 21.8687 26.1786 22.3505C25.9989 22.5927 25.8028 22.8189 25.6057 23.0334C25.5027 23.1371 25.4009 23.2396 25.3001 23.341L25.2626 23.3785L25.2533 23.388L25.24 23.4019L25.2355 23.4059L25.2174 23.4224L25.1452 23.4876C25.0967 23.5303 25.0482 23.5728 25.0003 23.6149C24.8069 23.7822 24.6213 23.9474 24.437 24.1025C24.2556 24.2577 24.0642 24.4066 23.8859 24.5464C23.7044 24.685 23.5331 24.8194 23.3664 24.943C23.1991 25.0648 23.0431 25.1784 22.8921 25.2829C22.5917 25.4926 22.3252 25.671 22.1052 25.8151C21.6643 26.1041 21.3947 26.2551 21.3947 26.2551C21.3947 26.2551 21.5426 25.9867 21.8321 25.5422C21.976 25.3182 22.1571 25.0551 22.3685 24.7569C22.5828 24.4589 22.8217 24.1283 23.0824 23.7762C23.3485 23.4213 23.6367 23.0368 23.9416 22.6303C23.9801 22.579 24.019 22.528 24.0585 22.4765Z" fill="#F7F3F3"/>
<path d="M75.032 26.396C76.4187 26.396 77.5387 26.6093 78.392 27.036C79.2453 27.4413 80.0453 27.9213 80.792 28.476C81.0693 28.6893 81.2827 28.796 81.432 28.796C81.8373 28.796 82.104 28.1453 82.232 26.844H82.968C82.9253 27.6333 82.8933 28.5933 82.872 29.724C82.8507 30.8547 82.84 32.348 82.84 34.204H82.104C81.9547 33.308 81.7733 32.444 81.56 31.612C81.3467 30.78 80.9947 30.0653 80.504 29.468C79.8853 28.6787 79.0747 28.0707 78.072 27.644C77.0693 27.196 76.0347 26.972 74.968 26.972C73.9013 26.972 72.9307 27.2387 72.056 27.772C71.2027 28.284 70.4667 29.0307 69.848 30.012C69.2293 30.9933 68.7493 32.1773 68.408 33.564C68.088 34.9293 67.928 36.476 67.928 38.204C67.928 42.044 68.5467 44.86 69.784 46.652C71.0213 48.4227 72.9413 49.308 75.544 49.308C76.312 49.308 76.9733 49.2013 77.528 48.988C78.104 48.7533 78.552 48.5293 78.872 48.316C79.2773 48.0387 79.5333 47.7827 79.64 47.548C79.7467 47.292 79.8 46.9613 79.8 46.556V43.484C79.8 42.6093 79.7147 41.9587 79.544 41.532C79.3733 41.1053 79.0533 40.8173 78.584 40.668C78.136 40.5187 77.464 40.4333 76.568 40.412V39.772C76.952 39.7933 77.4 39.8147 77.912 39.836C78.424 39.836 78.9573 39.8467 79.512 39.868C80.088 39.868 80.6107 39.868 81.08 39.868C81.784 39.868 82.4133 39.8573 82.968 39.836C83.544 39.8147 84.024 39.7933 84.408 39.772V40.412C83.9387 40.4333 83.5867 40.508 83.352 40.636C83.1173 40.764 82.9573 41.02 82.872 41.404C82.808 41.788 82.776 42.3747 82.776 43.164V49.5H82.136C82.1147 49.1373 82.0293 48.7427 81.88 48.316C81.752 47.8893 81.5493 47.676 81.272 47.676C81.144 47.676 81.016 47.708 80.888 47.772C80.76 47.836 80.536 47.9853 80.216 48.22C79.512 48.7533 78.7653 49.18 77.976 49.5C77.1867 49.7987 76.2693 49.948 75.224 49.948C73.0267 49.948 71.1387 49.5 69.56 48.604C68.0027 47.6867 66.808 46.3747 65.976 44.668C65.144 42.9613 64.728 40.924 64.728 38.556C64.728 36.06 65.176 33.9053 66.072 32.092C66.968 30.2787 68.184 28.8813 69.72 27.9C71.2773 26.8973 73.048 26.396 75.032 26.396ZM97.38 32.572C97.956 32.572 98.4573 32.6893 98.884 32.924C99.332 33.1587 99.6733 33.468 99.908 33.852C100.164 34.2147 100.292 34.6307 100.292 35.1C100.292 35.6333 100.121 36.1027 99.78 36.508C99.46 36.9133 99.0227 37.116 98.468 37.116C98.02 37.116 97.6253 36.9773 97.284 36.7C96.9427 36.4013 96.772 35.9853 96.772 35.452C96.772 35.0467 96.8787 34.7053 97.092 34.428C97.3267 34.1293 97.5827 33.8947 97.86 33.724C97.7107 33.5107 97.4867 33.404 97.188 33.404C96.5267 33.404 95.9187 33.6067 95.364 34.012C94.8093 34.396 94.34 34.8973 93.956 35.516C93.572 36.1347 93.2733 36.796 93.06 37.5C92.8467 38.1827 92.74 38.8227 92.74 39.42V46.204C92.74 47.2493 93.0387 47.9533 93.636 48.316C94.2547 48.6573 95.0867 48.828 96.132 48.828V49.5C95.6413 49.4787 94.948 49.4573 94.052 49.436C93.156 49.3933 92.2067 49.372 91.204 49.372C90.4787 49.372 89.7533 49.3933 89.028 49.436C88.324 49.4573 87.7907 49.4787 87.428 49.5V48.828C88.3027 48.828 88.9213 48.668 89.284 48.348C89.668 48.028 89.86 47.42 89.86 46.524V36.508C89.86 35.548 89.6893 34.844 89.348 34.396C89.0067 33.9267 88.3667 33.692 87.428 33.692V33.02C88.1107 33.084 88.772 33.116 89.412 33.116C90.0307 33.116 90.6173 33.084 91.172 33.02C91.748 32.9347 92.2707 32.8173 92.74 32.668V36.668C92.9747 36.0493 93.3053 35.4307 93.732 34.812C94.18 34.172 94.7133 33.6387 95.332 33.212C95.9507 32.7853 96.6333 32.572 97.38 32.572ZM109.829 32.572C111.706 32.572 113.168 33.148 114.213 34.3C115.28 35.4307 115.813 37.2013 115.813 39.612H104.517L104.485 39.004H112.741C112.784 37.9587 112.698 36.9987 112.485 36.124C112.272 35.228 111.93 34.5133 111.461 33.98C111.013 33.4467 110.426 33.18 109.701 33.18C108.72 33.18 107.845 33.6707 107.077 34.652C106.33 35.6333 105.882 37.1907 105.733 39.324L105.829 39.452C105.786 39.772 105.754 40.124 105.733 40.508C105.712 40.892 105.701 41.276 105.701 41.66C105.701 43.1107 105.936 44.3587 106.405 45.404C106.874 46.4493 107.482 47.2493 108.229 47.804C108.997 48.3373 109.786 48.604 110.597 48.604C111.237 48.604 111.845 48.508 112.421 48.316C112.997 48.1027 113.53 47.7613 114.021 47.292C114.512 46.8227 114.938 46.1933 115.301 45.404L115.941 45.66C115.706 46.364 115.322 47.0467 114.789 47.708C114.256 48.3693 113.584 48.9133 112.773 49.34C111.962 49.7453 111.024 49.948 109.957 49.948C108.421 49.948 107.098 49.596 105.989 48.892C104.901 48.188 104.058 47.2173 103.461 45.98C102.885 44.7213 102.597 43.2813 102.597 41.66C102.597 39.7827 102.896 38.172 103.493 36.828C104.09 35.4627 104.933 34.4173 106.021 33.692C107.109 32.9453 108.378 32.572 109.829 32.572ZM127.017 32.572C128.894 32.572 130.355 33.148 131.401 34.3C132.467 35.4307 133.001 37.2013 133.001 39.612H121.705L121.673 39.004H129.929C129.971 37.9587 129.886 36.9987 129.673 36.124C129.459 35.228 129.118 34.5133 128.649 33.98C128.201 33.4467 127.614 33.18 126.889 33.18C125.907 33.18 125.033 33.6707 124.265 34.652C123.518 35.6333 123.07 37.1907 122.921 39.324L123.016 39.452C122.974 39.772 122.942 40.124 122.921 40.508C122.899 40.892 122.889 41.276 122.889 41.66C122.889 43.1107 123.123 44.3587 123.593 45.404C124.062 46.4493 124.67 47.2493 125.417 47.804C126.185 48.3373 126.974 48.604 127.785 48.604C128.425 48.604 129.033 48.508 129.609 48.316C130.185 48.1027 130.718 47.7613 131.209 47.292C131.699 46.8227 132.126 46.1933 132.489 45.404L133.129 45.66C132.894 46.364 132.51 47.0467 131.977 47.708C131.443 48.3693 130.771 48.9133 129.961 49.34C129.15 49.7453 128.211 49.948 127.145 49.948C125.609 49.948 124.286 49.596 123.177 48.892C122.089 48.188 121.246 47.2173 120.649 45.98C120.073 44.7213 119.785 43.2813 119.785 41.66C119.785 39.7827 120.083 38.172 120.681 36.828C121.278 35.4627 122.121 34.4173 123.209 33.692C124.297 32.9453 125.566 32.572 127.017 32.572ZM147.18 32.572C147.991 32.572 148.663 32.6787 149.196 32.892C149.751 33.1053 150.209 33.404 150.572 33.788C150.977 34.2147 151.265 34.748 151.436 35.388C151.607 36.028 151.692 36.892 151.692 37.98V46.524C151.692 47.42 151.873 48.028 152.236 48.348C152.62 48.668 153.249 48.828 154.124 48.828V49.5C153.761 49.4787 153.207 49.4573 152.46 49.436C151.713 49.3933 150.988 49.372 150.284 49.372C149.58 49.372 148.887 49.3933 148.204 49.436C147.543 49.4573 147.041 49.4787 146.7 49.5V48.828C147.468 48.828 148.012 48.668 148.332 48.348C148.652 48.028 148.812 47.42 148.812 46.524V37.276C148.812 36.6147 148.759 36.0067 148.652 35.452C148.545 34.8973 148.3 34.4493 147.916 34.108C147.553 33.7667 146.988 33.596 146.22 33.596C145.324 33.596 144.535 33.852 143.852 34.364C143.191 34.876 142.668 35.58 142.284 36.476C141.921 37.3507 141.74 38.332 141.74 39.42V46.524C141.74 47.42 141.9 48.028 142.22 48.348C142.54 48.668 143.084 48.828 143.852 48.828V49.5C143.511 49.4787 142.999 49.4573 142.316 49.436C141.655 49.3933 140.972 49.372 140.268 49.372C139.564 49.372 138.839 49.3933 138.092 49.436C137.345 49.4573 136.791 49.4787 136.428 49.5V48.828C137.303 48.828 137.921 48.668 138.284 48.348C138.668 48.028 138.86 47.42 138.86 46.524V36.508C138.86 35.548 138.689 34.844 138.348 34.396C138.007 33.9267 137.367 33.692 136.428 33.692V33.02C137.111 33.084 137.772 33.116 138.412 33.116C139.031 33.116 139.617 33.084 140.172 33.02C140.748 32.9347 141.271 32.8173 141.74 32.668V36.444C142.295 34.9933 143.063 33.9907 144.044 33.436C145.047 32.86 146.092 32.572 147.18 32.572ZM182.122 26.844V27.484C181.396 27.5053 180.842 27.5907 180.458 27.74C180.095 27.868 179.85 28.124 179.722 28.508C179.594 28.8707 179.53 29.4467 179.53 30.236V46.108C179.53 46.876 179.594 47.452 179.722 47.836C179.85 48.22 180.095 48.476 180.458 48.604C180.842 48.732 181.396 48.8173 182.122 48.86V49.5C181.631 49.4573 181.012 49.436 180.266 49.436C179.54 49.4147 178.804 49.404 178.058 49.404C177.226 49.404 176.447 49.4147 175.722 49.436C174.996 49.436 174.41 49.4573 173.962 49.5V48.86C174.687 48.8173 175.231 48.732 175.594 48.604C175.978 48.476 176.234 48.22 176.362 47.836C176.49 47.452 176.554 46.876 176.554 46.108V28.508L176.682 28.604L168.842 49.66H168.33L160.266 28.892V45.788C160.266 46.556 160.33 47.164 160.458 47.612C160.607 48.0387 160.884 48.348 161.29 48.54C161.716 48.7107 162.346 48.8173 163.178 48.86V49.5C162.794 49.4573 162.292 49.436 161.674 49.436C161.055 49.4147 160.468 49.404 159.914 49.404C159.38 49.404 158.836 49.4147 158.282 49.436C157.748 49.436 157.3 49.4573 156.938 49.5V48.86C157.663 48.8173 158.207 48.7107 158.57 48.54C158.954 48.348 159.21 48.0387 159.338 47.612C159.466 47.164 159.53 46.556 159.53 45.788V30.236C159.53 29.4467 159.466 28.8707 159.338 28.508C159.21 28.124 158.954 27.868 158.57 27.74C158.207 27.5907 157.663 27.5053 156.938 27.484V26.844C157.3 26.8653 157.748 26.8867 158.282 26.908C158.836 26.9293 159.38 26.94 159.914 26.94C160.383 26.94 160.863 26.9293 161.354 26.908C161.866 26.8867 162.292 26.8653 162.634 26.844L169.898 45.98L169.354 46.236L176.554 26.94C176.81 26.94 177.055 26.94 177.29 26.94C177.546 26.94 177.802 26.94 178.058 26.94C178.804 26.94 179.54 26.9293 180.266 26.908C181.012 26.8867 181.631 26.8653 182.122 26.844ZM189.785 49.724C188.91 49.724 188.153 49.564 187.513 49.244C186.873 48.9027 186.382 48.4333 186.041 47.836C185.721 47.2387 185.561 46.5453 185.561 45.756C185.561 44.8173 185.774 44.0493 186.201 43.452C186.649 42.8547 187.214 42.3747 187.897 42.012C188.579 41.6493 189.294 41.3507 190.041 41.116C190.809 40.86 191.534 40.6253 192.217 40.412C192.899 40.1773 193.454 39.9107 193.881 39.612C194.329 39.3133 194.553 38.9187 194.553 38.428V36.444C194.553 35.548 194.414 34.8653 194.137 34.396C193.881 33.9267 193.529 33.6173 193.081 33.468C192.633 33.2973 192.131 33.212 191.577 33.212C191.043 33.212 190.467 33.2867 189.849 33.436C189.251 33.5853 188.771 33.8947 188.409 34.364C188.814 34.4493 189.166 34.6627 189.465 35.004C189.763 35.3453 189.913 35.7827 189.913 36.316C189.913 36.8493 189.742 37.276 189.401 37.596C189.059 37.8947 188.622 38.044 188.089 38.044C187.47 38.044 187.011 37.852 186.713 37.468C186.435 37.0627 186.297 36.6147 186.297 36.124C186.297 35.5693 186.435 35.1213 186.713 34.78C186.99 34.4387 187.342 34.1187 187.769 33.82C188.259 33.4787 188.889 33.1907 189.657 32.956C190.446 32.7 191.331 32.572 192.312 32.572C193.187 32.572 193.934 32.6787 194.553 32.892C195.171 33.084 195.683 33.372 196.089 33.756C196.643 34.268 197.006 34.8973 197.177 35.644C197.347 36.3693 197.433 37.244 197.433 38.268V47.164C197.433 47.6973 197.507 48.0813 197.657 48.316C197.827 48.5507 198.083 48.668 198.425 48.668C198.659 48.668 198.883 48.6147 199.097 48.508C199.31 48.4013 199.566 48.2307 199.865 47.996L200.217 48.54C199.769 48.8813 199.342 49.1693 198.937 49.404C198.531 49.6173 197.987 49.724 197.305 49.724C196.686 49.724 196.174 49.6173 195.769 49.404C195.363 49.1907 195.054 48.8813 194.841 48.476C194.649 48.0493 194.553 47.516 194.553 46.876C193.977 47.836 193.283 48.5507 192.473 49.02C191.683 49.4893 190.787 49.724 189.785 49.724ZM190.937 48.444C191.641 48.444 192.291 48.2413 192.889 47.836C193.507 47.4307 194.062 46.8227 194.553 46.012V39.74C194.297 40.1027 193.923 40.412 193.433 40.668C192.942 40.9027 192.409 41.148 191.833 41.404C191.257 41.6387 190.702 41.9267 190.169 42.268C189.657 42.588 189.23 43.0147 188.889 43.548C188.547 44.0813 188.377 44.7747 188.377 45.628C188.377 46.4813 188.601 47.164 189.049 47.676C189.518 48.188 190.147 48.444 190.937 48.444ZM207.33 27.708V33.052H212.066V33.692H207.33V46.076C207.33 47.0787 207.511 47.7827 207.874 48.188C208.237 48.5933 208.738 48.796 209.378 48.796C210.018 48.796 210.573 48.54 211.042 48.028C211.511 47.4947 211.917 46.6093 212.258 45.372L212.898 45.532C212.685 46.7693 212.258 47.8147 211.618 48.668C210.999 49.5213 210.039 49.948 208.738 49.948C208.013 49.948 207.415 49.852 206.946 49.66C206.477 49.4893 206.061 49.2333 205.698 48.892C205.229 48.4013 204.898 47.8147 204.706 47.132C204.535 46.4493 204.45 45.5427 204.45 44.412V33.692H201.378V33.052H204.45V28.156C204.983 28.1347 205.495 28.092 205.986 28.028C206.477 27.964 206.925 27.8573 207.33 27.708ZM222.267 32.572C224.144 32.572 225.605 33.148 226.651 34.3C227.717 35.4307 228.251 37.2013 228.251 39.612H216.955L216.923 39.004H225.179C225.221 37.9587 225.136 36.9987 224.923 36.124C224.709 35.228 224.368 34.5133 223.899 33.98C223.451 33.4467 222.864 33.18 222.139 33.18C221.157 33.18 220.283 33.6707 219.515 34.652C218.768 35.6333 218.32 37.1907 218.171 39.324L218.266 39.452C218.224 39.772 218.192 40.124 218.171 40.508C218.149 40.892 218.139 41.276 218.139 41.66C218.139 43.1107 218.373 44.3587 218.843 45.404C219.312 46.4493 219.92 47.2493 220.667 47.804C221.435 48.3373 222.224 48.604 223.035 48.604C223.675 48.604 224.283 48.508 224.859 48.316C225.435 48.1027 225.968 47.7613 226.459 47.292C226.949 46.8227 227.376 46.1933 227.739 45.404L228.379 45.66C228.144 46.364 227.76 47.0467 227.227 47.708C226.693 48.3693 226.021 48.9133 225.211 49.34C224.4 49.7453 223.461 49.948 222.395 49.948C220.859 49.948 219.536 49.596 218.427 48.892C217.339 48.188 216.496 47.2173 215.899 45.98C215.323 44.7213 215.035 43.2813 215.035 41.66C215.035 39.7827 215.333 38.172 215.931 36.828C216.528 35.4627 217.371 34.4173 218.459 33.692C219.547 32.9453 220.816 32.572 222.267 32.572Z" fill="#F7F3F3"/>
</svg>
