<svg width="139" height="55" viewBox="0 0 139 55" fill="none" xmlns="http://www.w3.org/2000/svg">
<path opacity="0.42" d="M25.6778 55C39.8593 55 51.3557 43.5833 51.3557 29.5C51.3557 15.4167 39.8593 4 25.6778 4C11.4964 4 0 15.4167 0 29.5C0 43.5833 11.4964 55 25.6778 55Z" fill="#D8D8D8"/>
<path d="M62.6 28.3L57.44 15.38C56.8667 13.9267 56.2267 13.2 55.52 13.2H55.46V13H61.8V13.2H61.72C61.12 13.2 60.72 13.3867 60.52 13.76C60.32 14.12 60.3467 14.62 60.6 15.26L64.14 24.28L66.24 19.08L64.92 15.38C64.6667 14.66 64.36 14.12 64 13.76C63.6533 13.3867 63.2133 13.2 62.68 13.2H62.64V13H69.06V13.2H68.98C68.4067 13.2 68.0333 13.38 67.86 13.74C67.6867 14.1 67.7067 14.6067 67.92 15.26L70.98 24.28L74.4 15.28C74.6267 14.68 74.6 14.1933 74.32 13.82C74.0533 13.4333 73.58 13.2267 72.9 13.2V13H76.56V13.2C76.2 13.2 75.86 13.3733 75.54 13.72C75.2333 14.0667 74.98 14.5067 74.78 15.04L69.68 28.3H69.52L66.36 19.46L62.78 28.3H62.6ZM76.8242 28V27.8H76.9042C77.3842 27.8 77.7709 27.6533 78.0642 27.36C78.3576 27.0667 78.5042 26.68 78.5042 26.2V14.8C78.5042 14.32 78.3576 13.9333 78.0642 13.64C77.7709 13.3467 77.3842 13.2 76.9042 13.2H76.8242V13H83.2242V13.2H83.1842C82.7042 13.2 82.3176 13.3467 82.0242 13.64C81.7309 13.9333 81.5842 14.32 81.5842 14.8V19.44H88.1842V14.8C88.1842 14.32 88.0376 13.9333 87.7442 13.64C87.4509 13.3467 87.0642 13.2 86.5842 13.2H86.5242V13H92.9242V13.2H92.8642C92.3842 13.2 91.9976 13.3467 91.7042 13.64C91.4109 13.9333 91.2642 14.32 91.2642 14.8V26.2C91.2642 26.68 91.4109 27.0667 91.7042 27.36C91.9976 27.6533 92.3842 27.8 92.8642 27.8H92.9242V28H86.5242V27.8H86.5842C87.0642 27.8 87.4509 27.6533 87.7442 27.36C88.0376 27.0667 88.1842 26.68 88.1842 26.2V19.72H81.5842V26.2C81.5842 26.68 81.7309 27.0667 82.0242 27.36C82.3176 27.6533 82.7042 27.8 83.1842 27.8H83.2242V28H76.8242ZM93.2036 28V27.8C93.4569 27.7733 93.7103 27.6533 93.9636 27.44C94.2303 27.2133 94.4769 26.9333 94.7036 26.6C94.9303 26.2667 95.1036 25.94 95.2236 25.62L100.504 12.7H100.684L105.884 25.62C106.47 27.0733 107.124 27.8 107.844 27.8H107.904V28H101.504V27.8H101.584C102.184 27.8 102.584 27.62 102.784 27.26C102.997 26.8867 102.97 26.3733 102.704 25.72L101.504 22.74H96.6836L95.5636 25.52C95.3236 26.0933 95.3503 26.6133 95.6436 27.08C95.9503 27.5333 96.4369 27.7733 97.1036 27.8V28H93.2036ZM96.7836 22.48H101.404L99.1236 16.72L96.7836 22.48ZM109.85 28L109.87 27.8H109.89C110.37 27.8 110.757 27.6533 111.05 27.36C111.343 27.0667 111.49 26.68 111.49 26.2V13.28H110.91C110.257 13.28 109.617 13.3867 108.99 13.6C108.363 13.8 107.823 14.1733 107.37 14.72C106.917 15.2533 106.61 16.0267 106.45 17.04H106.25L106.81 13H119.27L119.85 17.04H119.65C119.49 16.04 119.177 15.2667 118.71 14.72C118.257 14.1733 117.71 13.8 117.07 13.6C116.443 13.3867 115.79 13.28 115.11 13.28H114.59V26.2C114.59 26.68 114.737 27.0667 115.03 27.36C115.323 27.6533 115.71 27.8 116.19 27.8L116.21 28H109.85ZM122.137 17.34L122.017 17.12C122.31 16.9333 122.557 16.7667 122.757 16.62C122.957 16.46 123.11 16.3133 123.217 16.18C123.443 15.9267 123.557 15.6733 123.557 15.42C123.557 15.1533 123.457 14.96 123.257 14.84C123.057 14.7067 122.83 14.5933 122.577 14.5C122.31 14.4067 122.077 14.2667 121.877 14.08C121.69 13.88 121.597 13.6 121.597 13.24C121.597 12.7867 121.737 12.42 122.017 12.14C122.31 11.86 122.69 11.72 123.157 11.72C123.663 11.72 124.063 11.8933 124.357 12.24C124.65 12.5867 124.797 13.08 124.797 13.72C124.797 14.3867 124.603 14.9933 124.217 15.54C123.83 16.0733 123.137 16.6733 122.137 17.34ZM131.091 28.28C130.744 28.28 130.457 28.2667 130.231 28.24C130.017 28.2133 129.804 28.18 129.591 28.14C129.377 28.1 129.117 28.0667 128.811 28.04C128.504 28.0133 128.084 28 127.551 28L126.851 22.8H127.091C127.291 24.44 127.744 25.7067 128.451 26.6C129.171 27.48 130.091 27.92 131.211 27.92C132.037 27.92 132.711 27.6867 133.231 27.22C133.751 26.7533 134.011 26.1467 134.011 25.4C134.011 25.08 133.951 24.7733 133.831 24.48C133.724 24.1867 133.537 23.8733 133.271 23.54C133.004 23.2067 132.651 22.8467 132.211 22.46C131.771 22.06 131.224 21.6133 130.571 21.12L129.751 20.5C128.751 19.74 128.057 19.06 127.671 18.46C127.284 17.86 127.091 17.2067 127.091 16.5C127.091 15.3267 127.517 14.4067 128.371 13.74C129.237 13.06 130.377 12.72 131.791 12.72C132.137 12.72 132.417 12.7333 132.631 12.76C132.857 12.7867 133.071 12.82 133.271 12.86C133.484 12.9 133.731 12.9333 134.011 12.96C134.291 12.9867 134.651 13 135.091 13L135.291 17.04H135.091C134.904 15.8 134.504 14.82 133.891 14.1C133.277 13.38 132.537 13.02 131.671 13.02C131.057 13.02 130.564 13.2 130.191 13.56C129.831 13.92 129.651 14.4 129.651 15C129.651 15.52 129.817 16.02 130.151 16.5C130.497 16.9667 131.091 17.5133 131.931 18.14L132.791 18.78C133.671 19.42 134.364 20.0133 134.871 20.56C135.391 21.0933 135.764 21.6133 135.991 22.12C136.217 22.6267 136.331 23.1667 136.331 23.74C136.331 24.62 136.111 25.4 135.671 26.08C135.231 26.76 134.617 27.2933 133.831 27.68C133.057 28.0533 132.144 28.2533 131.091 28.28Z" fill="white"/>
<path d="M37.1969 43.7997H34.7972V38.0488L30.422 42.424C30.305 42.541 30.1514 42.5998 29.9979 42.5998C29.8443 42.5998 29.6907 42.541 29.5738 42.424L26.3984 39.2487L23.223 42.424C22.9884 42.6586 22.6093 42.6586 22.3748 42.424L17.9995 38.0488V43.7997H15.5999C15.2688 43.7997 15 44.0684 15 44.3996C15 44.7307 15.2688 44.9994 15.5999 44.9994H18.5995H34.1973H37.197C37.5281 44.9994 37.7968 44.7307 37.7968 44.3996C37.7968 44.0684 37.5281 43.7997 37.1969 43.7997Z" fill="white"/>
<path d="M17.9994 33.0019H18.2478L22.7987 37.5528L25.9741 34.3775C26.2087 34.1429 26.5884 34.1429 26.8224 34.3775L29.9977 37.5528L34.5487 33.0019H34.7971C35.1289 33.0019 35.397 32.7331 35.397 32.402V30.0023C35.397 29.6706 35.1289 29.4024 34.7971 29.4024H25.6627C25.8307 29.0929 26.0215 28.7155 26.2176 28.2764C26.853 27.6525 27.673 27.3873 28.7865 27.049C29.9665 27.5769 31.0386 27.8523 31.9834 27.8523C32.542 27.8523 33.0579 27.7599 33.5282 27.5745C35.0982 26.9578 35.6759 25.5156 35.8937 24.9727C35.9135 24.9229 35.9297 24.882 35.9429 24.8521C36.0797 24.5533 35.9447 24.1982 35.6478 24.0578L35.544 24.0032C33.8696 23.1069 32.3681 22.8717 31.0788 23.3067C29.9473 23.6882 29.0385 24.5719 28.3683 25.9223C27.8416 26.0825 27.3587 26.2373 26.9148 26.425C27.0881 25.8671 27.2435 25.2636 27.3623 24.6205C27.3767 24.5827 27.3971 24.5473 27.4037 24.5071C27.4097 24.4693 27.4019 24.4327 27.4007 24.3955C27.5759 23.3601 27.652 22.2311 27.5596 21.0426C28.2814 21.1782 28.9646 21.2477 29.6059 21.2477C30.975 21.2477 32.1592 20.9388 33.1448 20.3215C34.575 19.4264 35.5223 17.9243 35.9603 15.8581L35.9861 15.7418C36.0221 15.5864 35.9957 15.4232 35.9117 15.2883C35.8283 15.1533 35.6939 15.0567 35.5391 15.0201C34.8462 14.8581 29.3366 13.7291 27.0126 18.2045C26.7318 17.3118 26.3341 16.4035 25.8007 15.4911C25.7785 13.5653 25.1954 12.0247 24.0604 10.9149C23.1269 10.0018 21.3344 8.92979 18.1039 9.00361L18.0067 9.00544C17.6749 9.00544 17.4068 9.27357 17.4068 9.60533L17.4044 9.72773C17.3871 10.4327 17.3355 12.5779 18.9672 14.2289C20.2336 15.511 22.2061 16.1696 24.8247 16.1997C25.6358 17.616 26.0929 19.0132 26.2963 20.3415C26.2975 20.3529 26.2957 20.3637 26.2975 20.3756C26.2987 20.384 26.3023 20.3918 26.3041 20.4008C26.3881 20.9653 26.4271 21.5167 26.4307 22.0512C26.0798 21.5676 25.658 21.1675 25.1589 20.8627C23.9045 20.0978 22.1821 19.9424 20.3086 20.4265L20.2576 20.4391C19.939 20.5171 19.7416 20.8357 19.8143 21.1554L19.8329 21.2406C19.9517 21.8213 20.3152 23.5869 21.9482 24.6074C22.6993 25.0759 23.604 25.3111 24.6509 25.3111C25.093 25.3111 25.564 25.2643 26.0559 25.1803C25.8285 26.1132 25.5273 26.9357 25.228 27.6136C25.2076 27.6514 25.1896 27.688 25.1782 27.7282C24.8237 28.5147 24.4817 29.0918 24.2843 29.4026H17.9996C17.6685 29.4026 17.3997 29.6707 17.3997 30.0025V32.4021C17.3995 32.7331 17.6683 33.0019 17.9994 33.0019ZM31.4622 24.4435C32.6638 24.0379 33.938 24.5407 34.6291 24.8808C34.3915 25.3938 33.9476 26.1208 33.0897 26.458C32.3698 26.7406 31.4645 26.7118 30.3936 26.3836C30.7998 26.2499 31.2059 26.1485 31.6259 26.0783C31.9529 26.0243 32.1736 25.7153 32.119 25.3884C32.065 25.0615 31.7572 24.8401 31.4291 24.8953C31.0704 24.9547 30.7164 25.0429 30.3637 25.1443C30.6961 24.8196 31.0608 24.579 31.4622 24.4435ZM34.6795 16.074C34.4575 16.9361 33.9218 18.4197 32.5078 19.3046C31.4711 19.9543 30.1231 20.1744 28.4913 19.9729C28.5117 19.9591 28.5339 19.9452 28.5543 19.9315C29.7211 19.1635 30.7296 18.5 31.96 18.1947C32.2816 18.1149 32.4777 17.7891 32.398 17.4682C32.3176 17.1461 31.99 16.9505 31.6709 17.0303C30.3055 17.3692 29.2046 18.0687 28.0576 18.8222C29.669 15.6841 33.1329 15.8263 34.6795 16.074ZM21.3194 13.1321C22.2337 13.6282 23.0333 14.2263 23.7796 14.9516C22.0201 14.7909 20.6912 14.2665 19.8208 13.3852C18.7788 12.3305 18.6168 10.9999 18.6006 10.2009C21.1154 10.2393 22.497 11.0641 23.2217 11.7726C23.7898 12.3282 24.1756 13.0408 24.3939 13.8873C23.6314 13.18 22.8167 12.5796 21.8923 12.0774C21.6007 11.9196 21.2372 12.027 21.0788 12.318C20.9204 12.6095 21.0284 12.9737 21.3194 13.1321ZM24.3297 23.6066C24.6111 23.7482 24.89 23.9114 25.175 24.0859C24.1263 24.1723 23.2564 24.0085 22.584 23.5892C21.6775 23.0229 21.2936 22.0906 21.1202 21.4733C22.4682 21.2165 23.668 21.3587 24.5338 21.8866C24.9453 22.138 25.2842 22.4913 25.5638 22.9226C25.3341 22.7865 25.1049 22.6533 24.8697 22.5345C24.5733 22.3845 24.2128 22.5051 24.0641 22.8009C23.9146 23.0966 24.034 23.4578 24.3297 23.6066Z" fill="white"/>
<path d="M29.9979 39.0002C29.8443 39.0002 29.6907 38.9414 29.5737 38.8244L26.3984 35.6491L23.223 38.8244C22.9884 39.059 22.6093 39.059 22.3747 38.8244L17.9995 34.4492V36.3522L22.7989 41.1515L25.9742 37.9762C26.2088 37.7416 26.588 37.7416 26.8225 37.9762L29.9979 41.1515L34.7972 36.3522V34.4492L30.422 38.8244C30.305 38.9414 30.1515 39.0002 29.9979 39.0002Z" fill="white"/>
<path d="M59 51V50.8C59.48 50.8 59.8667 50.6533 60.16 50.36C60.4533 50.0667 60.6 49.68 60.6 49.2V37.8C60.6 37.32 60.4533 36.9333 60.16 36.64C59.8667 36.3467 59.48 36.2 59 36.2V36H65.68C66.7067 36.0133 67.6 36.1933 68.36 36.54C69.1333 36.8733 69.7333 37.34 70.16 37.94C70.6 38.54 70.82 39.2467 70.82 40.06C70.82 40.8733 70.6 41.5867 70.16 42.2C69.7333 42.8 69.12 43.2733 68.32 43.62C67.5333 43.9533 66.6 44.12 65.52 44.12H63.68V49.2C63.68 49.68 63.8267 50.0667 64.12 50.36C64.4133 50.6533 64.8 50.8 65.28 50.8H65.32V51H59ZM63.68 43.86H64.86C65.4333 43.86 65.9267 43.7 66.34 43.38C66.7667 43.0467 67.0933 42.5933 67.32 42.02C67.56 41.4467 67.68 40.7933 67.68 40.06C67.68 39.3267 67.56 38.6733 67.32 38.1C67.0933 37.5267 66.7667 37.08 66.34 36.76C65.9133 36.4267 65.4133 36.26 64.84 36.26H63.68V43.86ZM71.8359 51V50.8H71.8559C72.3359 50.8 72.7226 50.6733 73.0159 50.42C73.3093 50.1667 73.4559 49.8 73.4559 49.32V37.8C73.4559 37.32 73.3093 36.9333 73.0159 36.64C72.7226 36.3467 72.3359 36.2 71.8559 36.2H71.8359V36H78.2159V36.2H78.1359C77.6559 36.2 77.2693 36.3467 76.9759 36.64C76.6826 36.9333 76.5359 37.32 76.5359 37.8V49.4C76.5359 49.8267 76.6359 50.16 76.8359 50.4C77.0493 50.6267 77.4159 50.74 77.9359 50.74H78.3559C79.5426 50.74 80.5426 50.3733 81.3559 49.64C82.1693 48.9067 82.6826 47.8733 82.8959 46.54H83.0959L82.4959 51H71.8359ZM83.7817 51V50.8C84.0351 50.7733 84.2884 50.6533 84.5417 50.44C84.8084 50.2133 85.0551 49.9333 85.2817 49.6C85.5084 49.2667 85.6817 48.94 85.8017 48.62L91.0817 35.7H91.2617L96.4617 48.62C97.0484 50.0733 97.7017 50.8 98.4217 50.8H98.4817V51H92.0817V50.8H92.1617C92.7617 50.8 93.1617 50.62 93.3617 50.26C93.5751 49.8867 93.5484 49.3733 93.2817 48.72L92.0817 45.74H87.2617L86.1417 48.52C85.9017 49.0933 85.9284 49.6133 86.2217 50.08C86.5284 50.5333 87.0151 50.7733 87.6817 50.8V51H83.7817ZM87.3617 45.48H91.9817L89.7017 39.72L87.3617 45.48ZM111.842 51.28L101.362 37.92C101.269 37.8 101.162 37.68 101.042 37.56C100.935 37.44 100.835 37.34 100.742 37.26V48.7C100.742 49.2733 100.915 49.7667 101.262 50.18C101.609 50.5933 102.069 50.8 102.642 50.8V51H98.482V50.8C99.0687 50.8 99.5354 50.5933 99.882 50.18C100.229 49.7667 100.402 49.2667 100.402 48.68V36.98C99.802 36.5267 99.1687 36.2667 98.502 36.2V36H103.642L111.502 46.14V38.3C111.502 37.7267 111.329 37.2333 110.982 36.82C110.635 36.4067 110.175 36.2 109.602 36.2V36H113.742V36.2C113.169 36.2 112.709 36.4067 112.362 36.82C112.015 37.2333 111.842 37.7267 111.842 38.3V51.28ZM118.264 51L118.284 50.8H118.304C118.784 50.8 119.171 50.6533 119.464 50.36C119.757 50.0667 119.904 49.68 119.904 49.2V36.28H119.324C118.671 36.28 118.031 36.3867 117.404 36.6C116.777 36.8 116.237 37.1733 115.784 37.72C115.331 38.2533 115.024 39.0267 114.864 40.04H114.664L115.224 36H127.684L128.264 40.04H128.064C127.904 39.04 127.591 38.2667 127.124 37.72C126.671 37.1733 126.124 36.8 125.484 36.6C124.857 36.3867 124.204 36.28 123.524 36.28H123.004V49.2C123.004 49.68 123.151 50.0667 123.444 50.36C123.737 50.6533 124.124 50.8 124.604 50.8L124.624 51H118.264ZM132.931 45.58C132.931 44.62 132.977 43.84 133.071 43.24C133.164 42.6267 133.277 42.1333 133.411 41.76C133.557 41.3733 133.697 41.04 133.831 40.76C134.084 40.2533 134.264 39.7133 134.371 39.14C134.491 38.5667 134.551 38.0533 134.551 37.6C134.551 37.04 134.451 36.6333 134.251 36.38C134.064 36.1267 133.717 36 133.211 36C132.424 36 131.777 36.4533 131.271 37.36C130.777 38.2667 130.417 39.4933 130.191 41.04H129.991L130.651 36C131.051 36 131.404 35.98 131.711 35.94C132.017 35.8867 132.317 35.84 132.611 35.8C132.917 35.7467 133.257 35.72 133.631 35.72C134.951 35.72 135.957 35.94 136.651 36.38C137.357 36.82 137.711 37.4067 137.711 38.14C137.711 38.5667 137.597 38.9533 137.371 39.3C137.157 39.6467 136.891 39.96 136.571 40.24C136.251 40.5067 135.931 40.7467 135.611 40.96C135.304 41.16 135.051 41.3333 134.851 41.48C134.344 41.9067 133.931 42.4267 133.611 43.04C133.291 43.64 133.131 44.4867 133.131 45.58H132.931ZM133.051 51.28C132.584 51.28 132.184 51.1133 131.851 50.78C131.517 50.4467 131.351 50.0467 131.351 49.58C131.351 49.0867 131.524 48.68 131.871 48.36C132.217 48.04 132.611 47.88 133.051 47.88C133.491 47.88 133.884 48.04 134.231 48.36C134.577 48.68 134.751 49.0867 134.751 49.58C134.751 50.0467 134.584 50.4467 134.251 50.78C133.917 51.1133 133.517 51.28 133.051 51.28Z" fill="white"/>
</svg>
