<svg width="127" height="52" viewBox="0 0 127 52" fill="none" xmlns="http://www.w3.org/2000/svg">
<path opacity="0.42" d="M25.6778 51C39.8593 51 51.3557 39.5833 51.3557 25.5C51.3557 11.4167 39.8593 0 25.6778 0C11.4964 0 0 11.4167 0 25.5C0 39.5833 11.4964 51 25.6778 51Z" fill="#D8D8D8"/>
<path d="M57.2848 5.96C56.9008 5.96 56.7088 5.752 56.7088 5.336C56.7088 4.904 56.9008 4.688 57.2848 4.688H59.7328C60.0848 4.688 60.2608 4.904 60.2608 5.336C60.2608 5.752 60.0848 5.96 59.7328 5.96H59.2528L63.3088 18.152L65.3488 12.464L63.1888 5.96H62.6608C62.4848 5.96 62.3408 5.904 62.2288 5.792C62.1168 5.664 62.0608 5.512 62.0608 5.336C62.0608 5.16 62.1168 5.008 62.2288 4.88C62.3408 4.752 62.4848 4.688 62.6608 4.688H64.9648C65.1568 4.688 65.3168 4.752 65.4448 4.88C65.5728 5.008 65.6368 5.16 65.6368 5.336C65.6368 5.512 65.5728 5.664 65.4448 5.792C65.3328 5.904 65.1728 5.96 64.9648 5.96H64.5568L68.6608 18.296L72.2848 7.904C72.4928 7.312 72.5968 6.848 72.5968 6.512C72.5968 6.16 72.4768 5.952 72.2368 5.888C71.9488 6.224 71.6128 6.392 71.2288 6.392C70.8448 6.392 70.5488 6.312 70.3408 6.152C70.1488 5.976 70.0528 5.728 70.0528 5.408C70.0528 5.088 70.2048 4.816 70.5088 4.592C70.8128 4.368 71.2368 4.256 71.7808 4.256C72.3248 4.256 72.7888 4.472 73.1728 4.904C73.5568 5.336 73.7488 5.816 73.7488 6.344C73.7488 6.856 73.6128 7.488 73.3408 8.24L69.2848 19.664C69.1568 20.048 68.9168 20.24 68.5648 20.24C68.4048 20.24 68.2368 20.192 68.0608 20.096C67.9008 20 67.7968 19.872 67.7488 19.712L65.9008 14.168L63.9088 19.664C63.7648 20.048 63.5168 20.24 63.1648 20.24C62.8288 20.24 62.5968 20.056 62.4688 19.688L57.8608 5.96H57.2848ZM85.728 18.752C86.112 18.752 86.304 18.96 86.304 19.376C86.304 19.792 86.112 20 85.728 20H83.16C83 20 82.864 19.944 82.752 19.832C82.64 19.704 82.584 19.552 82.584 19.376C82.584 18.96 82.776 18.752 83.16 18.752H83.736V9.68H77.976V18.752H78.552C78.936 18.752 79.128 18.96 79.128 19.376C79.128 19.792 78.936 20 78.552 20H75.984C75.6 20 75.408 19.792 75.408 19.376C75.408 18.96 75.6 18.752 75.984 18.752H76.608V5.96H76.008C75.608 5.96 75.408 5.752 75.408 5.336C75.408 4.904 75.608 4.688 76.008 4.688H78.576C78.96 4.688 79.152 4.904 79.152 5.336C79.152 5.752 78.96 5.96 78.576 5.96H77.976V8.528H83.736V5.96H83.136C82.752 5.96 82.56 5.752 82.56 5.336C82.56 4.904 82.752 4.688 83.136 4.688H85.704C86.104 4.688 86.304 4.904 86.304 5.336C86.304 5.752 86.104 5.96 85.704 5.96H85.104V18.752H85.728ZM100.528 18.752C100.896 18.752 101.08 18.96 101.08 19.376C101.08 19.792 100.896 20 100.528 20H97.888C97.504 20 97.312 19.792 97.312 19.376C97.312 18.96 97.504 18.752 97.888 18.752H98.44L97.744 16.568H91.336L90.664 18.752H91.24C91.624 18.752 91.816 18.96 91.816 19.376C91.816 19.792 91.624 20 91.24 20H88.816C88.432 20 88.24 19.792 88.24 19.376C88.24 18.96 88.432 18.752 88.816 18.752H89.416L93.4 5.96H92.44C92.072 5.96 91.888 5.752 91.888 5.336C91.888 4.904 92.072 4.688 92.44 4.688H94.912C95.264 4.688 95.48 4.8 95.56 5.024L99.928 18.752H100.528ZM91.648 15.416H97.456L94.528 6.056L91.648 15.416ZM101.807 3.656C101.999 3.656 102.159 3.72 102.287 3.848C102.415 3.96 102.479 4.08 102.479 4.208C102.479 4.336 102.423 4.496 102.311 4.688H110.015L110.087 4.472C110.231 4.024 110.471 3.8 110.807 3.8C110.983 3.8 111.135 3.864 111.263 3.992C111.407 4.104 111.479 4.24 111.479 4.4C111.479 4.56 111.439 4.72 111.359 4.88L110.471 6.536C110.327 6.808 110.175 6.944 110.015 6.944C109.679 6.944 109.511 6.792 109.511 6.488C109.511 6.392 109.527 6.312 109.559 6.248L109.679 5.84H106.415V18.752H107.039C107.423 18.752 107.615 18.96 107.615 19.376C107.615 19.792 107.423 20 107.039 20H104.447C104.063 20 103.871 19.792 103.871 19.376C103.871 18.96 104.063 18.752 104.447 18.752H105.047V5.84H101.807L101.423 6.464C101.295 6.656 101.151 6.752 100.991 6.752C100.831 6.752 100.703 6.712 100.607 6.632C100.527 6.536 100.487 6.432 100.487 6.32C100.487 6.192 100.511 6.072 100.559 5.96L101.135 4.256C101.263 3.856 101.487 3.656 101.807 3.656ZM114.154 6.776V6.68C113.834 6.648 113.554 6.528 113.314 6.32C113.074 6.096 112.954 5.832 112.954 5.528C112.954 5.208 113.058 4.928 113.266 4.688C113.49 4.448 113.786 4.328 114.154 4.328C114.538 4.328 114.858 4.496 115.114 4.832C115.37 5.168 115.498 5.584 115.498 6.08C115.498 6.576 115.274 7.088 114.826 7.616C114.378 8.144 113.93 8.408 113.482 8.408C113.354 8.408 113.29 8.384 113.29 8.336C113.29 8.288 113.306 8.264 113.338 8.264C113.434 8.264 113.57 8.144 113.746 7.904C114.018 7.536 114.154 7.16 114.154 6.776ZM117.092 16.568C117.092 16.024 117.236 15.584 117.524 15.248C117.812 14.896 118.1 14.72 118.388 14.72C118.692 14.72 118.924 14.824 119.084 15.032C119.26 15.24 119.348 15.488 119.348 15.776C119.348 16.368 119.132 16.84 118.7 17.192C118.876 17.88 119.236 18.392 119.78 18.728C120.34 19.048 120.956 19.208 121.628 19.208C122.62 19.208 123.404 18.872 123.98 18.2C124.572 17.528 124.868 16.776 124.868 15.944C124.868 15.096 124.548 14.368 123.908 13.76C123.428 13.328 122.812 12.864 122.06 12.368L120.836 11.576C119.956 11.016 119.284 10.44 118.82 9.848C118.356 9.24 118.124 8.496 118.124 7.616C118.124 6.72 118.46 5.968 119.132 5.36C119.804 4.736 120.596 4.424 121.508 4.424C122.436 4.424 123.212 4.632 123.836 5.048C124.46 5.464 124.772 5.968 124.772 6.56C124.772 6.848 124.684 7.08 124.508 7.256C124.348 7.416 124.108 7.496 123.788 7.496C123.468 7.496 123.156 7.36 122.852 7.088C122.564 6.816 122.42 6.568 122.42 6.344C122.42 6.12 122.444 5.936 122.492 5.792C122.348 5.52 122.012 5.384 121.484 5.384C120.956 5.384 120.484 5.592 120.068 6.008C119.668 6.424 119.468 6.888 119.468 7.4C119.468 8.232 120.22 9.144 121.724 10.136L122.948 10.952C123.476 11.32 123.868 11.608 124.124 11.816C124.396 12.008 124.732 12.312 125.132 12.728C125.9 13.528 126.284 14.584 126.284 15.896C126.284 17.208 125.828 18.264 124.916 19.064C124.004 19.864 122.924 20.264 121.676 20.264C120.428 20.264 119.348 19.888 118.436 19.136C117.54 18.368 117.092 17.512 117.092 16.568ZM61.8731 45.752V32.96H61.2971C60.9131 32.96 60.7211 32.752 60.7211 32.336C60.7211 31.904 60.9131 31.688 61.2971 31.688H65.8091C67.3291 31.688 68.5851 32.128 69.5771 33.008C70.5851 33.872 71.0891 35.008 71.0891 36.416C71.0891 37.808 70.5771 38.976 69.5531 39.92C68.5451 40.864 67.1851 41.336 65.4731 41.336H63.2411V45.752H63.9611C64.3451 45.752 64.5371 45.96 64.5371 46.376C64.5371 46.792 64.3451 47 63.9611 47H61.2971C60.9131 47 60.7211 46.792 60.7211 46.376C60.7211 45.96 60.9131 45.752 61.2971 45.752H61.8731ZM63.2411 40.208H65.8571C67.0091 40.208 67.9451 39.84 68.6651 39.104C69.3851 38.368 69.7451 37.464 69.7451 36.392C69.7451 35.32 69.3691 34.448 68.6171 33.776C67.8651 33.104 66.9691 32.768 65.9291 32.768H65.1371C63.8731 32.768 63.2411 32.872 63.2411 33.08V40.208ZM75.5614 45.752H79.2334L81.7054 42.344C81.7854 42.232 81.8894 42.176 82.0174 42.176C82.1614 42.176 82.2734 42.216 82.3534 42.296C82.4494 42.376 82.4974 42.472 82.4974 42.584C82.4974 42.68 82.4654 42.792 82.4014 42.92L80.6494 46.616C80.5054 46.872 80.2814 47 79.9774 47H73.6174C73.2334 47 73.0414 46.792 73.0414 46.376C73.0414 45.96 73.2334 45.752 73.6174 45.752H74.1934V32.96H73.6174C73.2334 32.96 73.0414 32.752 73.0414 32.336C73.0414 31.904 73.2334 31.688 73.6174 31.688H76.1374C76.5374 31.688 76.7374 31.904 76.7374 32.336C76.7374 32.752 76.5374 32.96 76.1374 32.96H75.5614V45.752ZM96.1413 45.752C96.5093 45.752 96.6933 45.96 96.6933 46.376C96.6933 46.792 96.5093 47 96.1413 47H93.5013C93.1173 47 92.9253 46.792 92.9253 46.376C92.9253 45.96 93.1173 45.752 93.5013 45.752H94.0533L93.3573 43.568H86.9493L86.2773 45.752H86.8533C87.2373 45.752 87.4293 45.96 87.4293 46.376C87.4293 46.792 87.2373 47 86.8533 47H84.4293C84.0453 47 83.8533 46.792 83.8533 46.376C83.8533 45.96 84.0453 45.752 84.4293 45.752H85.0293L89.0133 32.96H88.0533C87.6853 32.96 87.5013 32.752 87.5013 32.336C87.5013 31.904 87.6853 31.688 88.0533 31.688H90.5253C90.8773 31.688 91.0933 31.8 91.1733 32.024L95.5413 45.752H96.1413ZM87.2613 42.416H93.0693L90.1413 33.056L87.2613 42.416ZM109.446 31.688C109.846 31.688 110.046 31.904 110.046 32.336C110.046 32.752 109.846 32.96 109.446 32.96H108.798V46.448C108.798 46.88 108.582 47.096 108.15 47.096C107.766 47.096 107.502 46.944 107.358 46.64L100.926 34.328V45.752H101.478C101.862 45.752 102.054 45.96 102.054 46.376C102.054 46.792 101.862 47 101.478 47H99.1018C98.7178 47 98.5258 46.792 98.5258 46.376C98.5258 45.96 98.7178 45.752 99.1018 45.752H99.6778V32.96H99.1018C98.7178 32.96 98.5258 32.752 98.5258 32.336C98.5258 31.904 98.7178 31.688 99.1018 31.688H100.71C100.95 31.688 101.134 31.816 101.262 32.072L107.55 44.096V32.96H106.926C106.542 32.96 106.35 32.752 106.35 32.336C106.35 31.904 106.542 31.688 106.926 31.688H109.446ZM113.092 30.656C113.284 30.656 113.444 30.72 113.572 30.848C113.7 30.96 113.764 31.08 113.764 31.208C113.764 31.336 113.708 31.496 113.596 31.688H121.3L121.372 31.472C121.516 31.024 121.756 30.8 122.092 30.8C122.268 30.8 122.42 30.864 122.548 30.992C122.692 31.104 122.764 31.24 122.764 31.4C122.764 31.56 122.724 31.72 122.644 31.88L121.756 33.536C121.612 33.808 121.46 33.944 121.3 33.944C120.964 33.944 120.796 33.792 120.796 33.488C120.796 33.392 120.812 33.312 120.844 33.248L120.964 32.84H117.7V45.752H118.324C118.708 45.752 118.9 45.96 118.9 46.376C118.9 46.792 118.708 47 118.324 47H115.732C115.348 47 115.156 46.792 115.156 46.376C115.156 45.96 115.348 45.752 115.732 45.752H116.332V32.84H113.092L112.708 33.464C112.58 33.656 112.436 33.752 112.276 33.752C112.116 33.752 111.988 33.712 111.892 33.632C111.812 33.536 111.772 33.432 111.772 33.32C111.772 33.192 111.796 33.072 111.844 32.96L112.42 31.256C112.548 30.856 112.772 30.656 113.092 30.656Z" fill="white"/>
<g clip-path="url(#clip0_132_426)">
<path d="M23.4989 43.9858C22.6955 43.9656 21.8945 43.855 21.0918 43.7951C20.8252 43.7689 20.5566 43.7682 20.2899 43.793C20.0385 43.8235 19.7729 44.0642 19.5453 43.81C19.3707 43.6117 19.2391 43.3795 19.1585 43.1279C18.6083 41.3782 18.0633 39.6285 17.545 37.8703C17.1273 36.455 16.76 35.0258 16.3466 33.6094C16.1594 32.9666 15.8825 32.3476 15.7084 31.7009C15.6864 31.526 15.5992 31.3659 15.4643 31.2525C15.3293 31.1391 15.1566 31.0808 14.9805 31.0893C14.594 31.0915 14.2213 30.9454 13.9392 30.6811C13.6571 30.4168 13.4871 30.0545 13.4642 29.6686C13.2926 28.4305 12.9607 27.2137 13.0351 25.9459C13.0334 25.7672 13.043 25.5887 13.0639 25.4112C13.0824 25.208 13.1612 25.015 13.2904 24.857C13.4196 24.699 13.593 24.5834 13.7885 24.5249C14.2986 24.3631 14.8236 24.2529 15.3556 24.1958C15.985 24.1547 16.6175 24.1586 17.2496 24.1625C17.5141 24.1625 17.779 24.1657 18.0435 24.1625C18.1325 24.1507 18.2229 24.1542 18.3108 24.1728C19.7502 24.6876 21.1365 24.1547 22.5394 23.964C22.761 23.9353 22.9844 23.9104 23.2053 23.8753C23.6917 23.7966 23.8222 23.702 23.8885 23.2017C23.9916 22.3581 24.184 21.5278 24.4625 20.7249C24.4741 20.6822 24.4745 20.6372 24.4637 20.5943C24.4529 20.5514 24.4312 20.512 24.4008 20.48C24.3703 20.4479 24.3321 20.4242 24.2898 20.4112C24.2475 20.3982 24.2026 20.3963 24.1594 20.4058C23.4561 20.5361 22.7347 20.534 22.0321 20.3997C21.8534 20.3892 21.6768 20.355 21.507 20.298C20.1377 19.619 18.7947 18.9085 17.9821 17.5137C17.6433 16.9833 17.4798 16.3598 17.5148 15.7314C17.5737 14.916 17.7882 14.6323 18.6051 14.46C19.8346 14.1859 21.118 14.2859 22.2902 14.7471C23.4625 15.2083 24.4699 16.0097 25.1829 17.0482C25.3099 17.2311 25.4489 17.4055 25.5988 17.5701C25.6316 17.5899 25.6689 17.601 25.7072 17.6023C25.7455 17.6036 25.7835 17.5951 25.8176 17.5775C25.9122 17.4841 25.9954 17.3798 26.0658 17.267C26.7241 16.3625 27.3776 15.4559 28.0413 14.5561C28.2395 14.2866 28.2186 14.2218 27.858 14.1512C27.0421 14.0056 26.2717 13.6705 25.6088 13.173C24.9459 12.6754 24.409 12.0293 24.0413 11.2865C23.3936 9.90378 22.8327 8.48028 22.9578 6.90645C23.0057 6.4184 23.0971 5.93557 23.2308 5.46378C23.2517 5.37539 23.2916 5.29263 23.3478 5.22132C23.4041 5.15002 23.4752 5.0919 23.5563 5.05102C23.6374 5.01014 23.7264 4.98747 23.8172 4.98467C23.908 4.98187 23.9983 4.99899 24.0817 5.03479C24.426 5.12957 24.7589 5.26164 25.0744 5.42868C26.4449 6.19748 27.6887 7.1731 28.7617 8.32109C29.1922 8.75099 29.495 9.29181 29.6365 9.88348C29.778 10.4751 29.7527 11.0945 29.5633 11.6726C29.4023 12.0386 29.3411 12.4407 29.3861 12.838C29.7782 12.8922 30.0473 12.6125 30.3512 12.4537C31.8691 11.6543 33.6182 11.4092 35.2974 11.7605C35.8082 11.8438 36.2943 12.0392 36.7206 12.3328C37.1468 12.6264 37.5027 13.0108 37.7626 13.4584C38.0926 14.0161 38.0338 14.3171 37.5793 14.7575C36.8766 15.4389 35.9675 15.7187 35.0833 16.0179C33.8763 16.3942 32.5827 16.3893 31.3786 16.0041C30.7309 15.8123 30.1422 15.4598 29.6672 14.9794C29.48 14.7993 29.2599 14.8443 29.1216 15.0918C28.772 15.7169 28.4189 16.3412 28.1168 16.9886C27.9991 17.2404 27.6389 17.5134 27.9303 17.8176C28.1367 18.0303 28.4359 17.792 28.693 17.7878C28.9571 17.7717 29.222 17.8014 29.4761 17.8754C29.6278 17.9195 29.7652 18.0029 29.8742 18.1172C29.9833 18.2315 30.0601 18.3726 30.0971 18.5262C30.134 18.6798 30.1297 18.8404 30.0845 18.9918C30.0393 19.1432 29.955 19.28 29.8399 19.3882C29.3869 19.8264 28.8366 20.1512 28.2341 20.3362C27.8498 20.4547 27.4609 20.561 27.0684 20.6493C26.8895 20.6738 26.7224 20.7523 26.5894 20.8743C26.4563 20.9963 26.3637 21.1561 26.3239 21.3322C26.186 21.8949 26.0445 22.4568 25.9168 23.022C25.9093 23.1103 25.9371 23.198 25.9941 23.2658C26.0511 23.3337 26.1327 23.3762 26.221 23.3839C27.6094 23.3439 28.9968 23.3056 30.3845 23.2545C31.0546 23.229 31.7232 23.1723 32.393 23.1315C33.1084 23.0882 33.8257 23.067 34.5387 22.9985C35.6693 22.8922 36.2997 23.569 36.6224 24.5196C36.8206 25.118 36.8873 25.7522 36.8177 26.3788C36.7532 27.0007 36.7422 27.6272 36.6855 28.2512C36.6598 28.5611 36.604 28.8678 36.5188 29.1669C36.3359 29.781 35.987 30.1682 35.2602 30.1175C34.8946 30.0926 34.7706 30.2689 34.7578 30.5911C34.7466 30.7705 34.7466 30.9503 34.7578 31.1297C34.8964 32.7985 34.5954 34.4302 34.3451 36.0664C34.0753 37.8331 33.8133 39.6015 33.5488 41.3686C33.787 42.4493 32.9574 42.852 32.2685 43.2931C31.7217 43.6076 31.1007 43.7701 30.4699 43.7639C29.7119 43.7955 28.9549 43.8816 28.1969 43.9412C27.9292 43.961 27.6609 43.9806 27.3928 43.9809C26.5632 43.9845 25.7328 43.9958 24.9032 43.9958C24.437 44.0001 23.9686 43.9965 23.4989 43.9858ZM22.8841 40.9885C22.8777 41.0783 22.8536 41.1659 22.8132 41.2463C22.7203 41.4456 22.7422 41.6069 22.9826 41.6243C23.3829 41.6676 23.7863 41.676 24.1881 41.6494C25.5665 41.5058 26.9422 41.3395 28.3168 41.1637C29.1588 41.0573 29.9966 40.9134 30.8372 40.7925C30.9486 40.783 31.0536 40.7361 31.1348 40.6592C31.216 40.5824 31.2687 40.4802 31.2843 40.3695C31.3354 40.1529 31.4318 39.944 31.4694 39.7249C31.8363 37.565 32.2327 35.408 32.5398 33.2367C32.6121 32.3886 32.624 31.5363 32.5752 30.6865C32.5765 30.6412 32.5685 30.5961 32.5515 30.5541C32.5346 30.5121 32.5092 30.474 32.4768 30.4423C32.4444 30.4106 32.4058 30.386 32.3634 30.3699C32.3211 30.3538 32.2759 30.3467 32.2306 30.349C31.9551 30.3511 31.6796 30.349 31.4035 30.349C30.6041 30.3311 29.8044 30.3565 29.0078 30.4252C28.1129 30.5202 27.2223 30.556 26.3274 30.5642C25.6538 30.5713 24.9823 30.5663 24.3097 30.5663C24.3097 30.5433 24.3072 30.5202 24.3055 30.4954C22.4735 30.6057 20.6426 30.7234 18.81 30.8259C17.1436 30.9198 17.1596 30.7386 17.8743 32.3351C18.064 32.7606 18.1161 33.2981 18.6097 33.5495C18.9497 33.3424 19.289 33.1339 19.6311 32.9322C19.8139 32.8024 20.0118 32.6953 20.2204 32.6131C20.5181 32.5248 20.8251 32.4712 21.1351 32.4536C21.248 32.4451 21.3608 32.472 21.4577 32.5305C21.5546 32.5891 21.631 32.6763 21.6761 32.7801C21.7058 32.8871 21.6989 33.001 21.6567 33.1037C21.6145 33.2065 21.5392 33.2922 21.4429 33.3474C21.2138 33.4863 20.9585 33.5842 20.7387 33.7345C20.2228 34.0891 19.7063 34.4436 19.2216 34.8375C19.1131 34.921 19.0394 35.0419 19.0149 35.1766C18.9903 35.3113 19.0166 35.4504 19.0887 35.5668C19.2039 35.7905 19.2982 35.8675 19.467 35.7778C19.9002 35.5455 20.3299 35.3041 20.7699 35.0857C20.9282 34.9992 21.1027 34.9465 21.2825 34.9309C21.4622 34.9152 21.6432 34.9371 21.8141 34.995C21.9652 35.0741 22.0804 35.208 22.136 35.3693C22.1451 35.434 22.138 35.4999 22.1154 35.5611C22.0928 35.6224 22.0554 35.6771 22.0066 35.7203C21.7467 35.8891 21.4521 36.0015 21.1812 36.1547C20.715 36.4167 20.2484 36.679 19.7985 36.9683C19.6141 37.0878 19.6357 37.5002 19.8062 37.7047C19.9622 37.8902 20.1253 37.7756 20.281 37.6998C20.6437 37.5225 20.9983 37.3307 21.3673 37.1679C21.6943 37.0082 22.0711 36.9841 22.4157 37.1009C22.4732 37.1304 22.5236 37.172 22.5635 37.2228C22.6034 37.2736 22.6318 37.3324 22.6469 37.3952C22.6574 37.4583 22.6535 37.523 22.6356 37.5843C22.6177 37.6457 22.5862 37.7022 22.5434 37.7497C22.3673 37.8845 22.1759 37.9979 21.9732 38.0876C21.4921 38.3248 20.9982 38.539 20.5249 38.7914C20.4837 38.8093 20.447 38.8361 20.4173 38.8698C20.3876 38.9035 20.3656 38.9434 20.353 38.9865C20.3404 39.0296 20.3374 39.075 20.3443 39.1194C20.3511 39.1638 20.3677 39.2061 20.3927 39.2435C20.4909 39.3984 20.6206 39.5388 20.8259 39.4463C21.1095 39.3186 21.3762 39.1382 21.6687 39.0361C21.8793 38.9692 22.102 38.9496 22.321 38.9786C22.3828 38.9943 22.4402 39.0238 22.4888 39.065C22.5374 39.1061 22.5759 39.1579 22.6015 39.2162C22.6223 39.2772 22.6303 39.3418 22.625 39.4061C22.6196 39.4703 22.601 39.5328 22.5703 39.5895C22.4712 39.7372 22.3425 39.8626 22.1923 39.9579C21.931 40.1295 21.645 40.2635 21.3819 40.4347C21.2772 40.5162 21.1869 40.6147 21.1149 40.7262C21.1066 40.7466 21.1036 40.7688 21.1063 40.7907C21.1089 40.8126 21.1172 40.8335 21.1301 40.8513C21.189 40.9095 21.2815 41.0066 21.3297 40.9906C21.7045 40.8694 22.0658 40.7031 22.4444 40.5946C22.47 40.5873 22.4965 40.5836 22.5232 40.5836C22.6241 40.5911 22.7182 40.6375 22.7855 40.7131C22.8529 40.7886 22.8882 40.8874 22.8841 40.9885ZM16.1704 29.2549C16.0542 29.2659 15.9407 29.2959 15.8343 29.3438C15.8347 29.3812 15.8449 29.4179 15.8637 29.4502C15.9232 29.5075 16.0021 29.5401 16.0846 29.5415C16.1672 29.543 16.2472 29.5131 16.3087 29.458C16.3326 29.4326 16.3528 29.4038 16.3686 29.3726C16.303 29.3304 16.2374 29.2534 16.1718 29.2534L16.1704 29.2549ZM18.7774 27.1162C18.8399 27.1334 18.8978 27.1643 18.9469 27.2066C18.996 27.249 19.035 27.3019 19.061 27.3612C19.1274 27.5278 19.1362 27.7117 19.0862 27.8838C18.8589 28.4004 19.1773 28.706 19.4673 29.0333C19.5606 29.1396 19.7463 29.1208 19.7818 29.0038C19.8453 28.7911 19.8984 28.5784 19.9498 28.3657C20.0264 28.0466 20.1459 27.7629 20.5114 27.6941C20.7469 27.6509 20.9188 27.8955 20.9926 28.3678C20.9997 28.411 20.989 28.4585 20.9961 28.5021C21.0582 28.9049 21.1301 28.9904 21.4762 28.9861C22.7291 28.9673 23.9764 28.9287 25.2273 28.7865C26.916 28.594 28.6185 28.5291 30.3153 28.4078C30.3611 28.4043 30.4047 28.4008 30.4494 28.4008C30.5838 28.4107 30.7179 28.3781 30.8329 28.3076C30.9478 28.2372 31.0378 28.1325 31.09 28.0083C31.2209 27.7246 31.373 27.4513 31.5452 27.1907C31.6507 27.0475 31.7929 26.9356 31.9569 26.8666C32.0189 26.8492 32.0841 26.8455 32.1478 26.8559C32.2114 26.8663 32.272 26.8905 32.3253 26.9269C32.3761 26.9665 32.4169 27.0175 32.4444 27.0757C32.4718 27.134 32.4852 27.1979 32.4834 27.2623C32.3908 27.5555 32.2352 27.8268 32.1242 28.1168C32.1072 28.1622 32.2136 28.3153 32.2572 28.3125C32.8776 28.277 33.4981 28.2302 34.1164 28.16C34.1806 28.1481 34.2411 28.1212 34.2928 28.0815C34.3446 28.0417 34.3862 27.9903 34.4142 27.9313C34.611 27.1534 34.855 26.3781 34.7458 25.5559C34.7347 25.4461 34.6812 25.3451 34.5967 25.2742C34.5122 25.2034 34.4033 25.1683 34.2934 25.1765C34.204 25.1765 34.116 25.1897 34.0253 25.1932C31.4304 25.2971 28.8355 25.3967 26.2413 25.5069C25.8399 25.5232 25.4393 25.5779 25.0408 25.6272C24.1101 25.747 23.1826 25.9133 22.248 25.9874C21.267 26.0636 20.2789 26.0558 19.2936 26.0835C19.2936 26.0739 19.2936 26.0647 19.2936 26.0562C18.8905 26.0562 18.4866 26.0466 18.0835 26.0562C17.4124 26.0749 16.7394 26.0764 16.0718 26.1405C15.5567 26.1881 15.3929 26.4025 15.3716 26.9464C15.3782 27.2094 15.4031 27.4715 15.4461 27.731C15.7829 27.6686 15.6279 27.3166 15.7917 27.1453C15.9417 26.9875 16.0637 26.8028 16.2048 26.6362C16.2223 26.622 16.243 26.6122 16.265 26.6075C16.2871 26.6029 16.31 26.6036 16.3317 26.6096C16.3509 26.6193 16.3676 26.6334 16.3804 26.6507C16.3932 26.668 16.4018 26.688 16.4055 26.7092C16.4299 27.1053 16.4459 27.5013 16.471 27.8976C16.4732 27.9349 16.5171 27.9774 16.5526 28.0001C16.5671 28.009 16.6278 27.9785 16.6405 27.953C16.7423 27.7555 16.8288 27.5498 16.9362 27.3566C17.0436 27.1634 17.172 26.9294 17.4223 26.9801C17.496 26.9957 17.5375 27.2939 17.5481 27.4633C17.5637 27.7296 17.5308 27.998 17.5439 28.2643C17.5557 28.3037 17.5774 28.3395 17.607 28.3681C17.6365 28.3968 17.6729 28.4174 17.7127 28.428C17.755 28.429 17.7968 28.4196 17.8346 28.4007C17.8724 28.3818 17.9051 28.354 17.9296 28.3196C18.1044 27.9629 18.2452 27.5892 18.4335 27.2385C18.4708 27.1977 18.5165 27.1654 18.5675 27.1438C18.6185 27.1223 18.6735 27.1119 18.7288 27.1134C18.7451 27.1129 18.7613 27.1136 18.7774 27.1162ZM22.1612 17.2003C22.1231 17.348 22.1236 17.503 22.1626 17.6505C22.2017 17.7979 22.278 17.9329 22.3841 18.0423C22.4122 18.0704 22.4774 18.1108 22.4937 18.0984C22.5531 18.0582 22.6037 18.0065 22.6426 17.9463C22.6628 17.9147 22.6504 17.8615 22.6597 17.7077C22.6278 17.5352 22.5854 17.3648 22.5327 17.1975C22.5089 17.162 22.4774 17.1323 22.4406 17.1106C22.4038 17.0889 22.3626 17.0757 22.32 17.072H22.3147C22.2805 17.0791 22.2485 17.0945 22.2217 17.1169C22.1948 17.1393 22.1739 17.1679 22.1608 17.2003H22.1612ZM21.0539 16.8458C20.9912 17.0939 20.7745 17.3205 20.9242 17.6009C20.9659 17.6765 21.0282 17.7388 21.1039 17.7803C21.1308 17.7942 21.2429 17.7201 21.2535 17.674C21.2721 17.5553 21.2806 17.4353 21.2787 17.3152C21.286 17.1693 21.2839 17.0232 21.2723 16.8777C21.2659 16.8312 21.1911 16.7901 21.1383 16.7582C21.1005 16.777 21.0705 16.8085 21.0536 16.8472L21.0539 16.8458ZM20.0541 16.498L20.1395 16.5082L20.1041 16.4121L20.0541 16.498ZM34.1267 13.5499C34.0556 13.657 33.9969 13.7718 33.9516 13.8921C33.9817 14.0223 34.0272 14.1485 34.0873 14.2679C34.1154 14.2978 34.1509 14.3199 34.1901 14.3319C34.2293 14.344 34.271 14.3456 34.3111 14.3366C34.3709 14.2892 34.42 14.2295 34.4549 14.1616C34.4898 14.0936 34.5097 14.019 34.5134 13.9427C34.5171 13.8664 34.5043 13.7901 34.4761 13.7192C34.4479 13.6482 34.4048 13.5841 34.3497 13.5311C34.3232 13.5148 34.2922 13.5072 34.2611 13.5095C34.2125 13.5064 34.1646 13.5213 34.1263 13.5513L34.1267 13.5499ZM32.7107 13.8779C32.6957 13.9173 32.6887 13.9593 32.6903 14.0015C32.6919 14.0436 32.702 14.085 32.7199 14.1232C32.7378 14.1614 32.7632 14.1956 32.7947 14.2237C32.8261 14.2519 32.8629 14.2734 32.9028 14.287C32.9373 14.2869 32.9711 14.2782 33.0012 14.2614C33.0312 14.2447 33.0566 14.2205 33.0748 14.1913C33.0956 14.0683 33.0904 13.9423 33.0595 13.8215C33.046 13.7718 32.9386 13.7474 32.8663 13.7084C32.8131 13.764 32.7294 13.8133 32.7103 13.8796L32.7107 13.8779ZM31.3935 14.0119C31.4378 14.0597 31.4786 14.1409 31.5275 14.1448C31.5921 14.1512 31.6616 14.0973 31.7289 14.0697C31.6881 14.0208 31.6484 13.9328 31.6062 13.9318H31.5981C31.5253 13.946 31.4558 13.9737 31.3932 14.0133L31.3935 14.0119ZM35.3559 13.8396C35.3747 13.9109 35.3994 13.9806 35.43 14.0477C35.4743 14.0052 35.5183 13.9623 35.5626 13.9201C35.5222 13.8665 35.4807 13.8137 35.4396 13.7626C35.4098 13.7899 35.352 13.8218 35.357 13.841L35.3559 13.8396ZM29.2772 13.0635C29.3091 12.9926 29.3414 12.9217 29.3737 12.8525C29.2329 12.8657 29.1198 12.8922 29.2769 13.0642L29.2772 13.0635ZM27.552 10.7696C27.5396 10.8681 27.6268 10.9805 27.6672 11.0858C27.7441 11.0416 27.8187 10.9935 27.8906 10.9415C28.387 10.5551 28.4579 10.3335 28.1824 9.8279C28.0684 9.6622 27.9338 9.51169 27.7817 9.38009C27.7016 9.8449 27.6148 10.3058 27.5517 10.771L27.552 10.7696ZM26.2976 8.58448C26.3487 8.62341 26.3908 8.6729 26.421 8.72956C26.4512 8.78621 26.4689 8.84871 26.4728 8.9128C26.4855 9.22019 26.4487 9.52902 26.4487 9.83712C26.4591 9.9673 26.4811 10.0963 26.5146 10.2225C26.5908 10.0971 26.6587 9.96683 26.7178 9.83249C26.906 9.32195 27.2989 9.25671 27.7555 9.32089C27.7633 9.24559 27.7531 9.16953 27.7257 9.09895C27.1046 8.32303 26.3349 7.67889 25.4616 7.20426C25.4316 7.19585 25.3998 7.19585 25.3698 7.20426C25.5042 7.46747 25.5418 7.76951 25.4762 8.05764C25.4013 8.39808 25.3714 8.74685 25.3872 9.09505C25.3847 9.13476 25.4201 9.17622 25.4382 9.21628C25.4737 9.19607 25.5166 9.18402 25.5378 9.1553C25.6417 9.01348 25.7329 8.86386 25.8417 8.727C25.8775 8.67505 25.9244 8.63173 25.9791 8.60015C26.0337 8.56857 26.0947 8.54955 26.1576 8.54445C26.2069 8.54612 26.255 8.56038 26.2973 8.58591L26.2976 8.58448ZM24.6313 6.91814C24.6993 7.01493 24.7532 7.17555 24.838 7.19469C25.0026 7.2134 25.169 7.2085 25.3322 7.18015C25.3251 6.92559 25.1166 6.83409 24.9241 6.76744C24.9175 6.76526 24.9106 6.76421 24.9036 6.76428C24.8302 6.76712 24.7206 6.87167 24.6313 6.92095V6.91814ZM28.2983 36.8251C28.2818 36.7847 28.2734 36.7415 28.2737 36.6978C28.2741 36.6542 28.283 36.611 28.3001 36.5709C28.5577 35.9578 29.0367 35.4642 29.6417 35.1882C29.7307 35.1481 29.8863 35.2197 29.9906 35.2758C30.0288 35.296 30.0427 35.4392 30.0125 35.4995C29.7256 36.0933 29.3135 36.618 28.8046 37.0375C28.7489 37.0839 28.6398 37.0644 28.5125 37.0818C28.4306 37.0065 28.3587 36.9211 28.2983 36.8276V36.8251ZM27.3793 35.8175C27.2893 35.7218 27.2313 35.6004 27.2134 35.4702C27.1954 35.34 27.2185 35.2075 27.2794 35.091C27.6467 34.4269 28.1612 33.8557 28.7834 33.4211C28.892 33.347 29.0206 33.3078 29.1521 33.3087C29.2535 33.3179 29.3449 33.4342 29.4456 33.5062C29.4102 33.6661 29.4215 33.8253 29.3495 33.9168C28.862 34.5486 28.365 35.1751 27.8519 35.7863C27.8211 35.824 27.7824 35.8544 27.7386 35.8756C27.6947 35.8968 27.6468 35.9082 27.5981 35.909C27.5165 35.909 27.4381 35.877 27.3797 35.82L27.3793 35.8175Z" fill="white"/>
</g>
<defs>
<clipPath id="clip0_132_426">
<rect width="39" height="39" fill="white" transform="translate(6 5)"/>
</clipPath>
</defs>
</svg>
